SplineFontDB: 3.2
FontName: Kilroy2-CondensedRegular
FullName: Kilroy2 Condensed Regular
FamilyName: Kilroy2 Condensed
Weight: Regular
Copyright: Copyright 2020 The Roboto Serif Project Authors (https://github.com/googlefonts/RobotoSerif) OFL
Version: 1.008
ItalicAngle: 0
UnderlinePosition: -200
UnderlineWidth: 100
Ascent: 800
Descent: 200
InvalidEm: 0
sfntRevision: 0x0001020c
LayerCount: 2
Layer: 0 1 "Back" 1
Layer: 1 1 "Fore" 0
XUID: [1021 1018 -1064020043 17444]
StyleMap: 0x0040
FSType: 0
OS2Version: 4
OS2_WeightWidthSlopeOnly: 0
OS2_UseTypoMetrics: 1
CreationTime: 1586430965
ModificationTime: 1751691131
PfmFamily: 81
TTFWeight: 400
TTFWidth: 1
LineGap: 0
VLineGap: 0
Panose: 0 0 0 0 0 0 0 0 0 0
OS2TypoAscent: 927
OS2TypoAOffset: 0
OS2TypoDescent: -244
OS2TypoDOffset: 0
OS2TypoLinegap: 0
OS2WinAscent: 1048
OS2WinAOffset: 0
OS2WinDescent: 251
OS2WinDOffset: 0
HheadAscent: 927
HheadAOffset: 0
HheadDescent: -244
HheadDOffset: 0
OS2SubXSize: 650
OS2SubYSize: 600
OS2SubXOff: 0
OS2SubYOff: 75
OS2SupXSize: 650
OS2SupYSize: 600
OS2SupXOff: 0
OS2SupYOff: 350
OS2StrikeYSize: 100
OS2StrikeYPos: 311
OS2CapHeight: 710
OS2XHeight: 518
OS2Vendor: 'COMM'
OS2CodePages: 20000193.00000000
OS2UnicodeRanges: a10000ef.4000267a.00000000.00000000
Lookup: 5 0 0 "'locl' Localized Forms in Latin lookup 0" { "'locl' Localized Forms in Latin lookup 0 subtable"  } ['locl' ('latn' <'AZE ' 'CRT ' 'TRK ' > ) ]
Lookup: 1 0 0 "Single Substitution lookup 1" { "Single Substitution lookup 1 subtable"  } []
Lookup: 5 0 0 "'locl' Localized Forms in Latin lookup 2" { "'locl' Localized Forms in Latin lookup 2 subtable"  } ['locl' ('latn' <'PLK ' > ) ]
Lookup: 1 0 0 "Single Substitution lookup 3" { "Single Substitution lookup 3 subtable"  } []
Lookup: 6 0 0 "'locl' Localized Forms in Latin lookup 4" { "'locl' Localized Forms in Latin lookup 4 subtable"  } ['locl' ('latn' <'CAT ' > ) ]
Lookup: 4 0 0 "Ligature Substitution lookup 5" { "Ligature Substitution lookup 5 subtable"  } []

StartChar: .notdef
Encoding: 65536 -1 0
Width: 400
GlyphClass: 1
Flags: W
LayerCount: 2
Fore
SplineSet
0 0 m 1,0,-1
 0 700 l 1,1,-1
 400 700 l 1,2,-1
 400 0 l 1,3,-1
 0 0 l 1,0,-1
50 650 m 1,4,-1
 50 50 l 1,5,-1
 350 50 l 1,6,-1
 350 650 l 1,7,-1
 50 650 l 1,4,-1
EndSplineSet
EndChar

StartChar: A
Encoding: 65 65 6
Width: 618
GlyphClass: 2
Flags: W
AnchorPoint: "Anchor-2" 489 0 basechar 0
AnchorPoint: "Anchor-1" 309 0 basechar 0
AnchorPoint: "Anchor-0" 309 721 basechar 0
LayerCount: 2
Fore
SplineSet
184 294 m 1,0,-1
 406 294 l 1,1,-1
 421 238 l 1,2,-1
 169 238 l 1,3,-1
 184 294 l 1,0,-1
286 695 m 1,4,-1
 308 691 l 1,5,-1
 144 79 l 2,6,7
 144 73 144 73 152 67.5 c 128,-1,8
 160 62 160 62 175.5 59 c 128,-1,9
 191 56 191 56 213 56 c 2,10,-1
 221 56 l 1,11,-1
 221 0 l 1,12,-1
 15 0 l 1,13,-1
 15 56 l 1,14,-1
 20 56 l 2,15,16
 44 56 44 56 60 68 c 128,-1,17
 76 80 76 80 87 120 c 2,18,-1
 256 722 l 1,19,-1
 363 722 l 1,20,-1
 532 120 l 2,21,22
 543 80 543 80 559.5 68 c 128,-1,23
 576 56 576 56 601 56 c 2,24,-1
 605 56 l 1,25,-1
 605 0 l 1,26,-1
 376 0 l 1,27,-1
 376 56 l 1,28,-1
 385 56 l 2,29,30
 407 56 407 56 422.5 57.5 c 128,-1,31
 438 59 438 59 446.5 61.5 c 128,-1,32
 455 64 455 64 455 67 c 2,33,-1
 286 695 l 1,4,-1
EndSplineSet
EndChar

StartChar: Aogonek
Encoding: 260 260 15
Width: 618
GlyphClass: 1
Flags: W
LayerCount: 2
Fore
SplineSet
184 294 m 1,0,-1
 406 294 l 1,1,-1
 421 238 l 1,2,-1
 169 238 l 1,3,-1
 184 294 l 1,0,-1
496 40 m 1,4,-1
 519 6 l 1,5,6
 477 -31 477 -31 455 -55.5 c 128,-1,7
 433 -80 433 -80 424.5 -101 c 128,-1,8
 416 -122 416 -122 416 -148 c 0,9,10
 416 -173 416 -173 427 -185.5 c 128,-1,11
 438 -198 438 -198 458 -198 c 0,12,13
 484 -198 484 -198 502 -181.5 c 128,-1,14
 520 -165 520 -165 530 -149 c 1,15,-1
 568 -180 l 1,16,17
 546 -211 546 -211 515.5 -231.5 c 128,-1,18
 485 -252 485 -252 438 -252 c 0,19,20
 387 -252 387 -252 352.5 -230.5 c 128,-1,21
 318 -209 318 -209 318 -158 c 0,22,23
 318 -132 318 -132 325.5 -112 c 128,-1,24
 333 -92 333 -92 352.5 -71.5 c 128,-1,25
 372 -51 372 -51 407 -25 c 128,-1,26
 442 1 442 1 496 40 c 1,4,-1
605 0 m 1,27,-1
 473 0 l 1,28,-1
 286 695 l 1,29,-1
 308 691 l 1,30,-1
 144 79 l 2,31,32
 144 73 144 73 152 67.5 c 128,-1,33
 160 62 160 62 175.5 59 c 128,-1,34
 191 56 191 56 213 56 c 2,35,-1
 221 56 l 1,36,-1
 221 0 l 1,37,-1
 15 0 l 1,38,-1
 15 56 l 1,39,-1
 20 56 l 2,40,41
 43 56 43 56 59.5 68 c 128,-1,42
 76 80 76 80 87 120 c 2,43,-1
 256 722 l 1,44,-1
 363 722 l 1,45,-1
 532 120 l 2,46,47
 543 80 543 80 559.5 68 c 128,-1,48
 576 56 576 56 601 56 c 2,49,-1
 605 56 l 1,50,-1
 605 0 l 1,27,-1
EndSplineSet
EndChar

StartChar: Acaron
Encoding: 461 461 16
Width: 618
GlyphClass: 1
Flags: W
LayerCount: 2
Fore
SplineSet
273 806 m 1,0,-1
 341 806 l 1,1,-1
 453 961 l 1,2,-1
 453 981 l 1,3,-1
 417 981 l 1,4,-1
 266 846 l 1,5,-1
 353 848 l 1,6,-1
 204 981 l 1,7,-1
 160 981 l 1,8,-1
 160 961 l 1,9,-1
 273 806 l 1,0,-1
184 294 m 1,10,-1
 406 294 l 1,11,-1
 421 238 l 1,12,-1
 169 238 l 1,13,-1
 184 294 l 1,10,-1
286 695 m 1,14,-1
 308 691 l 1,15,-1
 144 79 l 2,16,17
 144 73 144 73 152 67.5 c 128,-1,18
 160 62 160 62 175.5 59 c 128,-1,19
 191 56 191 56 213 56 c 2,20,-1
 221 56 l 1,21,-1
 221 0 l 1,22,-1
 15 0 l 1,23,-1
 15 56 l 1,24,-1
 20 56 l 2,25,26
 44 56 44 56 60 68 c 128,-1,27
 76 80 76 80 87 120 c 2,28,-1
 256 722 l 1,29,-1
 363 722 l 1,30,-1
 532 120 l 2,31,32
 543 80 543 80 559.5 68 c 128,-1,33
 576 56 576 56 601 56 c 2,34,-1
 605 56 l 1,35,-1
 605 0 l 1,36,-1
 376 0 l 1,37,-1
 376 56 l 1,38,-1
 385 56 l 2,39,40
 407 56 407 56 422.5 57.5 c 128,-1,41
 438 59 438 59 446.5 61.5 c 128,-1,42
 455 64 455 64 455 67 c 2,43,-1
 286 695 l 1,14,-1
EndSplineSet
EndChar

StartChar: Adblgrave
Encoding: 512 512 18
Width: 618
GlyphClass: 1
Flags: W
LayerCount: 2
Fore
SplineSet
388 918 m 2,0,-1
 427 816 l 1,1,-1
 427 793 l 1,2,-1
 394 793 l 1,3,-1
 329 862 l 2,4,5
 311 882 311 882 299 898 c 128,-1,6
 287 914 287 914 287 934 c 0,7,8
 287 951 287 951 299 963 c 128,-1,9
 311 975 311 975 332 975 c 0,10,11
 347 975 347 975 357 967.5 c 128,-1,12
 367 960 367 960 374.5 947.5 c 128,-1,13
 382 935 382 935 388 918 c 2,0,-1
220 918 m 2,14,-1
 256 816 l 1,15,-1
 256 793 l 1,16,-1
 224 793 l 1,17,-1
 159 862 l 2,18,19
 141 882 141 882 128.5 898 c 128,-1,20
 116 914 116 914 116 934 c 0,21,22
 116 951 116 951 128.5 963 c 128,-1,23
 141 975 141 975 162 975 c 0,24,25
 176 975 176 975 187 968 c 128,-1,26
 198 961 198 961 206 948 c 128,-1,27
 214 935 214 935 220 918 c 2,14,-1
184 294 m 1,28,-1
 406 294 l 1,29,-1
 421 238 l 1,30,-1
 169 238 l 1,31,-1
 184 294 l 1,28,-1
286 695 m 1,32,-1
 308 691 l 1,33,-1
 144 79 l 2,34,35
 144 73 144 73 152 67.5 c 128,-1,36
 160 62 160 62 175.5 59 c 128,-1,37
 191 56 191 56 213 56 c 2,38,-1
 221 56 l 1,39,-1
 221 0 l 1,40,-1
 15 0 l 1,41,-1
 15 56 l 1,42,-1
 20 56 l 2,43,44
 44 56 44 56 60 68 c 128,-1,45
 76 80 76 80 87 120 c 2,46,-1
 256 722 l 1,47,-1
 363 722 l 1,48,-1
 532 120 l 2,49,50
 543 80 543 80 559.5 68 c 128,-1,51
 576 56 576 56 601 56 c 2,52,-1
 605 56 l 1,53,-1
 605 0 l 1,54,-1
 376 0 l 1,55,-1
 376 56 l 1,56,-1
 385 56 l 2,57,58
 407 56 407 56 422.5 57.5 c 128,-1,59
 438 59 438 59 446.5 61.5 c 128,-1,60
 455 64 455 64 455 67 c 2,61,-1
 286 695 l 1,32,-1
EndSplineSet
EndChar

StartChar: Ainvertedbreve
Encoding: 514 514 19
Width: 618
GlyphClass: 1
Flags: W
LayerCount: 2
Fore
SplineSet
312 929 m 0,0,1
 265 929 265 929 232.5 913.5 c 128,-1,2
 200 898 200 898 183 862.5 c 128,-1,3
 166 827 166 827 165 767 c 1,4,-1
 222 767 l 1,5,6
 224 803 224 803 232 823 c 128,-1,7
 240 843 240 843 259 851.5 c 128,-1,8
 278 860 278 860 312 860 c 0,9,10
 344 860 344 860 362.5 852 c 128,-1,11
 381 844 381 844 389.5 823.5 c 128,-1,12
 398 803 398 803 399 767 c 1,13,-1
 460 767 l 1,14,15
 459 827 459 827 442 862.5 c 128,-1,16
 425 898 425 898 392.5 913.5 c 128,-1,17
 360 929 360 929 312 929 c 0,0,1
184 294 m 1,18,-1
 406 294 l 1,19,-1
 421 238 l 1,20,-1
 169 238 l 1,21,-1
 184 294 l 1,18,-1
286 695 m 1,22,-1
 308 691 l 1,23,-1
 144 79 l 2,24,25
 144 73 144 73 152 67.5 c 128,-1,26
 160 62 160 62 175.5 59 c 128,-1,27
 191 56 191 56 213 56 c 2,28,-1
 221 56 l 1,29,-1
 221 0 l 1,30,-1
 15 0 l 1,31,-1
 15 56 l 1,32,-1
 20 56 l 2,33,34
 44 56 44 56 60 68 c 128,-1,35
 76 80 76 80 87 120 c 2,36,-1
 256 722 l 1,37,-1
 363 722 l 1,38,-1
 532 120 l 2,39,40
 543 80 543 80 559.5 68 c 128,-1,41
 576 56 576 56 601 56 c 2,42,-1
 605 56 l 1,43,-1
 605 0 l 1,44,-1
 376 0 l 1,45,-1
 376 56 l 1,46,-1
 385 56 l 2,47,48
 407 56 407 56 422.5 57.5 c 128,-1,49
 438 59 438 59 446.5 61.5 c 128,-1,50
 455 64 455 64 455 67 c 2,51,-1
 286 695 l 1,22,-1
EndSplineSet
EndChar

StartChar: B
Encoding: 66 66 32
Width: 600
GlyphClass: 2
Flags: W
AnchorPoint: "Anchor-0" 319 741 basechar 0
LayerCount: 2
Fore
SplineSet
318 710 m 2,0,1
 368 710 368 710 406.5 699.5 c 128,-1,2
 445 689 445 689 471 667 c 128,-1,3
 497 645 497 645 510.5 612 c 128,-1,4
 524 579 524 579 524 534 c 0,5,6
 524 490 524 490 506 454 c 128,-1,7
 488 418 488 418 453 397 c 128,-1,8
 418 376 418 376 365 374 c 1,9,-1
 372 388 l 1,10,-1
 372 355 l 1,11,-1
 365 372 l 1,12,13
 425 369 425 369 466 346.5 c 128,-1,14
 507 324 507 324 528 286 c 128,-1,15
 549 248 549 248 549 196 c 0,16,17
 549 146 549 146 534.5 109 c 128,-1,18
 520 72 520 72 491.5 48 c 128,-1,19
 463 24 463 24 421.5 12 c 128,-1,20
 380 0 380 0 326 0 c 2,21,-1
 50 0 l 1,22,-1
 50 56 l 1,23,-1
 59 56 l 2,24,25
 88 56 88 56 106.5 63 c 128,-1,26
 125 70 125 70 125 92 c 2,27,-1
 125 618 l 2,28,29
 125 640 125 640 106.5 647 c 128,-1,30
 88 654 88 654 59 654 c 2,31,-1
 50 654 l 1,32,-1
 50 710 l 1,33,-1
 318 710 l 2,0,1
179 397 m 1,34,-1
 310 397 l 2,35,36
 353 397 353 397 379.5 411.5 c 128,-1,37
 406 426 406 426 418.5 456.5 c 128,-1,38
 431 487 431 487 431 533 c 0,39,40
 431 574 431 574 419 601 c 128,-1,41
 407 628 407 628 380.5 642 c 128,-1,42
 354 656 354 656 311 656 c 2,43,-1
 215 656 l 1,44,-1
 215 54 l 1,45,-1
 318 54 l 2,46,47
 366 54 366 54 396 70 c 128,-1,48
 426 86 426 86 440.5 118 c 128,-1,49
 455 150 455 150 455 197 c 0,50,51
 455 247 455 247 439.5 280 c 128,-1,52
 424 313 424 313 391.5 330 c 128,-1,53
 359 347 359 347 309 347 c 2,54,-1
 179 347 l 1,55,-1
 179 397 l 1,34,-1
EndSplineSet
EndChar

StartChar: C
Encoding: 67 67 33
Width: 632
GlyphClass: 2
Flags: W
AnchorPoint: "Anchor-1" 334 0 basechar 0
AnchorPoint: "Anchor-0" 334 741 basechar 0
LayerCount: 2
Fore
SplineSet
326 677 m 0,0,1
 282 677 282 677 248.5 658.5 c 128,-1,2
 215 640 215 640 192.5 601 c 128,-1,3
 170 562 170 562 158.5 501.5 c 128,-1,4
 147 441 147 441 147 357 c 0,5,6
 147 274 147 274 158.5 213 c 128,-1,7
 170 152 170 152 193 112 c 128,-1,8
 216 72 216 72 251 52.5 c 128,-1,9
 286 33 286 33 333 33 c 0,10,11
 388 33 388 33 425 59.5 c 128,-1,12
 462 86 462 86 485.5 128 c 128,-1,13
 509 170 509 170 525 218 c 1,14,-1
 579 195 l 1,15,16
 560 130 560 130 526.5 81 c 128,-1,17
 493 32 493 32 443.5 4.5 c 128,-1,18
 394 -23 394 -23 327 -23 c 0,19,20
 264 -23 264 -23 213 1 c 128,-1,21
 162 25 162 25 125.5 73 c 128,-1,22
 89 121 89 121 69.5 192 c 128,-1,23
 50 263 50 263 50 357 c 0,24,25
 50 450 50 450 70 520.5 c 128,-1,26
 90 591 90 591 126.5 638.5 c 128,-1,27
 163 686 163 686 213 709.5 c 128,-1,28
 263 733 263 733 322 733 c 0,29,30
 378 733 378 733 419.5 707.5 c 128,-1,31
 461 682 461 682 486.5 631.5 c 128,-1,32
 512 581 512 581 520 505 c 1,33,-1
 496 534 l 1,34,-1
 508 720 l 1,35,-1
 571 720 l 1,36,-1
 571 473 l 1,37,-1
 504 473 l 1,38,39
 486 542 486 542 460.5 587 c 128,-1,40
 435 632 435 632 401.5 654.5 c 128,-1,41
 368 677 368 677 326 677 c 0,0,1
EndSplineSet
EndChar

StartChar: Ccaron
Encoding: 268 268 38
Width: 632
GlyphClass: 1
Flags: W
LayerCount: 2
Fore
SplineSet
283 806 m 1,0,-1
 351 806 l 1,1,-1
 463 961 l 1,2,-1
 463 981 l 1,3,-1
 427 981 l 1,4,-1
 276 846 l 1,5,-1
 363 848 l 1,6,-1
 214 981 l 1,7,-1
 170 981 l 1,8,-1
 170 961 l 1,9,-1
 283 806 l 1,0,-1
326 677 m 0,10,11
 282 677 282 677 248.5 658.5 c 128,-1,12
 215 640 215 640 192.5 601 c 128,-1,13
 170 562 170 562 158.5 501.5 c 128,-1,14
 147 441 147 441 147 357 c 0,15,16
 147 274 147 274 158.5 213 c 128,-1,17
 170 152 170 152 193 112 c 128,-1,18
 216 72 216 72 251 52.5 c 128,-1,19
 286 33 286 33 333 33 c 0,20,21
 388 33 388 33 425 59.5 c 128,-1,22
 462 86 462 86 485.5 128 c 128,-1,23
 509 170 509 170 525 218 c 1,24,-1
 579 195 l 1,25,26
 560 130 560 130 526.5 81 c 128,-1,27
 493 32 493 32 443.5 4.5 c 128,-1,28
 394 -23 394 -23 327 -23 c 0,29,30
 264 -23 264 -23 213 1 c 128,-1,31
 162 25 162 25 125.5 73 c 128,-1,32
 89 121 89 121 69.5 192 c 128,-1,33
 50 263 50 263 50 357 c 0,34,35
 50 450 50 450 70 520.5 c 128,-1,36
 90 591 90 591 126.5 638.5 c 128,-1,37
 163 686 163 686 213 709.5 c 128,-1,38
 263 733 263 733 322 733 c 0,39,40
 378 733 378 733 419.5 707.5 c 128,-1,41
 461 682 461 682 486.5 631.5 c 128,-1,42
 512 581 512 581 520 505 c 1,43,-1
 496 534 l 1,44,-1
 508 720 l 1,45,-1
 571 720 l 1,46,-1
 571 473 l 1,47,-1
 504 473 l 1,48,49
 486 542 486 542 460.5 587 c 128,-1,50
 435 632 435 632 401.5 654.5 c 128,-1,51
 368 677 368 677 326 677 c 0,10,11
EndSplineSet
EndChar

StartChar: D
Encoding: 68 68 40
Width: 659
GlyphClass: 2
Flags: W
AnchorPoint: "Anchor-1" 332 0 basechar 0
AnchorPoint: "Anchor-0" 332 741 basechar 0
LayerCount: 2
Fore
SplineSet
50 654 m 1,0,-1
 50 710 l 1,1,-1
 297 710 l 2,2,3
 370 710 370 710 428 689 c 128,-1,4
 486 668 486 668 526.5 625 c 128,-1,5
 567 582 567 582 588 515.5 c 128,-1,6
 609 449 609 449 609 359 c 256,7,8
 609 269 609 269 588 201.5 c 128,-1,9
 567 134 567 134 526.5 89.5 c 128,-1,10
 486 45 486 45 428 22.5 c 128,-1,11
 370 0 370 0 297 0 c 2,12,-1
 50 0 l 1,13,-1
 50 56 l 1,14,-1
 59 56 l 2,15,16
 88 56 88 56 106.5 63 c 128,-1,17
 125 70 125 70 125 92 c 2,18,-1
 125 618 l 2,19,20
 125 640 125 640 106.5 647 c 128,-1,21
 88 654 88 654 59 654 c 2,22,-1
 50 654 l 1,0,-1
293 656 m 2,23,-1
 215 656 l 1,24,-1
 215 54 l 1,25,-1
 293 54 l 2,26,27
 349 54 349 54 390.5 72 c 128,-1,28
 432 90 432 90 459 127 c 128,-1,29
 486 164 486 164 499.5 222 c 128,-1,30
 513 280 513 280 513 359 c 0,31,32
 513 439 513 439 499.5 495 c 128,-1,33
 486 551 486 551 459 587 c 128,-1,34
 432 623 432 623 390.5 639.5 c 128,-1,35
 349 656 349 656 293 656 c 2,23,-1
EndSplineSet
EndChar

StartChar: Dcaron
Encoding: 270 270 41
Width: 659
GlyphClass: 1
Flags: W
LayerCount: 2
Fore
SplineSet
292 806 m 1,0,-1
 360 806 l 1,1,-1
 472 961 l 1,2,-1
 472 981 l 1,3,-1
 436 981 l 1,4,-1
 285 846 l 1,5,-1
 372 848 l 1,6,-1
 223 981 l 1,7,-1
 179 981 l 1,8,-1
 179 961 l 1,9,-1
 292 806 l 1,0,-1
50 654 m 1,10,-1
 50 710 l 1,11,-1
 297 710 l 2,12,13
 370 710 370 710 428 689 c 128,-1,14
 486 668 486 668 526.5 625 c 128,-1,15
 567 582 567 582 588 515.5 c 128,-1,16
 609 449 609 449 609 359 c 256,17,18
 609 269 609 269 588 201.5 c 128,-1,19
 567 134 567 134 526.5 89.5 c 128,-1,20
 486 45 486 45 428 22.5 c 128,-1,21
 370 0 370 0 297 0 c 2,22,-1
 50 0 l 1,23,-1
 50 56 l 1,24,-1
 59 56 l 2,25,26
 88 56 88 56 106.5 63 c 128,-1,27
 125 70 125 70 125 92 c 2,28,-1
 125 618 l 2,29,30
 125 640 125 640 106.5 647 c 128,-1,31
 88 654 88 654 59 654 c 2,32,-1
 50 654 l 1,10,-1
293 656 m 2,33,-1
 215 656 l 1,34,-1
 215 54 l 1,35,-1
 293 54 l 2,36,37
 349 54 349 54 390.5 72 c 128,-1,38
 432 90 432 90 459 127 c 128,-1,39
 486 164 486 164 499.5 222 c 128,-1,40
 513 280 513 280 513 359 c 0,41,42
 513 439 513 439 499.5 495 c 128,-1,43
 486 551 486 551 459 587 c 128,-1,44
 432 623 432 623 390.5 639.5 c 128,-1,45
 349 656 349 656 293 656 c 2,33,-1
EndSplineSet
EndChar

StartChar: E
Encoding: 69 69 44
Width: 593
GlyphClass: 2
Flags: W
AnchorPoint: "Anchor-2" 410 0 basechar 0
AnchorPoint: "Anchor-1" 351 0 basechar 0
AnchorPoint: "Anchor-0" 351 741 basechar 0
LayerCount: 2
Fore
SplineSet
535 223 m 1,0,-1
 535 0 l 1,1,-1
 50 0 l 1,2,-1
 50 56 l 1,3,-1
 59 56 l 2,4,5
 88 56 88 56 106.5 63 c 128,-1,6
 125 70 125 70 125 93 c 2,7,-1
 125 618 l 2,8,9
 125 640 125 640 106.5 647 c 128,-1,10
 88 654 88 654 59 654 c 2,11,-1
 50 654 l 1,12,-1
 50 710 l 1,13,-1
 516 710 l 1,14,-1
 516 512 l 1,15,-1
 458 512 l 1,16,-1
 447 611 l 2,17,18
 445 629 445 629 434.5 638.5 c 128,-1,19
 424 648 424 648 402.5 652 c 128,-1,20
 381 656 381 656 348 656 c 2,21,-1
 215 656 l 1,22,-1
 215 54 l 1,23,-1
 362 54 l 2,24,25
 388 54 388 54 406.5 56 c 128,-1,26
 425 58 425 58 437 63 c 128,-1,27
 449 68 449 68 455.5 77 c 128,-1,28
 462 86 462 86 463 99 c 2,29,-1
 475 223 l 1,30,-1
 535 223 l 1,0,-1
201 389 m 1,31,32
 241 392 241 392 280.5 394 c 128,-1,33
 320 396 320 396 359.5 398.5 c 128,-1,34
 399 401 399 401 438 403 c 1,35,-1
 438 328 l 1,36,37
 399 330 399 330 360 332 c 128,-1,38
 321 334 321 334 281 336.5 c 128,-1,39
 241 339 241 339 201 341 c 1,40,-1
 201 389 l 1,31,32
EndSplineSet
Substitution2: "'ss01' Style Set 1 lookup 61 subtable" E.alt
EndChar

StartChar: Ecaron
Encoding: 282 282 53
Width: 593
GlyphClass: 1
Flags: W
LayerCount: 2
Fore
SplineSet
270 806 m 1,0,-1
 338 806 l 1,1,-1
 450 961 l 1,2,-1
 450 981 l 1,3,-1
 414 981 l 1,4,-1
 263 846 l 1,5,-1
 350 848 l 1,6,-1
 201 981 l 1,7,-1
 157 981 l 1,8,-1
 157 961 l 1,9,-1
 270 806 l 1,0,-1
535 223 m 1,10,-1
 535 0 l 1,11,-1
 50 0 l 1,12,-1
 50 56 l 1,13,-1
 59 56 l 2,14,15
 88 56 88 56 106.5 63 c 128,-1,16
 125 70 125 70 125 93 c 2,17,-1
 125 618 l 2,18,19
 125 640 125 640 106.5 647 c 128,-1,20
 88 654 88 654 59 654 c 2,21,-1
 50 654 l 1,22,-1
 50 710 l 1,23,-1
 516 710 l 1,24,-1
 516 512 l 1,25,-1
 458 512 l 1,26,-1
 447 611 l 2,27,28
 445 629 445 629 434.5 638.5 c 128,-1,29
 424 648 424 648 402.5 652 c 128,-1,30
 381 656 381 656 348 656 c 2,31,-1
 215 656 l 1,32,-1
 215 54 l 1,33,-1
 362 54 l 2,34,35
 388 54 388 54 406.5 56 c 128,-1,36
 425 58 425 58 437 63 c 128,-1,37
 449 68 449 68 455.5 77 c 128,-1,38
 462 86 462 86 463 99 c 2,39,-1
 475 223 l 1,40,-1
 535 223 l 1,10,-1
201 389 m 1,41,42
 241 392 241 392 280.5 394 c 128,-1,43
 320 396 320 396 359.5 398.5 c 128,-1,44
 399 401 399 401 438 403 c 1,45,-1
 438 328 l 1,46,47
 399 330 399 330 360 332 c 128,-1,48
 321 334 321 334 281 336.5 c 128,-1,49
 241 339 241 339 201 341 c 1,50,-1
 201 389 l 1,41,42
EndSplineSet
Substitution2: "'ss01' Style Set 1 lookup 61 subtable" Ecaron.alt
EndChar

StartChar: Edblgrave
Encoding: 516 516 54
Width: 593
GlyphClass: 1
Flags: W
LayerCount: 2
Fore
SplineSet
369 918 m 2,0,-1
 408 816 l 1,1,-1
 408 793 l 1,2,-1
 375 793 l 1,3,-1
 310 862 l 2,4,5
 292 882 292 882 280 898 c 128,-1,6
 268 914 268 914 268 934 c 0,7,8
 268 951 268 951 280 963 c 128,-1,9
 292 975 292 975 313 975 c 0,10,11
 328 975 328 975 338 967.5 c 128,-1,12
 348 960 348 960 355.5 947.5 c 128,-1,13
 363 935 363 935 369 918 c 2,0,-1
201 918 m 2,14,-1
 237 816 l 1,15,-1
 237 793 l 1,16,-1
 205 793 l 1,17,-1
 140 862 l 2,18,19
 122 882 122 882 109.5 898 c 128,-1,20
 97 914 97 914 97 934 c 0,21,22
 97 951 97 951 109.5 963 c 128,-1,23
 122 975 122 975 143 975 c 0,24,25
 157 975 157 975 168 968 c 128,-1,26
 179 961 179 961 187 948 c 128,-1,27
 195 935 195 935 201 918 c 2,14,-1
535 223 m 1,28,-1
 535 0 l 1,29,-1
 50 0 l 1,30,-1
 50 56 l 1,31,-1
 59 56 l 2,32,33
 88 56 88 56 106.5 63 c 128,-1,34
 125 70 125 70 125 92 c 2,35,-1
 125 618 l 2,36,37
 125 640 125 640 106.5 647 c 128,-1,38
 88 654 88 654 59 654 c 2,39,-1
 50 654 l 1,40,-1
 50 710 l 1,41,-1
 516 710 l 1,42,-1
 516 512 l 1,43,-1
 458 512 l 1,44,-1
 447 611 l 2,45,46
 445 629 445 629 434.5 638.5 c 128,-1,47
 424 648 424 648 403 652 c 128,-1,48
 382 656 382 656 348 656 c 2,49,-1
 215 656 l 1,50,-1
 215 54 l 1,51,-1
 362 54 l 2,52,53
 388 54 388 54 406.5 56 c 128,-1,54
 425 58 425 58 437 63 c 128,-1,55
 449 68 449 68 455.5 77 c 128,-1,56
 462 86 462 86 463 99 c 2,57,-1
 475 223 l 1,58,-1
 535 223 l 1,28,-1
201 389 m 1,59,60
 241 392 241 392 280.5 394 c 128,-1,61
 320 396 320 396 359.5 398.5 c 128,-1,62
 399 401 399 401 438 403 c 1,63,-1
 438 328 l 1,64,65
 399 330 399 330 359.5 332 c 128,-1,66
 320 334 320 334 280.5 336.5 c 128,-1,67
 241 339 241 339 201 341 c 1,68,-1
 201 389 l 1,59,60
EndSplineSet
Substitution2: "'ss01' Style Set 1 lookup 61 subtable" Edblgrave.alt
EndChar

StartChar: Einvertedbreve
Encoding: 518 518 55
Width: 593
GlyphClass: 1
Flags: W
LayerCount: 2
Fore
SplineSet
292 929 m 0,0,1
 245 929 245 929 212.5 913.5 c 128,-1,2
 180 898 180 898 163 862.5 c 128,-1,3
 146 827 146 827 145 767 c 1,4,-1
 202 767 l 1,5,6
 204 803 204 803 212 823 c 128,-1,7
 220 843 220 843 239 851.5 c 128,-1,8
 258 860 258 860 292 860 c 0,9,10
 324 860 324 860 342.5 852 c 128,-1,11
 361 844 361 844 369.5 823.5 c 128,-1,12
 378 803 378 803 379 767 c 1,13,-1
 440 767 l 1,14,15
 439 827 439 827 422 862.5 c 128,-1,16
 405 898 405 898 372.5 913.5 c 128,-1,17
 340 929 340 929 292 929 c 0,0,1
535 223 m 1,18,-1
 535 0 l 1,19,-1
 50 0 l 1,20,-1
 50 56 l 1,21,-1
 59 56 l 2,22,23
 88 56 88 56 106.5 63 c 128,-1,24
 125 70 125 70 125 93 c 2,25,-1
 125 618 l 2,26,27
 125 640 125 640 106.5 647 c 128,-1,28
 88 654 88 654 59 654 c 2,29,-1
 50 654 l 1,30,-1
 50 710 l 1,31,-1
 516 710 l 1,32,-1
 516 512 l 1,33,-1
 458 512 l 1,34,-1
 447 611 l 2,35,36
 445 629 445 629 434.5 638.5 c 128,-1,37
 424 648 424 648 403 652 c 128,-1,38
 382 656 382 656 348 656 c 2,39,-1
 215 656 l 1,40,-1
 215 54 l 1,41,-1
 362 54 l 2,42,43
 388 54 388 54 406.5 56 c 128,-1,44
 425 58 425 58 437 63 c 128,-1,45
 449 68 449 68 455.5 77 c 128,-1,46
 462 86 462 86 463 99 c 2,47,-1
 475 223 l 1,48,-1
 535 223 l 1,18,-1
201 389 m 1,49,50
 241 392 241 392 280.5 394 c 128,-1,51
 320 396 320 396 359.5 398.5 c 128,-1,52
 399 401 399 401 438 403 c 1,53,-1
 438 328 l 1,54,55
 399 330 399 330 359.5 332 c 128,-1,56
 320 334 320 334 280.5 336.5 c 128,-1,57
 241 339 241 339 201 341 c 1,58,-1
 201 389 l 1,49,50
EndSplineSet
Substitution2: "'ss01' Style Set 1 lookup 61 subtable" Einvertedbreve.alt
EndChar

StartChar: F
Encoding: 70 70 67
Width: 568
GlyphClass: 2
Flags: W
AnchorPoint: "Anchor-0" 312 741 basechar 0
LayerCount: 2
Fore
SplineSet
215 656 m 1,0,-1
 215 66 l 2,1,2
 215 63 215 63 221.5 61.5 c 128,-1,3
 228 60 228 60 238.5 58.5 c 128,-1,4
 249 57 249 57 262.5 56.5 c 128,-1,5
 276 56 276 56 290 56 c 2,6,-1
 306 56 l 1,7,-1
 306 0 l 1,8,-1
 50 0 l 1,9,-1
 50 56 l 1,10,-1
 59 56 l 2,11,12
 88 56 88 56 106.5 63 c 128,-1,13
 125 70 125 70 125 93 c 2,14,-1
 125 618 l 2,15,16
 125 640 125 640 106.5 647 c 128,-1,17
 88 654 88 654 59 654 c 2,18,-1
 50 654 l 1,19,-1
 50 710 l 1,20,-1
 516 710 l 1,21,-1
 516 508 l 1,22,-1
 458 508 l 1,23,-1
 447 611 l 2,24,25
 445 629 445 629 434.5 638.5 c 128,-1,26
 424 648 424 648 402.5 652 c 128,-1,27
 381 656 381 656 348 656 c 2,28,-1
 215 656 l 1,0,-1
201 383 m 1,29,30
 241 385 241 385 281 387 c 128,-1,31
 321 389 321 389 360 391.5 c 128,-1,32
 399 394 399 394 438 396 c 1,33,-1
 438 321 l 1,34,35
 399 324 399 324 360 326 c 128,-1,36
 321 328 321 328 281 330 c 128,-1,37
 241 332 241 332 201 334 c 1,38,-1
 201 383 l 1,29,30
EndSplineSet
Substitution2: "'ss01' Style Set 1 lookup 61 subtable" F.alt
EndChar

StartChar: G
Encoding: 71 71 68
Width: 667
GlyphClass: 2
Flags: W
AnchorPoint: "Anchor-1" 340 0 basechar 0
AnchorPoint: "Anchor-0" 340 741 basechar 0
LayerCount: 2
Fore
SplineSet
571 243 m 2,0,-1
 571 81 l 1,1,2
 554 59 554 59 530 40 c 128,-1,3
 506 21 506 21 476.5 7 c 128,-1,4
 447 -7 447 -7 413 -15 c 128,-1,5
 379 -23 379 -23 341 -23 c 0,6,7
 274 -23 274 -23 220 1 c 128,-1,8
 166 25 166 25 128 73 c 128,-1,9
 90 121 90 121 70 192 c 128,-1,10
 50 263 50 263 50 357 c 0,11,12
 50 450 50 450 70.5 520.5 c 128,-1,13
 91 591 91 591 128 638 c 128,-1,14
 165 685 165 685 216 709 c 128,-1,15
 267 733 267 733 327 733 c 0,16,17
 382 733 382 733 423.5 710.5 c 128,-1,18
 465 688 465 688 491 643.5 c 128,-1,19
 517 599 517 599 526 532 c 1,20,-1
 500 556 l 1,21,-1
 511 720 l 1,22,-1
 574 720 l 1,23,-1
 574 503 l 1,24,-1
 507 503 l 1,25,26
 493 558 493 558 468.5 597 c 128,-1,27
 444 636 444 636 410 656.5 c 128,-1,28
 376 677 376 677 331 677 c 256,29,30
 286 677 286 677 251.5 658 c 128,-1,31
 217 639 217 639 194 599.5 c 128,-1,32
 171 560 171 560 159 500 c 128,-1,33
 147 440 147 440 147 357 c 0,34,35
 147 272 147 272 159 210.5 c 128,-1,36
 171 149 171 149 195 110 c 128,-1,37
 219 71 219 71 256 52 c 128,-1,38
 293 33 293 33 343 33 c 0,39,40
 375 33 375 33 401.5 40 c 128,-1,41
 428 47 428 47 449 60 c 128,-1,42
 470 73 470 73 485 89 c 1,43,-1
 485 243 l 2,44,45
 485 268 485 268 463 275.5 c 128,-1,46
 441 283 441 283 410 283 c 2,47,-1
 385 283 l 1,48,-1
 385 339 l 1,49,-1
 649 339 l 1,50,-1
 649 283 l 1,51,-1
 629 283 l 2,52,53
 601 283 601 283 586 275.5 c 128,-1,54
 571 268 571 268 571 243 c 2,0,-1
EndSplineSet
EndChar

StartChar: Gcaron
Encoding: 486 486 73
Width: 667
GlyphClass: 1
Flags: W
LayerCount: 2
Fore
SplineSet
302 806 m 1,0,-1
 370 806 l 1,1,-1
 482 961 l 1,2,-1
 482 981 l 1,3,-1
 446 981 l 1,4,-1
 295 846 l 1,5,-1
 382 848 l 1,6,-1
 233 981 l 1,7,-1
 189 981 l 1,8,-1
 189 961 l 1,9,-1
 302 806 l 1,0,-1
571 243 m 2,10,-1
 571 81 l 1,11,12
 554 59 554 59 530 40 c 128,-1,13
 506 21 506 21 476.5 7 c 128,-1,14
 447 -7 447 -7 413 -15 c 128,-1,15
 379 -23 379 -23 341 -23 c 0,16,17
 274 -23 274 -23 220 1 c 128,-1,18
 166 25 166 25 128 73 c 128,-1,19
 90 121 90 121 70 192 c 128,-1,20
 50 263 50 263 50 357 c 0,21,22
 50 450 50 450 70.5 520.5 c 128,-1,23
 91 591 91 591 128 638 c 128,-1,24
 165 685 165 685 216 709 c 128,-1,25
 267 733 267 733 327 733 c 0,26,27
 382 733 382 733 423.5 710.5 c 128,-1,28
 465 688 465 688 491 643.5 c 128,-1,29
 517 599 517 599 526 532 c 1,30,-1
 500 556 l 1,31,-1
 511 720 l 1,32,-1
 574 720 l 1,33,-1
 574 503 l 1,34,-1
 507 503 l 1,35,36
 493 558 493 558 468.5 597 c 128,-1,37
 444 636 444 636 410 656.5 c 128,-1,38
 376 677 376 677 331 677 c 256,39,40
 286 677 286 677 251.5 658 c 128,-1,41
 217 639 217 639 194 599.5 c 128,-1,42
 171 560 171 560 159 500 c 128,-1,43
 147 440 147 440 147 357 c 0,44,45
 147 272 147 272 159 210.5 c 128,-1,46
 171 149 171 149 195 110 c 128,-1,47
 219 71 219 71 256 52 c 128,-1,48
 293 33 293 33 343 33 c 0,49,50
 375 33 375 33 401.5 40 c 128,-1,51
 428 47 428 47 449 60 c 128,-1,52
 470 73 470 73 485 89 c 1,53,-1
 485 243 l 2,54,55
 485 268 485 268 463 275.5 c 128,-1,56
 441 283 441 283 410 283 c 2,57,-1
 385 283 l 1,58,-1
 385 339 l 1,59,-1
 649 339 l 1,60,-1
 649 283 l 1,61,-1
 629 283 l 2,62,63
 601 283 601 283 586 275.5 c 128,-1,64
 571 268 571 268 571 243 c 2,10,-1
EndSplineSet
EndChar

StartChar: H
Encoding: 72 72 75
Width: 720
GlyphClass: 2
Flags: W
AnchorPoint: "Anchor-1" 360 0 basechar 0
AnchorPoint: "Anchor-0" 360 741 basechar 0
LayerCount: 2
Fore
SplineSet
188 395 m 1,0,-1
 528 395 l 1,1,-1
 528 337 l 1,2,-1
 188 337 l 1,3,-1
 188 395 l 1,0,-1
50 0 m 1,4,-1
 50 56 l 1,5,-1
 59 56 l 2,6,7
 88 56 88 56 106.5 63 c 128,-1,8
 125 70 125 70 125 93 c 2,9,-1
 125 618 l 2,10,11
 125 640 125 640 106.5 647 c 128,-1,12
 88 654 88 654 59 654 c 2,13,-1
 50 654 l 1,14,-1
 50 710 l 1,15,-1
 290 710 l 1,16,-1
 290 654 l 1,17,-1
 283 654 l 2,18,19
 271 654 271 654 259.5 653.5 c 128,-1,20
 248 653 248 653 238 651.5 c 128,-1,21
 228 650 228 650 221.5 648.5 c 128,-1,22
 215 647 215 647 215 644 c 2,23,-1
 215 66 l 2,24,25
 215 63 215 63 221.5 61.5 c 128,-1,26
 228 60 228 60 238 58.5 c 128,-1,27
 248 57 248 57 260 56.5 c 128,-1,28
 272 56 272 56 282 56 c 2,29,-1
 290 56 l 1,30,-1
 290 0 l 1,31,-1
 50 0 l 1,4,-1
431 0 m 1,32,-1
 431 56 l 1,33,-1
 438 56 l 2,34,35
 448 56 448 56 460 56.5 c 128,-1,36
 472 57 472 57 482 58.5 c 128,-1,37
 492 60 492 60 498.5 61.5 c 128,-1,38
 505 63 505 63 505 66 c 2,39,-1
 505 644 l 2,40,41
 505 647 505 647 498.5 648.5 c 128,-1,42
 492 650 492 650 482 651.5 c 128,-1,43
 472 653 472 653 460.5 653.5 c 128,-1,44
 449 654 449 654 438 654 c 2,45,-1
 431 654 l 1,46,-1
 431 710 l 1,47,-1
 670 710 l 1,48,-1
 670 654 l 1,49,-1
 661 654 l 2,50,51
 633 654 633 654 614 647 c 128,-1,52
 595 640 595 640 595 617 c 2,53,-1
 595 92 l 2,54,55
 595 70 595 70 614 63 c 128,-1,56
 633 56 633 56 661 56 c 2,57,-1
 670 56 l 1,58,-1
 670 0 l 1,59,-1
 431 0 l 1,32,-1
EndSplineSet
EndChar

StartChar: I
Encoding: 73 73 79
Width: 349
GlyphClass: 2
Flags: W
AnchorPoint: "Anchor-2" 230 0 basechar 0
AnchorPoint: "Anchor-1" 175 0 basechar 0
AnchorPoint: "Anchor-0" 175 741 basechar 0
LayerCount: 2
Fore
SplineSet
130 93 m 2,0,-1
 130 618 l 2,1,2
 130 640 130 640 111 647 c 128,-1,3
 92 654 92 654 63 654 c 2,4,-1
 47 654 l 1,5,-1
 47 710 l 1,6,-1
 302 710 l 1,7,-1
 302 654 l 1,8,-1
 286 654 l 2,9,10
 258 654 258 654 239 647 c 128,-1,11
 220 640 220 640 220 617 c 2,12,-1
 220 92 l 2,13,14
 220 70 220 70 239 63 c 128,-1,15
 258 56 258 56 286 56 c 2,16,-1
 302 56 l 1,17,-1
 302 0 l 1,18,-1
 47 0 l 1,19,-1
 47 56 l 1,20,-1
 63 56 l 2,21,22
 92 56 92 56 111 63 c 128,-1,23
 130 70 130 70 130 93 c 2,0,-1
EndSplineSet
EndChar

StartChar: Icaron
Encoding: 463 463 89
Width: 349
GlyphClass: 1
Flags: W
LayerCount: 2
Fore
SplineSet
141 806 m 1,0,-1
 209 806 l 1,1,-1
 321 961 l 1,2,-1
 321 981 l 1,3,-1
 285 981 l 1,4,-1
 134 846 l 1,5,-1
 221 848 l 1,6,-1
 72 981 l 1,7,-1
 28 981 l 1,8,-1
 28 961 l 1,9,-1
 141 806 l 1,0,-1
130 93 m 2,10,-1
 130 618 l 2,11,12
 130 640 130 640 111 647 c 128,-1,13
 92 654 92 654 63 654 c 2,14,-1
 47 654 l 1,15,-1
 47 710 l 1,16,-1
 302 710 l 1,17,-1
 302 654 l 1,18,-1
 286 654 l 2,19,20
 258 654 258 654 239 647 c 128,-1,21
 220 640 220 640 220 617 c 2,22,-1
 220 92 l 2,23,24
 220 70 220 70 239 63 c 128,-1,25
 258 56 258 56 286 56 c 2,26,-1
 302 56 l 1,27,-1
 302 0 l 1,28,-1
 47 0 l 1,29,-1
 47 56 l 1,30,-1
 63 56 l 2,31,32
 92 56 92 56 111 63 c 128,-1,33
 130 70 130 70 130 93 c 2,10,-1
EndSplineSet
EndChar

StartChar: Idblgrave
Encoding: 520 520 90
Width: 349
GlyphClass: 1
Flags: W
LayerCount: 2
Fore
SplineSet
253 918 m 2,0,-1
 292 816 l 1,1,-1
 292 793 l 1,2,-1
 259 793 l 1,3,-1
 194 862 l 2,4,5
 176 882 176 882 164 898 c 128,-1,6
 152 914 152 914 152 934 c 0,7,8
 152 951 152 951 164 963 c 128,-1,9
 176 975 176 975 197 975 c 0,10,11
 212 975 212 975 222 967.5 c 128,-1,12
 232 960 232 960 239.5 947.5 c 128,-1,13
 247 935 247 935 253 918 c 2,0,-1
85 918 m 2,14,-1
 121 816 l 1,15,-1
 121 793 l 1,16,-1
 89 793 l 1,17,-1
 24 862 l 2,18,19
 6 882 6 882 -6.5 898 c 128,-1,20
 -19 914 -19 914 -19 934 c 0,21,22
 -19 951 -19 951 -6.5 963 c 128,-1,23
 6 975 6 975 27 975 c 0,24,25
 41 975 41 975 52 968 c 128,-1,26
 63 961 63 961 71 948 c 128,-1,27
 79 935 79 935 85 918 c 2,14,-1
130 92 m 2,28,-1
 130 618 l 2,29,30
 130 640 130 640 111 647 c 128,-1,31
 92 654 92 654 63 654 c 2,32,-1
 47 654 l 1,33,-1
 47 710 l 1,34,-1
 302 710 l 1,35,-1
 302 654 l 1,36,-1
 286 654 l 2,37,38
 258 654 258 654 239 647 c 128,-1,39
 220 640 220 640 220 618 c 2,40,-1
 220 92 l 2,41,42
 220 70 220 70 239 63 c 128,-1,43
 258 56 258 56 286 56 c 2,44,-1
 302 56 l 1,45,-1
 302 0 l 1,46,-1
 47 0 l 1,47,-1
 47 56 l 1,48,-1
 63 56 l 2,49,50
 92 56 92 56 111 63 c 128,-1,51
 130 70 130 70 130 92 c 2,28,-1
EndSplineSet
EndChar

StartChar: Iinvertedbreve
Encoding: 522 522 91
Width: 349
GlyphClass: 1
Flags: W
LayerCount: 2
Fore
SplineSet
175 929 m 256,0,1
 127 929 127 929 95 913.5 c 128,-1,2
 63 898 63 898 46 862.5 c 128,-1,3
 29 827 29 827 28 767 c 1,4,-1
 85 767 l 1,5,6
 87 803 87 803 95 823 c 128,-1,7
 103 843 103 843 122 851.5 c 128,-1,8
 141 860 141 860 176 860 c 0,9,10
 207 860 207 860 225.5 852 c 128,-1,11
 244 844 244 844 252.5 823.5 c 128,-1,12
 261 803 261 803 262 767 c 1,13,-1
 323 767 l 1,14,15
 322 827 322 827 305 862.5 c 128,-1,16
 288 898 288 898 255.5 913.5 c 128,-1,17
 223 929 223 929 175 929 c 256,0,1
130 93 m 2,18,-1
 130 618 l 2,19,20
 130 640 130 640 111 647 c 128,-1,21
 92 654 92 654 63 654 c 2,22,-1
 47 654 l 1,23,-1
 47 710 l 1,24,-1
 302 710 l 1,25,-1
 302 654 l 1,26,-1
 286 654 l 2,27,28
 258 654 258 654 239 647 c 128,-1,29
 220 640 220 640 220 617 c 2,30,-1
 220 92 l 2,31,32
 220 70 220 70 239 63 c 128,-1,33
 258 56 258 56 286 56 c 2,34,-1
 302 56 l 1,35,-1
 302 0 l 1,36,-1
 47 0 l 1,37,-1
 47 56 l 1,38,-1
 63 56 l 2,39,40
 92 56 92 56 111 63 c 128,-1,41
 130 70 130 70 130 93 c 2,18,-1
EndSplineSet
EndChar

StartChar: J
Encoding: 74 74 94
Width: 555
GlyphClass: 2
Flags: W
AnchorPoint: "Anchor-0" 373 741 basechar 0
LayerCount: 2
Fore
SplineSet
257 710 m 1,0,-1
 518 710 l 1,1,-1
 518 654 l 1,2,-1
 501 654 l 2,3,4
 473 654 473 654 454 647 c 128,-1,5
 435 640 435 640 435 618 c 2,6,-1
 435 199 l 2,7,8
 435 139 435 139 420 96.5 c 128,-1,9
 405 54 405 54 377.5 27.5 c 128,-1,10
 350 1 350 1 312 -11 c 128,-1,11
 274 -23 274 -23 228 -23 c 0,12,13
 179 -23 179 -23 142.5 -11 c 128,-1,14
 106 1 106 1 82 17 c 128,-1,15
 58 33 58 33 44 44 c 1,16,-1
 44 211 l 1,17,-1
 134 211 l 1,18,-1
 134 40 l 1,19,20
 120 45 120 45 111 53.5 c 128,-1,21
 102 62 102 62 98.5 69.5 c 128,-1,22
 95 77 95 77 97 82 c 128,-1,23
 99 87 99 87 108 85 c 1,24,25
 121 74 121 74 137.5 62 c 128,-1,26
 154 50 154 50 175.5 41.5 c 128,-1,27
 197 33 197 33 226 33 c 0,28,29
 265 33 265 33 291.5 46 c 128,-1,30
 318 59 318 59 331.5 95 c 128,-1,31
 345 131 345 131 345 199 c 2,32,-1
 345 618 l 2,33,34
 345 633 345 633 336 640.5 c 128,-1,35
 327 648 327 648 312 651 c 128,-1,36
 297 654 297 654 278 654 c 2,37,-1
 257 654 l 1,38,-1
 257 710 l 1,0,-1
EndSplineSet
EndChar

StartChar: K
Encoding: 75 75 96
Width: 656
GlyphClass: 2
Flags: W
AnchorPoint: "Anchor-1" 338 0 basechar 0
AnchorPoint: "Anchor-0" 338 741 basechar 0
LayerCount: 2
Fore
SplineSet
50 0 m 1,0,-1
 50 56 l 1,1,-1
 59 56 l 2,2,3
 88 56 88 56 106.5 63 c 128,-1,4
 125 70 125 70 125 93 c 2,5,-1
 125 618 l 2,6,7
 125 640 125 640 106.5 647 c 128,-1,8
 88 654 88 654 59 654 c 2,9,-1
 50 654 l 1,10,-1
 50 710 l 1,11,-1
 287 710 l 1,12,-1
 287 654 l 1,13,-1
 279 654 l 2,14,15
 270 654 270 654 258 653.5 c 128,-1,16
 246 653 246 653 236.5 651.5 c 128,-1,17
 227 650 227 650 221 648.5 c 128,-1,18
 215 647 215 647 215 644 c 2,19,-1
 215 66 l 2,20,21
 215 63 215 63 221 61.5 c 128,-1,22
 227 60 227 60 236.5 58.5 c 128,-1,23
 246 57 246 57 257.5 56.5 c 128,-1,24
 269 56 269 56 278 56 c 2,25,-1
 285 56 l 1,26,-1
 285 0 l 1,27,-1
 50 0 l 1,0,-1
384 0 m 1,28,-1
 384 56 l 1,29,-1
 391 56 l 2,30,31
 407 56 407 56 422 57 c 128,-1,32
 437 58 437 58 447 60.5 c 128,-1,33
 457 63 457 63 457 66 c 2,34,-1
 254 349 l 1,35,-1
 254 370 l 1,36,-1
 473 643 l 2,37,38
 473 647 473 647 463 649 c 128,-1,39
 453 651 453 651 437.5 652.5 c 128,-1,40
 422 654 422 654 405 654 c 2,41,-1
 397 654 l 1,42,-1
 397 710 l 1,43,-1
 615 710 l 1,44,-1
 615 654 l 1,45,-1
 591 654 l 2,46,47
 578 654 578 654 567 651.5 c 128,-1,48
 556 649 556 649 547 643.5 c 128,-1,49
 538 638 538 638 529 626 c 2,50,-1
 309 353 l 1,51,-1
 325 396 l 1,52,-1
 553 79 l 2,53,54
 561 69 561 69 570 64 c 128,-1,55
 579 59 579 59 591 57.5 c 128,-1,56
 603 56 603 56 616 56 c 2,57,-1
 638 56 l 1,58,-1
 638 0 l 1,59,-1
 384 0 l 1,28,-1
EndSplineSet
EndChar

StartChar: L
Encoding: 76 76 98
Width: 555
GlyphClass: 2
Flags: W
AnchorPoint: "Anchor-2" 422 710 basechar 0
AnchorPoint: "Anchor-1" 340 0 basechar 0
AnchorPoint: "Anchor-0" 340 741 basechar 0
LayerCount: 2
Fore
SplineSet
300 710 m 1,0,-1
 50 710 l 1,1,-1
 50 654 l 1,2,-1
 59 654 l 2,3,4
 88 654 88 654 106.5 647 c 128,-1,5
 125 640 125 640 125 617 c 2,6,-1
 125 92 l 2,7,8
 125 70 125 70 106.5 63 c 128,-1,9
 88 56 88 56 59 56 c 2,10,-1
 50 56 l 1,11,-1
 50 0 l 1,12,-1
 510 0 l 1,13,-1
 510 233 l 1,14,-1
 450 233 l 1,15,-1
 438 99 l 2,16,17
 437 81 437 81 426 71 c 128,-1,18
 415 61 415 61 393.5 57.5 c 128,-1,19
 372 54 372 54 337 54 c 2,20,-1
 215 54 l 1,21,-1
 215 617 l 2,22,23
 215 640 215 640 235.5 647 c 128,-1,24
 256 654 256 654 287 654 c 2,25,-1
 300 654 l 1,26,-1
 300 710 l 1,0,-1
EndSplineSet
EndChar

StartChar: M
Encoding: 77 77 104
Width: 831
GlyphClass: 2
Flags: W
AnchorPoint: "Anchor-1" 405 0 basechar 0
LayerCount: 2
Fore
SplineSet
49 0 m 1,0,-1
 49 56 l 1,1,-1
 58 56 l 2,2,3
 77 56 77 56 92 59 c 128,-1,4
 107 62 107 62 116 70 c 128,-1,5
 125 78 125 78 125 93 c 2,6,-1
 125 618 l 2,7,8
 125 633 125 633 116 640.5 c 128,-1,9
 107 648 107 648 92 651 c 128,-1,10
 77 654 77 654 58 654 c 2,11,-1
 49 654 l 1,12,-1
 49 710 l 1,13,-1
 268 710 l 1,14,-1
 429 82 l 1,15,-1
 396 76 l 1,16,-1
 566 710 l 1,17,-1
 782 710 l 1,18,-1
 782 654 l 1,19,-1
 773 654 l 2,20,21
 744 654 744 654 725 647 c 128,-1,22
 706 640 706 640 706 617 c 2,23,-1
 706 92 l 2,24,25
 706 70 706 70 725 63 c 128,-1,26
 744 56 744 56 773 56 c 2,27,-1
 782 56 l 1,28,-1
 782 0 l 1,29,-1
 550 0 l 1,30,-1
 550 56 l 1,31,-1
 558 56 l 2,32,33
 569 56 569 56 583 57 c 128,-1,34
 597 58 597 58 607.5 60.5 c 128,-1,35
 618 63 618 63 618 66 c 2,36,-1
 618 695 l 1,37,-1
 625 702 l 1,38,-1
 429 -2 l 1,39,-1
 373 -2 l 1,40,-1
 179 705 l 1,41,-1
 187 700 l 1,42,-1
 187 66 l 2,43,44
 187 63 187 63 197 60.5 c 128,-1,45
 207 58 207 58 220.5 57 c 128,-1,46
 234 56 234 56 243 56 c 2,47,-1
 246 56 l 1,48,-1
 246 0 l 1,49,-1
 49 0 l 1,0,-1
EndSplineSet
EndChar

StartChar: N
Encoding: 78 78 106
Width: 693
GlyphClass: 2
Flags: W
AnchorPoint: "Anchor-1" 354 0 basechar 0
AnchorPoint: "Anchor-0" 354 741 basechar 0
LayerCount: 2
Fore
SplineSet
49 0 m 1,0,-1
 49 56 l 1,1,-1
 58 56 l 2,2,3
 77 56 77 56 92 59 c 128,-1,4
 107 62 107 62 116 70 c 128,-1,5
 125 78 125 78 125 93 c 2,6,-1
 125 618 l 2,7,8
 125 633 125 633 116 640.5 c 128,-1,9
 107 648 107 648 92 651 c 128,-1,10
 77 654 77 654 58 654 c 2,11,-1
 49 654 l 1,12,-1
 49 710 l 1,13,-1
 247 710 l 1,14,-1
 532 76 l 1,15,-1
 514 72 l 1,16,-1
 514 644 l 2,17,18
 514 648 514 648 503 650 c 128,-1,19
 492 652 492 652 477.5 653 c 128,-1,20
 463 654 463 654 450 654 c 2,21,-1
 439 654 l 1,22,-1
 439 710 l 1,23,-1
 654 710 l 1,24,-1
 654 654 l 1,25,-1
 645 654 l 2,26,27
 626 654 626 654 611 651 c 128,-1,28
 596 648 596 648 587 640.5 c 128,-1,29
 578 633 578 633 578 618 c 2,30,-1
 578 0 l 1,31,-1
 479 0 l 1,32,-1
 170 677 l 1,33,-1
 189 675 l 1,34,-1
 189 66 l 2,35,36
 189 63 189 63 199.5 60.5 c 128,-1,37
 210 58 210 58 225 57 c 128,-1,38
 240 56 240 56 253 56 c 2,39,-1
 264 56 l 1,40,-1
 264 0 l 1,41,-1
 49 0 l 1,0,-1
EndSplineSet
EndChar

StartChar: Ncaron
Encoding: 327 327 110
Width: 693
GlyphClass: 1
Flags: W
LayerCount: 2
Fore
SplineSet
321 806 m 1,0,-1
 389 806 l 1,1,-1
 501 961 l 1,2,-1
 501 981 l 1,3,-1
 465 981 l 1,4,-1
 314 846 l 1,5,-1
 401 848 l 1,6,-1
 252 981 l 1,7,-1
 208 981 l 1,8,-1
 208 961 l 1,9,-1
 321 806 l 1,0,-1
49 0 m 1,10,-1
 49 56 l 1,11,-1
 58 56 l 2,12,13
 77 56 77 56 92 59 c 128,-1,14
 107 62 107 62 116 70 c 128,-1,15
 125 78 125 78 125 93 c 2,16,-1
 125 618 l 2,17,18
 125 633 125 633 116 640.5 c 128,-1,19
 107 648 107 648 92 651 c 128,-1,20
 77 654 77 654 58 654 c 2,21,-1
 49 654 l 1,22,-1
 49 710 l 1,23,-1
 247 710 l 1,24,-1
 532 76 l 1,25,-1
 514 72 l 1,26,-1
 514 644 l 2,27,28
 514 648 514 648 503 650 c 128,-1,29
 492 652 492 652 477.5 653 c 128,-1,30
 463 654 463 654 450 654 c 2,31,-1
 439 654 l 1,32,-1
 439 710 l 1,33,-1
 654 710 l 1,34,-1
 654 654 l 1,35,-1
 645 654 l 2,36,37
 626 654 626 654 611 651 c 128,-1,38
 596 648 596 648 587 640.5 c 128,-1,39
 578 633 578 633 578 618 c 2,40,-1
 578 0 l 1,41,-1
 479 0 l 1,42,-1
 170 677 l 1,43,-1
 189 675 l 1,44,-1
 189 66 l 2,45,46
 189 63 189 63 199.5 60.5 c 128,-1,47
 210 58 210 58 225 57 c 128,-1,48
 240 56 240 56 253 56 c 2,49,-1
 264 56 l 1,50,-1
 264 0 l 1,51,-1
 49 0 l 1,10,-1
EndSplineSet
EndChar

StartChar: O
Encoding: 79 79 114
Width: 665
GlyphClass: 2
Flags: W
AnchorPoint: "Anchor-2" 366 0 basechar 0
AnchorPoint: "Anchor-1" 333 0 basechar 0
AnchorPoint: "Anchor-0" 333 741 basechar 0
LayerCount: 2
Fore
SplineSet
333 -23 m 256,0,1
 269 -23 269 -23 217 1.5 c 128,-1,2
 165 26 165 26 127.5 74 c 128,-1,3
 90 122 90 122 70 192.5 c 128,-1,4
 50 263 50 263 50 355 c 0,5,6
 50 448 50 448 70 518.5 c 128,-1,7
 90 589 90 589 127.5 636.5 c 128,-1,8
 165 684 165 684 217 708.5 c 128,-1,9
 269 733 269 733 333 733 c 256,10,11
 397 733 397 733 449 708.5 c 128,-1,12
 501 684 501 684 538 636.5 c 128,-1,13
 575 589 575 589 595 518.5 c 128,-1,14
 615 448 615 448 615 355 c 0,15,16
 615 263 615 263 595 192.5 c 128,-1,17
 575 122 575 122 538 74 c 128,-1,18
 501 26 501 26 449 1.5 c 128,-1,19
 397 -23 397 -23 333 -23 c 256,0,1
333 33 m 256,20,21
 379 33 379 33 413.5 52 c 128,-1,22
 448 71 448 71 471.5 110.5 c 128,-1,23
 495 150 495 150 506.5 211 c 128,-1,24
 518 272 518 272 518 355 c 256,25,26
 518 438 518 438 506.5 499 c 128,-1,27
 495 560 495 560 471.5 599.5 c 128,-1,28
 448 639 448 639 413.5 658 c 128,-1,29
 379 677 379 677 333 677 c 256,30,31
 287 677 287 677 252.5 658 c 128,-1,32
 218 639 218 639 194.5 599.5 c 128,-1,33
 171 560 171 560 159 499 c 128,-1,34
 147 438 147 438 147 355 c 256,35,36
 147 272 147 272 159 211 c 128,-1,37
 171 150 171 150 194.5 110.5 c 128,-1,38
 218 71 218 71 252.5 52 c 128,-1,39
 287 33 287 33 333 33 c 256,20,21
EndSplineSet
EndChar

StartChar: Ohorn
Encoding: 416 416 123
Width: 711
GlyphClass: 2
Flags: W
AnchorPoint: "Anchor-1" 353 -35 basechar 0
AnchorPoint: "Anchor-0" 353 742 basechar 0
LayerCount: 2
Fore
SplineSet
333 33 m 0,0,1
 379 33 379 33 413.5 52 c 128,-1,2
 448 71 448 71 471.5 110.5 c 128,-1,3
 495 150 495 150 506.5 210.5 c 128,-1,4
 518 271 518 271 518 355 c 256,5,6
 518 439 518 439 506.5 499.5 c 128,-1,7
 495 560 495 560 471.5 599.5 c 128,-1,8
 448 639 448 639 413.5 658 c 128,-1,9
 379 677 379 677 333 677 c 0,10,11
 288 677 288 677 253 658 c 128,-1,12
 218 639 218 639 194.5 599.5 c 128,-1,13
 171 560 171 560 159 499.5 c 128,-1,14
 147 439 147 439 147 355 c 256,15,16
 147 271 147 271 159 210.5 c 128,-1,17
 171 150 171 150 194.5 110.5 c 128,-1,18
 218 71 218 71 253 52 c 128,-1,19
 288 33 288 33 333 33 c 0,0,1
494 641 m 1,20,-1
 462 680 l 1,21,22
 495 659 495 659 523 629.5 c 128,-1,23
 551 600 551 600 571.5 561 c 128,-1,24
 592 522 592 522 603.5 471 c 128,-1,25
 615 420 615 420 615 355 c 0,26,27
 615 262 615 262 595 191 c 128,-1,28
 575 120 575 120 538 72.5 c 128,-1,29
 501 25 501 25 449 1 c 128,-1,30
 397 -23 397 -23 333 -23 c 0,31,32
 270 -23 270 -23 218 1 c 128,-1,33
 166 25 166 25 128.5 72.5 c 128,-1,34
 91 120 91 120 70.5 191 c 128,-1,35
 50 262 50 262 50 355 c 0,36,37
 50 449 50 449 70.5 519.5 c 128,-1,38
 91 590 91 590 128.5 637.5 c 128,-1,39
 166 685 166 685 218 709 c 128,-1,40
 270 733 270 733 333 733 c 0,41,42
 370 733 370 733 397.5 727 c 128,-1,43
 425 721 425 721 446.5 712.5 c 128,-1,44
 468 704 468 704 487 698 c 128,-1,45
 506 692 506 692 526 692 c 0,46,47
 552 692 552 692 571.5 705 c 128,-1,48
 591 718 591 718 604.5 744 c 128,-1,49
 618 770 618 770 626 809 c 128,-1,50
 634 848 634 848 638 899 c 1,51,-1
 721 899 l 1,52,53
 718 824 718 824 704.5 773 c 128,-1,54
 691 722 691 722 669.5 691 c 128,-1,55
 648 660 648 660 621 646.5 c 128,-1,56
 594 633 594 633 565 633 c 0,57,58
 551 633 551 633 537.5 637.5 c 128,-1,59
 524 642 524 642 511 649.5 c 128,-1,60
 498 657 498 657 484 666.5 c 128,-1,61
 470 676 470 676 455 687 c 1,62,-1
 494 679 l 1,63,-1
 494 641 l 1,20,-1
EndSplineSet
EndChar

StartChar: Ocaron
Encoding: 465 465 124
Width: 665
GlyphClass: 1
Flags: W
LayerCount: 2
Fore
SplineSet
299 806 m 1,0,-1
 367 806 l 1,1,-1
 479 961 l 1,2,-1
 479 981 l 1,3,-1
 443 981 l 1,4,-1
 292 846 l 1,5,-1
 379 848 l 1,6,-1
 230 981 l 1,7,-1
 186 981 l 1,8,-1
 186 961 l 1,9,-1
 299 806 l 1,0,-1
333 -23 m 256,10,11
 269 -23 269 -23 217 1.5 c 128,-1,12
 165 26 165 26 127.5 74 c 128,-1,13
 90 122 90 122 70 192.5 c 128,-1,14
 50 263 50 263 50 355 c 0,15,16
 50 448 50 448 70 518.5 c 128,-1,17
 90 589 90 589 127.5 636.5 c 128,-1,18
 165 684 165 684 217 708.5 c 128,-1,19
 269 733 269 733 333 733 c 256,20,21
 397 733 397 733 449 708.5 c 128,-1,22
 501 684 501 684 538 636.5 c 128,-1,23
 575 589 575 589 595 518.5 c 128,-1,24
 615 448 615 448 615 355 c 0,25,26
 615 263 615 263 595 192.5 c 128,-1,27
 575 122 575 122 538 74 c 128,-1,28
 501 26 501 26 449 1.5 c 128,-1,29
 397 -23 397 -23 333 -23 c 256,10,11
333 33 m 256,30,31
 379 33 379 33 413.5 52 c 128,-1,32
 448 71 448 71 471.5 110.5 c 128,-1,33
 495 150 495 150 506.5 211 c 128,-1,34
 518 272 518 272 518 355 c 256,35,36
 518 438 518 438 506.5 499 c 128,-1,37
 495 560 495 560 471.5 599.5 c 128,-1,38
 448 639 448 639 413.5 658 c 128,-1,39
 379 677 379 677 333 677 c 256,40,41
 287 677 287 677 252.5 658 c 128,-1,42
 218 639 218 639 194.5 599.5 c 128,-1,43
 171 560 171 560 159 499 c 128,-1,44
 147 438 147 438 147 355 c 256,45,46
 147 272 147 272 159 211 c 128,-1,47
 171 150 171 150 194.5 110.5 c 128,-1,48
 218 71 218 71 252.5 52 c 128,-1,49
 287 33 287 33 333 33 c 256,30,31
EndSplineSet
EndChar

StartChar: Oogonek
Encoding: 490 490 125
Width: 665
GlyphClass: 1
Flags: W
LayerCount: 2
Fore
SplineSet
333 33 m 0,0,1
 379 33 379 33 413.5 52 c 128,-1,2
 448 71 448 71 471.5 110.5 c 128,-1,3
 495 150 495 150 506.5 211 c 128,-1,4
 518 272 518 272 518 355 c 256,5,6
 518 438 518 438 506.5 499 c 128,-1,7
 495 560 495 560 471.5 599.5 c 128,-1,8
 448 639 448 639 413.5 658 c 128,-1,9
 379 677 379 677 333 677 c 0,10,11
 288 677 288 677 253 658 c 128,-1,12
 218 639 218 639 194.5 599.5 c 128,-1,13
 171 560 171 560 159 499 c 128,-1,14
 147 438 147 438 147 355 c 256,15,16
 147 272 147 272 159 211 c 128,-1,17
 171 150 171 150 194.5 110.5 c 128,-1,18
 218 71 218 71 253 52 c 128,-1,19
 288 33 288 33 333 33 c 0,0,1
532 66 m 0,20,21
 515 43 515 43 492 21.5 c 128,-1,22
 469 0 469 0 445.5 -20.5 c 128,-1,23
 422 -41 422 -41 402.5 -61.5 c 128,-1,24
 383 -82 383 -82 370.5 -104 c 128,-1,25
 358 -126 358 -126 358 -150 c 0,26,27
 358 -173 358 -173 369 -185.5 c 128,-1,28
 380 -198 380 -198 400 -198 c 0,29,30
 426 -198 426 -198 444 -181.5 c 128,-1,31
 462 -165 462 -165 472 -149 c 1,32,-1
 510 -180 l 1,33,34
 495 -201 495 -201 477 -217.5 c 128,-1,35
 459 -234 459 -234 435 -243 c 128,-1,36
 411 -252 411 -252 378 -252 c 256,37,38
 345 -252 345 -252 318 -242.5 c 128,-1,39
 291 -233 291 -233 275.5 -212.5 c 128,-1,40
 260 -192 260 -192 260 -161 c 0,41,42
 260 -138 260 -138 268.5 -119.5 c 128,-1,43
 277 -101 277 -101 296.5 -81 c 128,-1,44
 316 -61 316 -61 351 -34 c 128,-1,45
 386 -7 386 -7 438 33 c 1,46,-1
 427 -4 l 1,47,48
 412 -10 412 -10 397 -14.5 c 128,-1,49
 382 -19 382 -19 366.5 -21 c 128,-1,50
 351 -23 351 -23 333 -23 c 0,51,52
 270 -23 270 -23 218 1 c 128,-1,53
 166 25 166 25 128.5 72.5 c 128,-1,54
 91 120 91 120 70.5 191 c 128,-1,55
 50 262 50 262 50 355 c 0,56,57
 50 449 50 449 70.5 519.5 c 128,-1,58
 91 590 91 590 128.5 637.5 c 128,-1,59
 166 685 166 685 218 709 c 128,-1,60
 270 733 270 733 333 733 c 256,61,62
 396 733 396 733 448 709 c 128,-1,63
 500 685 500 685 537.5 637.5 c 128,-1,64
 575 590 575 590 595 519.5 c 128,-1,65
 615 449 615 449 615 355 c 0,66,67
 615 291 615 291 605.5 237.5 c 128,-1,68
 596 184 596 184 577 141 c 128,-1,69
 558 98 558 98 532 66 c 0,20,21
EndSplineSet
EndChar

StartChar: Odblgrave
Encoding: 524 524 126
Width: 665
GlyphClass: 1
Flags: W
LayerCount: 2
Fore
SplineSet
421 918 m 2,0,-1
 460 816 l 1,1,-1
 460 793 l 1,2,-1
 427 793 l 1,3,-1
 362 862 l 2,4,5
 344 882 344 882 332 898 c 128,-1,6
 320 914 320 914 320 934 c 0,7,8
 320 951 320 951 332 963 c 128,-1,9
 344 975 344 975 365 975 c 0,10,11
 380 975 380 975 390 967.5 c 128,-1,12
 400 960 400 960 407.5 947.5 c 128,-1,13
 415 935 415 935 421 918 c 2,0,-1
253 918 m 2,14,-1
 289 816 l 1,15,-1
 289 793 l 1,16,-1
 257 793 l 1,17,-1
 192 862 l 2,18,19
 174 882 174 882 161.5 898 c 128,-1,20
 149 914 149 914 149 934 c 0,21,22
 149 951 149 951 161.5 963 c 128,-1,23
 174 975 174 975 195 975 c 0,24,25
 209 975 209 975 220 968 c 128,-1,26
 231 961 231 961 239 948 c 128,-1,27
 247 935 247 935 253 918 c 2,14,-1
333 -23 m 256,28,29
 269 -23 269 -23 217 1.5 c 128,-1,30
 165 26 165 26 127.5 74 c 128,-1,31
 90 122 90 122 70 192.5 c 128,-1,32
 50 263 50 263 50 355 c 0,33,34
 50 448 50 448 70 518.5 c 128,-1,35
 90 589 90 589 127.5 636.5 c 128,-1,36
 165 684 165 684 217 708.5 c 128,-1,37
 269 733 269 733 333 733 c 256,38,39
 397 733 397 733 449 708.5 c 128,-1,40
 501 684 501 684 538 636.5 c 128,-1,41
 575 589 575 589 595 518.5 c 128,-1,42
 615 448 615 448 615 355 c 0,43,44
 615 263 615 263 595 192.5 c 128,-1,45
 575 122 575 122 538 74 c 128,-1,46
 501 26 501 26 449 1.5 c 128,-1,47
 397 -23 397 -23 333 -23 c 256,28,29
333 33 m 256,48,49
 379 33 379 33 413.5 52 c 128,-1,50
 448 71 448 71 471.5 110.5 c 128,-1,51
 495 150 495 150 506.5 211 c 128,-1,52
 518 272 518 272 518 355 c 256,53,54
 518 438 518 438 506.5 499 c 128,-1,55
 495 560 495 560 471.5 599.5 c 128,-1,56
 448 639 448 639 413.5 658 c 128,-1,57
 379 677 379 677 333 677 c 256,58,59
 287 677 287 677 252.5 658 c 128,-1,60
 218 639 218 639 194.5 599.5 c 128,-1,61
 171 560 171 560 159 499 c 128,-1,62
 147 438 147 438 147 355 c 256,63,64
 147 272 147 272 159 211 c 128,-1,65
 171 150 171 150 194.5 110.5 c 128,-1,66
 218 71 218 71 252.5 52 c 128,-1,67
 287 33 287 33 333 33 c 256,48,49
EndSplineSet
EndChar

StartChar: Oinvertedbreve
Encoding: 526 526 127
Width: 665
GlyphClass: 1
Flags: W
LayerCount: 2
Fore
SplineSet
333 929 m 0,0,1
 286 929 286 929 253.5 913.5 c 128,-1,2
 221 898 221 898 204 862.5 c 128,-1,3
 187 827 187 827 186 767 c 1,4,-1
 243 767 l 1,5,6
 245 803 245 803 253 823 c 128,-1,7
 261 843 261 843 280 851.5 c 128,-1,8
 299 860 299 860 333 860 c 0,9,10
 365 860 365 860 383.5 852 c 128,-1,11
 402 844 402 844 410.5 823.5 c 128,-1,12
 419 803 419 803 420 767 c 1,13,-1
 481 767 l 1,14,15
 480 827 480 827 463 862.5 c 128,-1,16
 446 898 446 898 413.5 913.5 c 128,-1,17
 381 929 381 929 333 929 c 0,0,1
333 -23 m 256,18,19
 269 -23 269 -23 217 1.5 c 128,-1,20
 165 26 165 26 127.5 74 c 128,-1,21
 90 122 90 122 70 192.5 c 128,-1,22
 50 263 50 263 50 355 c 0,23,24
 50 448 50 448 70 518.5 c 128,-1,25
 90 589 90 589 127.5 636.5 c 128,-1,26
 165 684 165 684 217 708.5 c 128,-1,27
 269 733 269 733 333 733 c 256,28,29
 397 733 397 733 449 708.5 c 128,-1,30
 501 684 501 684 538 636.5 c 128,-1,31
 575 589 575 589 595 518.5 c 128,-1,32
 615 448 615 448 615 355 c 0,33,34
 615 263 615 263 595 192.5 c 128,-1,35
 575 122 575 122 538 74 c 128,-1,36
 501 26 501 26 449 1.5 c 128,-1,37
 397 -23 397 -23 333 -23 c 256,18,19
333 33 m 256,38,39
 379 33 379 33 413.5 52 c 128,-1,40
 448 71 448 71 471.5 110.5 c 128,-1,41
 495 150 495 150 506.5 211 c 128,-1,42
 518 272 518 272 518 355 c 256,43,44
 518 438 518 438 506.5 499 c 128,-1,45
 495 560 495 560 471.5 599.5 c 128,-1,46
 448 639 448 639 413.5 658 c 128,-1,47
 379 677 379 677 333 677 c 256,48,49
 287 677 287 677 252.5 658 c 128,-1,50
 218 639 218 639 194.5 599.5 c 128,-1,51
 171 560 171 560 159 499 c 128,-1,52
 147 438 147 438 147 355 c 256,53,54
 147 272 147 272 159 211 c 128,-1,55
 171 150 171 150 194.5 110.5 c 128,-1,56
 218 71 218 71 252.5 52 c 128,-1,57
 287 33 287 33 333 33 c 256,38,39
EndSplineSet
EndChar

StartChar: P
Encoding: 80 80 147
Width: 581
GlyphClass: 2
Flags: W
AnchorPoint: "Anchor-0" 319 741 basechar 0
LayerCount: 2
Fore
SplineSet
215 66 m 2,0,-1
 215 656 l 1,1,-1
 316 656 l 2,2,3
 356 656 356 656 385 638.5 c 128,-1,4
 414 621 414 621 430 586.5 c 128,-1,5
 446 552 446 552 446 501 c 0,6,7
 446 449 446 449 430 413 c 128,-1,8
 414 377 414 377 385 358 c 128,-1,9
 356 339 356 339 316 339 c 2,10,-1
 194 339 l 1,11,-1
 194 285 l 1,12,-1
 321 285 l 2,13,14
 382 285 382 285 432 310.5 c 128,-1,15
 482 336 482 336 511 384.5 c 128,-1,16
 540 433 540 433 540 500 c 0,17,18
 540 603 540 603 479 656.5 c 128,-1,19
 418 710 418 710 321 710 c 2,20,-1
 50 710 l 1,21,-1
 50 654 l 1,22,-1
 59 654 l 2,23,24
 88 654 88 654 106.5 647 c 128,-1,25
 125 640 125 640 125 617 c 2,26,-1
 125 92 l 2,27,28
 125 70 125 70 106.5 63 c 128,-1,29
 88 56 88 56 59 56 c 2,30,-1
 50 56 l 1,31,-1
 50 0 l 1,32,-1
 306 0 l 1,33,-1
 306 56 l 1,34,-1
 289 56 l 2,35,36
 275 56 275 56 261.5 56.5 c 128,-1,37
 248 57 248 57 237.5 58.5 c 128,-1,38
 227 60 227 60 221 61.5 c 128,-1,39
 215 63 215 63 215 66 c 2,0,-1
EndSplineSet
EndChar

StartChar: Q
Encoding: 81 81 148
Width: 665
GlyphClass: 1
Flags: W
LayerCount: 2
Fore
SplineSet
299 -3 m 1,0,-1
 366 10 l 1,1,2
 367 -48 367 -48 378.5 -85.5 c 128,-1,3
 390 -123 390 -123 414.5 -141 c 128,-1,4
 439 -159 439 -159 480 -159 c 0,5,6
 504 -159 504 -159 525.5 -154.5 c 128,-1,7
 547 -150 547 -150 566.5 -144 c 128,-1,8
 586 -138 586 -138 604 -132 c 1,9,-1
 604 -223 l 1,10,11
 581 -229 581 -229 549.5 -234 c 128,-1,12
 518 -239 518 -239 489 -239 c 0,13,14
 425 -239 425 -239 383 -212.5 c 128,-1,15
 341 -186 341 -186 320 -133 c 128,-1,16
 299 -80 299 -80 299 -3 c 1,0,-1
333 -23 m 256,17,18
 269 -23 269 -23 217 1.5 c 128,-1,19
 165 26 165 26 127.5 74 c 128,-1,20
 90 122 90 122 70 192.5 c 128,-1,21
 50 263 50 263 50 355 c 0,22,23
 50 448 50 448 70 518.5 c 128,-1,24
 90 589 90 589 127.5 636.5 c 128,-1,25
 165 684 165 684 217 708.5 c 128,-1,26
 269 733 269 733 333 733 c 256,27,28
 397 733 397 733 449 708.5 c 128,-1,29
 501 684 501 684 538 636.5 c 128,-1,30
 575 589 575 589 595 518.5 c 128,-1,31
 615 448 615 448 615 355 c 0,32,33
 615 263 615 263 595 192.5 c 128,-1,34
 575 122 575 122 538 74 c 128,-1,35
 501 26 501 26 449 1.5 c 128,-1,36
 397 -23 397 -23 333 -23 c 256,17,18
333 33 m 256,37,38
 379 33 379 33 413.5 52 c 128,-1,39
 448 71 448 71 471.5 110.5 c 128,-1,40
 495 150 495 150 506.5 210.5 c 128,-1,41
 518 271 518 271 518 355 c 256,42,43
 518 439 518 439 506.5 499.5 c 128,-1,44
 495 560 495 560 471.5 599.5 c 128,-1,45
 448 639 448 639 413.5 658 c 128,-1,46
 379 677 379 677 333 677 c 256,47,48
 287 677 287 677 252.5 658 c 128,-1,49
 218 639 218 639 194.5 599.5 c 128,-1,50
 171 560 171 560 159 499.5 c 128,-1,51
 147 439 147 439 147 355 c 256,52,53
 147 271 147 271 159 210.5 c 128,-1,54
 171 150 171 150 194.5 110.5 c 128,-1,55
 218 71 218 71 252.5 52 c 128,-1,56
 287 33 287 33 333 33 c 256,37,38
EndSplineSet
EndChar

StartChar: R
Encoding: 82 82 149
Width: 634
GlyphClass: 2
Flags: W
AnchorPoint: "Anchor-1" 355 0 basechar 0
AnchorPoint: "Anchor-0" 355 741 basechar 0
LayerCount: 2
Fore
SplineSet
325 323 m 1,0,-1
 475 0 l 1,1,-1
 613 0 l 1,2,-1
 613 56 l 1,3,-1
 605 56 l 2,4,5
 587 56 587 56 571.5 61 c 128,-1,6
 556 66 556 66 543 79.5 c 128,-1,7
 530 93 530 93 517 118 c 2,8,-1
 405 351 l 1,9,-1
 325 323 l 1,0,-1
215 66 m 2,10,-1
 215 656 l 1,11,-1
 322 656 l 2,12,13
 365 656 365 656 392.5 640 c 128,-1,14
 420 624 420 624 433.5 591.5 c 128,-1,15
 447 559 447 559 447 510 c 0,16,17
 447 464 447 464 435.5 429.5 c 128,-1,18
 424 395 424 395 395.5 375.5 c 128,-1,19
 367 356 367 356 317 356 c 2,20,-1
 204 356 l 1,21,-1
 204 306 l 1,22,-1
 352 306 l 2,23,24
 357 306 357 306 361.5 306.5 c 128,-1,25
 366 307 366 307 371.5 309.5 c 128,-1,26
 377 312 377 312 385 318 c 1,27,28
 432 329 432 329 467 355 c 128,-1,29
 502 381 502 381 521 422.5 c 128,-1,30
 540 464 540 464 540 520 c 0,31,32
 540 583 540 583 514.5 625.5 c 128,-1,33
 489 668 489 668 441.5 689 c 128,-1,34
 394 710 394 710 326 710 c 2,35,-1
 50 710 l 1,36,-1
 50 654 l 1,37,-1
 59 654 l 2,38,39
 88 654 88 654 106.5 647 c 128,-1,40
 125 640 125 640 125 617 c 2,41,-1
 125 92 l 2,42,43
 125 70 125 70 106.5 63 c 128,-1,44
 88 56 88 56 59 56 c 2,45,-1
 50 56 l 1,46,-1
 50 0 l 1,47,-1
 305 0 l 1,48,-1
 305 56 l 1,49,-1
 289 56 l 2,50,51
 275 56 275 56 261.5 56.5 c 128,-1,52
 248 57 248 57 237.5 58.5 c 128,-1,53
 227 60 227 60 221 61.5 c 128,-1,54
 215 63 215 63 215 66 c 2,10,-1
EndSplineSet
EndChar

StartChar: Rcaron
Encoding: 344 344 152
Width: 634
GlyphClass: 1
Flags: W
LayerCount: 2
Fore
SplineSet
279 806 m 1,0,-1
 347 806 l 1,1,-1
 459 961 l 1,2,-1
 459 981 l 1,3,-1
 423 981 l 1,4,-1
 272 846 l 1,5,-1
 359 848 l 1,6,-1
 210 981 l 1,7,-1
 166 981 l 1,8,-1
 166 961 l 1,9,-1
 279 806 l 1,0,-1
325 323 m 1,10,-1
 475 0 l 1,11,-1
 613 0 l 1,12,-1
 613 56 l 1,13,-1
 605 56 l 2,14,15
 587 56 587 56 571.5 61 c 128,-1,16
 556 66 556 66 543 79.5 c 128,-1,17
 530 93 530 93 517 118 c 2,18,-1
 405 351 l 1,19,-1
 325 323 l 1,10,-1
215 66 m 2,20,-1
 215 656 l 1,21,-1
 322 656 l 2,22,23
 365 656 365 656 392.5 640 c 128,-1,24
 420 624 420 624 433.5 591.5 c 128,-1,25
 447 559 447 559 447 510 c 0,26,27
 447 464 447 464 435.5 429.5 c 128,-1,28
 424 395 424 395 395.5 375.5 c 128,-1,29
 367 356 367 356 317 356 c 2,30,-1
 204 356 l 1,31,-1
 204 306 l 1,32,-1
 352 306 l 2,33,34
 357 306 357 306 361.5 306.5 c 128,-1,35
 366 307 366 307 371.5 309.5 c 128,-1,36
 377 312 377 312 385 318 c 1,37,38
 432 329 432 329 467 355 c 128,-1,39
 502 381 502 381 521 422.5 c 128,-1,40
 540 464 540 464 540 520 c 0,41,42
 540 583 540 583 514.5 625.5 c 128,-1,43
 489 668 489 668 441.5 689 c 128,-1,44
 394 710 394 710 326 710 c 2,45,-1
 50 710 l 1,46,-1
 50 654 l 1,47,-1
 59 654 l 2,48,49
 88 654 88 654 106.5 647 c 128,-1,50
 125 640 125 640 125 617 c 2,51,-1
 125 92 l 2,52,53
 125 70 125 70 106.5 63 c 128,-1,54
 88 56 88 56 59 56 c 2,55,-1
 50 56 l 1,56,-1
 50 0 l 1,57,-1
 305 0 l 1,58,-1
 305 56 l 1,59,-1
 289 56 l 2,60,61
 275 56 275 56 261.5 56.5 c 128,-1,62
 248 57 248 57 237.5 58.5 c 128,-1,63
 227 60 227 60 221 61.5 c 128,-1,64
 215 63 215 63 215 66 c 2,20,-1
EndSplineSet
EndChar

StartChar: Rdblgrave
Encoding: 528 528 153
Width: 634
GlyphClass: 1
Flags: W
LayerCount: 2
Fore
SplineSet
397 918 m 2,0,-1
 436 816 l 1,1,-1
 436 793 l 1,2,-1
 403 793 l 1,3,-1
 338 862 l 2,4,5
 320 882 320 882 308 898 c 128,-1,6
 296 914 296 914 296 934 c 0,7,8
 296 951 296 951 308 963 c 128,-1,9
 320 975 320 975 341 975 c 0,10,11
 356 975 356 975 366 967.5 c 128,-1,12
 376 960 376 960 383.5 947.5 c 128,-1,13
 391 935 391 935 397 918 c 2,0,-1
229 918 m 2,14,-1
 265 816 l 1,15,-1
 265 793 l 1,16,-1
 233 793 l 1,17,-1
 168 862 l 2,18,19
 150 882 150 882 137.5 898 c 128,-1,20
 125 914 125 914 125 934 c 0,21,22
 125 951 125 951 137.5 963 c 128,-1,23
 150 975 150 975 171 975 c 0,24,25
 185 975 185 975 196 968 c 128,-1,26
 207 961 207 961 215 948 c 128,-1,27
 223 935 223 935 229 918 c 2,14,-1
325 323 m 1,28,-1
 475 0 l 1,29,-1
 613 0 l 1,30,-1
 613 56 l 1,31,-1
 605 56 l 2,32,33
 587 56 587 56 571.5 61 c 128,-1,34
 556 66 556 66 543 79.5 c 128,-1,35
 530 93 530 93 517 118 c 2,36,-1
 405 351 l 1,37,-1
 325 323 l 1,28,-1
215 66 m 2,38,-1
 215 656 l 1,39,-1
 322 656 l 2,40,41
 365 656 365 656 392.5 640 c 128,-1,42
 420 624 420 624 433.5 591.5 c 128,-1,43
 447 559 447 559 447 510 c 0,44,45
 447 464 447 464 435.5 429.5 c 128,-1,46
 424 395 424 395 395.5 375.5 c 128,-1,47
 367 356 367 356 317 356 c 2,48,-1
 204 356 l 1,49,-1
 204 306 l 1,50,-1
 352 306 l 2,51,52
 357 306 357 306 361.5 306.5 c 128,-1,53
 366 307 366 307 371.5 309.5 c 128,-1,54
 377 312 377 312 385 318 c 1,55,56
 432 329 432 329 467 355 c 128,-1,57
 502 381 502 381 521 422.5 c 128,-1,58
 540 464 540 464 540 520 c 0,59,60
 540 583 540 583 514.5 625.5 c 128,-1,61
 489 668 489 668 441.5 689 c 128,-1,62
 394 710 394 710 326 710 c 2,63,-1
 50 710 l 1,64,-1
 50 654 l 1,65,-1
 59 654 l 2,66,67
 88 654 88 654 106.5 647 c 128,-1,68
 125 640 125 640 125 618 c 2,69,-1
 125 92 l 2,70,71
 125 70 125 70 106.5 63 c 128,-1,72
 88 56 88 56 59 56 c 2,73,-1
 50 56 l 1,74,-1
 50 0 l 1,75,-1
 305 0 l 1,76,-1
 305 56 l 1,77,-1
 289 56 l 2,78,79
 275 56 275 56 261.5 56.5 c 128,-1,80
 248 57 248 57 237.5 58.5 c 128,-1,81
 227 60 227 60 221 61.5 c 128,-1,82
 215 63 215 63 215 66 c 2,38,-1
EndSplineSet
EndChar

StartChar: Rinvertedbreve
Encoding: 530 530 154
Width: 634
GlyphClass: 1
Flags: W
LayerCount: 2
Fore
SplineSet
313 929 m 0,0,1
 266 929 266 929 233.5 913.5 c 128,-1,2
 201 898 201 898 184 862.5 c 128,-1,3
 167 827 167 827 166 767 c 1,4,-1
 223 767 l 1,5,6
 225 803 225 803 233 823 c 128,-1,7
 241 843 241 843 260 851.5 c 128,-1,8
 279 860 279 860 313 860 c 0,9,10
 345 860 345 860 363.5 852 c 128,-1,11
 382 844 382 844 390.5 823.5 c 128,-1,12
 399 803 399 803 400 767 c 1,13,-1
 461 767 l 1,14,15
 460 827 460 827 443 862.5 c 128,-1,16
 426 898 426 898 393.5 913.5 c 128,-1,17
 361 929 361 929 313 929 c 0,0,1
325 323 m 1,18,-1
 475 0 l 1,19,-1
 613 0 l 1,20,-1
 613 56 l 1,21,-1
 605 56 l 2,22,23
 587 56 587 56 571.5 61 c 128,-1,24
 556 66 556 66 543 79.5 c 128,-1,25
 530 93 530 93 517 118 c 2,26,-1
 405 351 l 1,27,-1
 325 323 l 1,18,-1
215 66 m 2,28,-1
 215 656 l 1,29,-1
 322 656 l 2,30,31
 365 656 365 656 392.5 640 c 128,-1,32
 420 624 420 624 433.5 591.5 c 128,-1,33
 447 559 447 559 447 510 c 0,34,35
 447 464 447 464 435.5 429.5 c 128,-1,36
 424 395 424 395 395.5 375.5 c 128,-1,37
 367 356 367 356 317 356 c 2,38,-1
 204 356 l 1,39,-1
 204 306 l 1,40,-1
 352 306 l 2,41,42
 357 306 357 306 361.5 306.5 c 128,-1,43
 366 307 366 307 371.5 309.5 c 128,-1,44
 377 312 377 312 385 318 c 1,45,46
 432 329 432 329 467 355 c 128,-1,47
 502 381 502 381 521 422.5 c 128,-1,48
 540 464 540 464 540 520 c 0,49,50
 540 583 540 583 514.5 625.5 c 128,-1,51
 489 668 489 668 441.5 689 c 128,-1,52
 394 710 394 710 326 710 c 2,53,-1
 50 710 l 1,54,-1
 50 654 l 1,55,-1
 59 654 l 2,56,57
 88 654 88 654 106.5 647 c 128,-1,58
 125 640 125 640 125 617 c 2,59,-1
 125 92 l 2,60,61
 125 70 125 70 106.5 63 c 128,-1,62
 88 56 88 56 59 56 c 2,63,-1
 50 56 l 1,64,-1
 50 0 l 1,65,-1
 305 0 l 1,66,-1
 305 56 l 1,67,-1
 289 56 l 2,68,69
 275 56 275 56 261.5 56.5 c 128,-1,70
 248 57 248 57 237.5 58.5 c 128,-1,71
 227 60 227 60 221 61.5 c 128,-1,72
 215 63 215 63 215 66 c 2,28,-1
EndSplineSet
EndChar

StartChar: S
Encoding: 83 83 157
Width: 546
GlyphClass: 2
Flags: W
AnchorPoint: "Anchor-1" 300 0 basechar 0
AnchorPoint: "Anchor-0" 300 741 basechar 0
LayerCount: 2
Fore
SplineSet
300 32 m 0,0,1
 341 32 341 32 367.5 45.5 c 128,-1,2
 394 59 394 59 407 88.5 c 128,-1,3
 420 118 420 118 420 167 c 0,4,5
 420 210 420 210 406 237.5 c 128,-1,6
 392 265 392 265 368 281.5 c 128,-1,7
 344 298 344 298 314 309 c 128,-1,8
 284 320 284 320 252 329 c 0,9,10
 214 341 214 341 180 355 c 128,-1,11
 146 369 146 369 120.5 391.5 c 128,-1,12
 95 414 95 414 80.5 451.5 c 128,-1,13
 66 489 66 489 66 548 c 0,14,15
 66 608 66 608 87.5 649 c 128,-1,16
 109 690 109 690 150.5 711.5 c 128,-1,17
 192 733 192 733 252 733 c 0,18,19
 304 733 304 733 341 712.5 c 128,-1,20
 378 692 378 692 399 649 c 128,-1,21
 420 606 420 606 425 538 c 1,22,-1
 407 584 l 1,23,-1
 417 720 l 1,24,-1
 472 720 l 1,25,-1
 472 513 l 1,26,-1
 411 513 l 1,27,28
 401 569 401 569 380 605.5 c 128,-1,29
 359 642 359 642 327.5 660.5 c 128,-1,30
 296 679 296 679 254 679 c 0,31,32
 218 679 218 679 194 666.5 c 128,-1,33
 170 654 170 654 158 626.5 c 128,-1,34
 146 599 146 599 146 555 c 0,35,36
 146 515 146 515 157.5 490 c 128,-1,37
 169 465 169 465 190.5 450 c 128,-1,38
 212 435 212 435 241.5 425 c 128,-1,39
 271 415 271 415 306 403 c 0,40,41
 341 392 341 392 376 378 c 128,-1,42
 411 364 411 364 440 340.5 c 128,-1,43
 469 317 469 317 486 279 c 128,-1,44
 503 241 503 241 503 183 c 0,45,46
 503 111 503 111 477.5 65.5 c 128,-1,47
 452 20 452 20 407 -1.5 c 128,-1,48
 362 -23 362 -23 302 -23 c 0,49,50
 243 -23 243 -23 198.5 0 c 128,-1,51
 154 23 154 23 128 72.5 c 128,-1,52
 102 122 102 122 97 201 c 1,53,-1
 119 163 l 1,54,-1
 111 -5 l 1,55,-1
 52 -5 l 1,56,-1
 52 227 l 1,57,-1
 117 227 l 1,58,59
 128 159 128 159 152 115.5 c 128,-1,60
 176 72 176 72 213.5 52 c 128,-1,61
 251 32 251 32 300 32 c 0,0,1
EndSplineSet
EndChar

StartChar: Scaron
Encoding: 352 352 161
Width: 546
GlyphClass: 1
Flags: W
LayerCount: 2
Fore
SplineSet
243 806 m 1,0,-1
 311 806 l 1,1,-1
 423 961 l 1,2,-1
 423 981 l 1,3,-1
 387 981 l 1,4,-1
 236 846 l 1,5,-1
 323 848 l 1,6,-1
 174 981 l 1,7,-1
 130 981 l 1,8,-1
 130 961 l 1,9,-1
 243 806 l 1,0,-1
300 32 m 0,10,11
 341 32 341 32 367.5 45.5 c 128,-1,12
 394 59 394 59 407 88.5 c 128,-1,13
 420 118 420 118 420 167 c 0,14,15
 420 210 420 210 406 237.5 c 128,-1,16
 392 265 392 265 368 281.5 c 128,-1,17
 344 298 344 298 314 309 c 128,-1,18
 284 320 284 320 252 329 c 0,19,20
 214 341 214 341 180 355 c 128,-1,21
 146 369 146 369 120.5 391.5 c 128,-1,22
 95 414 95 414 80.5 451.5 c 128,-1,23
 66 489 66 489 66 548 c 0,24,25
 66 608 66 608 87.5 649 c 128,-1,26
 109 690 109 690 150.5 711.5 c 128,-1,27
 192 733 192 733 252 733 c 0,28,29
 304 733 304 733 341 712.5 c 128,-1,30
 378 692 378 692 399 649 c 128,-1,31
 420 606 420 606 425 538 c 1,32,-1
 407 584 l 1,33,-1
 417 720 l 1,34,-1
 472 720 l 1,35,-1
 472 513 l 1,36,-1
 411 513 l 1,37,38
 401 569 401 569 380 605.5 c 128,-1,39
 359 642 359 642 327.5 660.5 c 128,-1,40
 296 679 296 679 254 679 c 0,41,42
 218 679 218 679 194 666.5 c 128,-1,43
 170 654 170 654 158 626.5 c 128,-1,44
 146 599 146 599 146 555 c 0,45,46
 146 515 146 515 157.5 490 c 128,-1,47
 169 465 169 465 190.5 450 c 128,-1,48
 212 435 212 435 241.5 425 c 128,-1,49
 271 415 271 415 306 403 c 0,50,51
 341 392 341 392 376 378 c 128,-1,52
 411 364 411 364 440 340.5 c 128,-1,53
 469 317 469 317 486 279 c 128,-1,54
 503 241 503 241 503 183 c 0,55,56
 503 111 503 111 477.5 65.5 c 128,-1,57
 452 20 452 20 407 -1.5 c 128,-1,58
 362 -23 362 -23 302 -23 c 0,59,60
 243 -23 243 -23 198.5 0 c 128,-1,61
 154 23 154 23 128 72.5 c 128,-1,62
 102 122 102 122 97 201 c 1,63,-1
 119 163 l 1,64,-1
 111 -5 l 1,65,-1
 52 -5 l 1,66,-1
 52 227 l 1,67,-1
 117 227 l 1,68,69
 128 159 128 159 152 115.5 c 128,-1,70
 176 72 176 72 213.5 52 c 128,-1,71
 251 32 251 32 300 32 c 0,10,11
EndSplineSet
EndChar

StartChar: Scarondotaccent
Encoding: 7782 7782 166
Width: 546
GlyphClass: 1
Flags: W
LayerCount: 2
Fore
SplineSet
243 806 m 1,0,-1
 311 806 l 1,1,-1
 423 961 l 1,2,-1
 423 981 l 1,3,-1
 387 981 l 1,4,-1
 236 846 l 1,5,-1
 323 848 l 1,6,-1
 174 981 l 1,7,-1
 130 981 l 1,8,-1
 130 961 l 1,9,-1
 243 806 l 1,0,-1
300 32 m 0,10,11
 341 32 341 32 367.5 45.5 c 128,-1,12
 394 59 394 59 407 88.5 c 128,-1,13
 420 118 420 118 420 167 c 0,14,15
 420 210 420 210 406 237.5 c 128,-1,16
 392 265 392 265 368 281.5 c 128,-1,17
 344 298 344 298 314 309 c 128,-1,18
 284 320 284 320 252 329 c 0,19,20
 214 341 214 341 180 355 c 128,-1,21
 146 369 146 369 120.5 391.5 c 128,-1,22
 95 414 95 414 80.5 451.5 c 128,-1,23
 66 489 66 489 66 548 c 0,24,25
 66 608 66 608 87.5 649 c 128,-1,26
 109 690 109 690 150.5 711.5 c 128,-1,27
 192 733 192 733 252 733 c 0,28,29
 304 733 304 733 341 712.5 c 128,-1,30
 378 692 378 692 399 649 c 128,-1,31
 420 606 420 606 425 538 c 1,32,-1
 407 584 l 1,33,-1
 417 720 l 1,34,-1
 472 720 l 1,35,-1
 472 513 l 1,36,-1
 411 513 l 1,37,38
 401 569 401 569 380 605.5 c 128,-1,39
 359 642 359 642 327.5 660.5 c 128,-1,40
 296 679 296 679 254 679 c 0,41,42
 218 679 218 679 194 666.5 c 128,-1,43
 170 654 170 654 158 626.5 c 128,-1,44
 146 599 146 599 146 555 c 0,45,46
 146 515 146 515 157.5 490 c 128,-1,47
 169 465 169 465 190.5 450 c 128,-1,48
 212 435 212 435 241.5 425 c 128,-1,49
 271 415 271 415 306 403 c 0,50,51
 341 392 341 392 376 378 c 128,-1,52
 411 364 411 364 440 340.5 c 128,-1,53
 469 317 469 317 486 279 c 128,-1,54
 503 241 503 241 503 183 c 0,55,56
 503 111 503 111 477.5 65.5 c 128,-1,57
 452 20 452 20 407 -1.5 c 128,-1,58
 362 -23 362 -23 302 -23 c 0,59,60
 243 -23 243 -23 198.5 0 c 128,-1,61
 154 23 154 23 128 72.5 c 128,-1,62
 102 122 102 122 97 201 c 1,63,-1
 119 163 l 1,64,-1
 111 -5 l 1,65,-1
 52 -5 l 1,66,-1
 52 227 l 1,67,-1
 117 227 l 1,68,69
 128 159 128 159 152 115.5 c 128,-1,70
 176 72 176 72 213.5 52 c 128,-1,71
 251 32 251 32 300 32 c 0,10,11
277 1022 m 0,72,73
 249 1022 249 1022 232 1036 c 128,-1,74
 215 1050 215 1050 215 1084 c 0,75,76
 215 1116 215 1116 232 1130.5 c 128,-1,77
 249 1145 249 1145 277 1145 c 0,78,79
 304 1145 304 1145 321.5 1130.5 c 128,-1,80
 339 1116 339 1116 339 1084 c 0,81,82
 339 1050 339 1050 321.5 1036 c 128,-1,83
 304 1022 304 1022 277 1022 c 0,72,73
EndSplineSet
EndChar

StartChar: T
Encoding: 84 84 168
Width: 611
GlyphClass: 2
Flags: W
AnchorPoint: "Anchor-1" 310 0 basechar 0
AnchorPoint: "Anchor-0" 310 741 basechar 0
LayerCount: 2
Fore
SplineSet
260 93 m 2,0,-1
 260 656 l 1,1,-1
 218 656 l 2,2,3
 180 656 180 656 157 650.5 c 128,-1,4
 134 645 134 645 123.5 633 c 128,-1,5
 113 621 113 621 111 600 c 2,6,-1
 100 477 l 1,7,-1
 43 477 l 1,8,-1
 43 710 l 1,9,-1
 568 710 l 1,10,-1
 568 477 l 1,11,-1
 511 477 l 1,12,-1
 500 600 l 2,13,14
 499 621 499 621 488 633 c 128,-1,15
 477 645 477 645 454 650.5 c 128,-1,16
 431 656 431 656 392 656 c 2,17,-1
 350 656 l 1,18,-1
 350 93 l 2,19,20
 350 70 350 70 371.5 63 c 128,-1,21
 393 56 393 56 421 56 c 2,22,-1
 437 56 l 1,23,-1
 437 0 l 1,24,-1
 174 0 l 1,25,-1
 174 56 l 1,26,-1
 190 56 l 2,27,28
 219 56 219 56 239.5 63 c 128,-1,29
 260 70 260 70 260 93 c 2,0,-1
EndSplineSet
EndChar

StartChar: Tcaron
Encoding: 356 356 170
Width: 611
GlyphClass: 1
Flags: W
LayerCount: 2
Fore
SplineSet
266 806 m 1,0,-1
 334 806 l 1,1,-1
 446 961 l 1,2,-1
 446 981 l 1,3,-1
 410 981 l 1,4,-1
 259 846 l 1,5,-1
 346 848 l 1,6,-1
 197 981 l 1,7,-1
 153 981 l 1,8,-1
 153 961 l 1,9,-1
 266 806 l 1,0,-1
260 92 m 2,10,-1
 260 656 l 1,11,-1
 218 656 l 2,12,13
 180 656 180 656 157 650.5 c 128,-1,14
 134 645 134 645 123.5 633 c 128,-1,15
 113 621 113 621 111 600 c 2,16,-1
 100 477 l 1,17,-1
 43 477 l 1,18,-1
 43 710 l 1,19,-1
 568 710 l 1,20,-1
 568 477 l 1,21,-1
 511 477 l 1,22,-1
 500 600 l 2,23,24
 499 621 499 621 488 633 c 128,-1,25
 477 645 477 645 454 650.5 c 128,-1,26
 431 656 431 656 392 656 c 2,27,-1
 350 656 l 1,28,-1
 350 92 l 2,29,30
 350 70 350 70 371.5 63 c 128,-1,31
 393 56 393 56 421 56 c 2,32,-1
 437 56 l 1,33,-1
 437 0 l 1,34,-1
 174 0 l 1,35,-1
 174 56 l 1,36,-1
 190 56 l 2,37,38
 219 56 219 56 239.5 63 c 128,-1,39
 260 70 260 70 260 92 c 2,10,-1
EndSplineSet
EndChar

StartChar: U
Encoding: 85 85 174
Width: 677
GlyphClass: 2
Flags: W
AnchorPoint: "Anchor-2" 388 0 basechar 0
AnchorPoint: "Anchor-1" 342 0 basechar 0
AnchorPoint: "Anchor-0" 342 741 basechar 0
LayerCount: 2
Fore
SplineSet
205 212 m 2,0,1
 205 164 205 164 216 130.5 c 128,-1,2
 227 97 227 97 247 77 c 128,-1,3
 267 57 267 57 294.5 48 c 128,-1,4
 322 39 322 39 355 39 c 0,5,6
 386 39 386 39 412.5 48 c 128,-1,7
 439 57 439 57 458.5 77 c 128,-1,8
 478 97 478 97 489 130.5 c 128,-1,9
 500 164 500 164 500 212 c 2,10,-1
 500 634 l 2,11,12
 500 640 500 640 494 643.5 c 128,-1,13
 488 647 488 647 478 649 c 128,-1,14
 468 651 468 651 456 652.5 c 128,-1,15
 444 654 444 654 433 654 c 2,16,-1
 426 654 l 1,17,-1
 426 710 l 1,18,-1
 636 710 l 1,19,-1
 636 654 l 1,20,-1
 628 654 l 2,21,22
 610 654 610 654 595 650 c 128,-1,23
 580 646 580 646 572 636 c 128,-1,24
 564 626 564 626 564 609 c 2,25,-1
 564 211 l 2,26,27
 564 148 564 148 547 103.5 c 128,-1,28
 530 59 530 59 499.5 31 c 128,-1,29
 469 3 469 3 428.5 -10 c 128,-1,30
 388 -23 388 -23 342 -23 c 0,31,32
 293 -23 293 -23 251.5 -10 c 128,-1,33
 210 3 210 3 179.5 31 c 128,-1,34
 149 59 149 59 132 103.5 c 128,-1,35
 115 148 115 148 115 211 c 2,36,-1
 115 618 l 2,37,38
 115 640 115 640 96.5 647 c 128,-1,39
 78 654 78 654 49 654 c 2,40,-1
 39 654 l 1,41,-1
 39 710 l 1,42,-1
 280 710 l 1,43,-1
 280 654 l 1,44,-1
 273 654 l 2,45,46
 262 654 262 654 250 653.5 c 128,-1,47
 238 653 238 653 228 651.5 c 128,-1,48
 218 650 218 650 211.5 648.5 c 128,-1,49
 205 647 205 647 205 644 c 2,50,-1
 205 212 l 2,0,1
EndSplineSet
EndChar

StartChar: Uogonek
Encoding: 370 370 184
Width: 677
GlyphClass: 1
Flags: W
LayerCount: 2
Fore
SplineSet
439 33 m 1,0,-1
 438 -2 l 1,1,2
 417 -14 417 -14 392.5 -18.5 c 128,-1,3
 368 -23 368 -23 342 -23 c 0,4,5
 293 -23 293 -23 251 -10 c 128,-1,6
 209 3 209 3 179 31 c 128,-1,7
 149 59 149 59 132 103.5 c 128,-1,8
 115 148 115 148 115 211 c 2,9,-1
 115 618 l 2,10,11
 115 640 115 640 96 647 c 128,-1,12
 77 654 77 654 49 654 c 2,13,-1
 39 654 l 1,14,-1
 39 710 l 1,15,-1
 280 710 l 1,16,-1
 280 654 l 1,17,-1
 273 654 l 2,18,19
 262 654 262 654 250 653.5 c 128,-1,20
 238 653 238 653 228 651.5 c 128,-1,21
 218 650 218 650 211.5 648.5 c 128,-1,22
 205 647 205 647 205 644 c 2,23,-1
 205 211 l 2,24,25
 205 163 205 163 216 130 c 128,-1,26
 227 97 227 97 246.5 77 c 128,-1,27
 266 57 266 57 293.5 48 c 128,-1,28
 321 39 321 39 354 39 c 0,29,30
 386 39 386 39 413 48 c 128,-1,31
 440 57 440 57 460 77 c 128,-1,32
 480 97 480 97 491 130 c 128,-1,33
 502 163 502 163 502 211 c 2,34,-1
 502 635 l 2,35,36
 502 640 502 640 495.5 643.5 c 128,-1,37
 489 647 489 647 479 649 c 128,-1,38
 469 651 469 651 457 652.5 c 128,-1,39
 445 654 445 654 433 654 c 2,40,-1
 426 654 l 1,41,-1
 426 710 l 1,42,-1
 636 710 l 1,43,-1
 636 654 l 1,44,-1
 628 654 l 2,45,46
 609 654 609 654 594 650 c 128,-1,47
 579 646 579 646 570.5 636 c 128,-1,48
 562 626 562 626 562 609 c 2,49,-1
 562 211 l 2,50,51
 562 172 562 172 555.5 141 c 128,-1,52
 549 110 549 110 537.5 86 c 128,-1,53
 526 62 526 62 510 43 c 0,54,55
 490 18 490 18 464 -5 c 128,-1,56
 438 -28 438 -28 414 -50 c 128,-1,57
 390 -72 390 -72 374.5 -96.5 c 128,-1,58
 359 -121 359 -121 359 -150 c 0,59,60
 359 -173 359 -173 370 -185.5 c 128,-1,61
 381 -198 381 -198 401 -198 c 0,62,63
 427 -198 427 -198 445 -181.5 c 128,-1,64
 463 -165 463 -165 473 -149 c 1,65,-1
 511 -180 l 1,66,67
 489 -211 489 -211 458.5 -231.5 c 128,-1,68
 428 -252 428 -252 379 -252 c 0,69,70
 346 -252 346 -252 319 -242.5 c 128,-1,71
 292 -233 292 -233 276.5 -212.5 c 128,-1,72
 261 -192 261 -192 261 -161 c 0,73,74
 261 -138 261 -138 269.5 -119.5 c 128,-1,75
 278 -101 278 -101 297.5 -81 c 128,-1,76
 317 -61 317 -61 352 -34 c 128,-1,77
 387 -7 387 -7 439 33 c 1,0,-1
EndSplineSet
EndChar

StartChar: Uhorn
Encoding: 431 431 185
Width: 774
GlyphClass: 2
Flags: W
AnchorPoint: "Anchor-1" 390 -35 basechar 0
AnchorPoint: "Anchor-0" 390 663 basechar 0
LayerCount: 2
Fore
SplineSet
115 211 m 2,0,-1
 115 618 l 2,1,2
 115 640 115 640 96 647 c 128,-1,3
 77 654 77 654 49 654 c 2,4,-1
 39 654 l 1,5,-1
 39 710 l 1,6,-1
 280 710 l 1,7,-1
 280 654 l 1,8,-1
 273 654 l 2,9,10
 262 654 262 654 250 653.5 c 128,-1,11
 238 653 238 653 228 651.5 c 128,-1,12
 218 650 218 650 211.5 648.5 c 128,-1,13
 205 647 205 647 205 644 c 2,14,-1
 205 212 l 2,15,16
 205 164 205 164 216 130.5 c 128,-1,17
 227 97 227 97 247 77 c 128,-1,18
 267 57 267 57 294.5 48 c 128,-1,19
 322 39 322 39 355 39 c 0,20,21
 397 39 397 39 430.5 55.5 c 128,-1,22
 464 72 464 72 483 110 c 128,-1,23
 502 148 502 148 502 212 c 2,24,-1
 502 635 l 2,25,26
 502 640 502 640 495.5 643.5 c 128,-1,27
 489 647 489 647 479 649 c 128,-1,28
 469 651 469 651 457 652.5 c 128,-1,29
 445 654 445 654 433 654 c 2,30,-1
 426 654 l 1,31,-1
 426 710 l 1,32,-1
 615 710 l 2,33,34
 649 710 649 710 669.5 723 c 128,-1,35
 690 736 690 736 701.5 760.5 c 128,-1,36
 713 785 713 785 718 820 c 128,-1,37
 723 855 723 855 725 899 c 1,38,-1
 808 899 l 1,39,40
 807 846 807 846 798.5 806.5 c 128,-1,41
 790 767 790 767 774.5 739 c 128,-1,42
 759 711 759 711 736.5 693 c 128,-1,43
 714 675 714 675 684.5 666 c 128,-1,44
 655 657 655 657 618 655 c 0,45,46
 602 654 602 654 589.5 650 c 128,-1,47
 577 646 577 646 569.5 637 c 128,-1,48
 562 628 562 628 562 612 c 2,49,-1
 562 211 l 2,50,51
 562 148 562 148 545 103.5 c 128,-1,52
 528 59 528 59 498 31 c 128,-1,53
 468 3 468 3 428 -10 c 128,-1,54
 388 -23 388 -23 342 -23 c 0,55,56
 293 -23 293 -23 251.5 -10 c 128,-1,57
 210 3 210 3 179.5 31 c 128,-1,58
 149 59 149 59 132 103.5 c 128,-1,59
 115 148 115 148 115 211 c 2,0,-1
EndSplineSet
EndChar

StartChar: Ucaron
Encoding: 467 467 186
Width: 677
GlyphClass: 1
Flags: W
LayerCount: 2
Fore
SplineSet
310 806 m 1,0,-1
 378 806 l 1,1,-1
 490 961 l 1,2,-1
 490 981 l 1,3,-1
 454 981 l 1,4,-1
 303 846 l 1,5,-1
 390 848 l 1,6,-1
 241 981 l 1,7,-1
 197 981 l 1,8,-1
 197 961 l 1,9,-1
 310 806 l 1,0,-1
205 212 m 2,10,11
 205 164 205 164 216 130.5 c 128,-1,12
 227 97 227 97 247 77 c 128,-1,13
 267 57 267 57 294.5 48 c 128,-1,14
 322 39 322 39 355 39 c 0,15,16
 386 39 386 39 412.5 48 c 128,-1,17
 439 57 439 57 458.5 77 c 128,-1,18
 478 97 478 97 489 130.5 c 128,-1,19
 500 164 500 164 500 212 c 2,20,-1
 500 635 l 2,21,22
 500 640 500 640 494 643.5 c 128,-1,23
 488 647 488 647 478 649 c 128,-1,24
 468 651 468 651 456 652.5 c 128,-1,25
 444 654 444 654 433 654 c 2,26,-1
 426 654 l 1,27,-1
 426 710 l 1,28,-1
 636 710 l 1,29,-1
 636 654 l 1,30,-1
 628 654 l 2,31,32
 609 654 609 654 594.5 650 c 128,-1,33
 580 646 580 646 572 636 c 128,-1,34
 564 626 564 626 564 609 c 2,35,-1
 564 211 l 2,36,37
 564 148 564 148 547 103.5 c 128,-1,38
 530 59 530 59 499.5 31 c 128,-1,39
 469 3 469 3 428.5 -10 c 128,-1,40
 388 -23 388 -23 342 -23 c 0,41,42
 293 -23 293 -23 251.5 -10 c 128,-1,43
 210 3 210 3 179.5 31 c 128,-1,44
 149 59 149 59 132 103.5 c 128,-1,45
 115 148 115 148 115 211 c 2,46,-1
 115 618 l 2,47,48
 115 640 115 640 96 647 c 128,-1,49
 77 654 77 654 49 654 c 2,50,-1
 39 654 l 1,51,-1
 39 710 l 1,52,-1
 280 710 l 1,53,-1
 280 654 l 1,54,-1
 273 654 l 2,55,56
 262 654 262 654 250 653.5 c 128,-1,57
 238 653 238 653 228 651.5 c 128,-1,58
 218 650 218 650 211.5 648.5 c 128,-1,59
 205 647 205 647 205 644 c 2,60,-1
 205 212 l 2,10,11
EndSplineSet
EndChar

StartChar: Udieresiscaron
Encoding: 473 473 187
Width: 677
GlyphClass: 1
Flags: W
LayerCount: 2
Fore
SplineSet
305 961 m 1,0,-1
 373 961 l 1,1,-1
 485 1116 l 1,2,-1
 485 1136 l 1,3,-1
 449 1136 l 1,4,-1
 298 1001 l 1,5,-1
 385 1003 l 1,6,-1
 236 1136 l 1,7,-1
 192 1136 l 1,8,-1
 192 1116 l 1,9,-1
 305 961 l 1,0,-1
205 212 m 2,10,11
 205 164 205 164 216 130.5 c 128,-1,12
 227 97 227 97 247 77 c 128,-1,13
 267 57 267 57 294.5 48 c 128,-1,14
 322 39 322 39 355 39 c 0,15,16
 386 39 386 39 412.5 48 c 128,-1,17
 439 57 439 57 458.5 77 c 128,-1,18
 478 97 478 97 489 130.5 c 128,-1,19
 500 164 500 164 500 212 c 2,20,-1
 500 635 l 2,21,22
 500 640 500 640 494 643.5 c 128,-1,23
 488 647 488 647 478 649 c 128,-1,24
 468 651 468 651 456 652.5 c 128,-1,25
 444 654 444 654 433 654 c 2,26,-1
 426 654 l 1,27,-1
 426 710 l 1,28,-1
 636 710 l 1,29,-1
 636 654 l 1,30,-1
 628 654 l 2,31,32
 609 654 609 654 594.5 650 c 128,-1,33
 580 646 580 646 572 636 c 128,-1,34
 564 626 564 626 564 609 c 2,35,-1
 564 211 l 2,36,37
 564 148 564 148 547 103.5 c 128,-1,38
 530 59 530 59 499.5 31 c 128,-1,39
 469 3 469 3 428.5 -10 c 128,-1,40
 388 -23 388 -23 342 -23 c 0,41,42
 293 -23 293 -23 251.5 -10 c 128,-1,43
 210 3 210 3 179.5 31 c 128,-1,44
 149 59 149 59 132 103.5 c 128,-1,45
 115 148 115 148 115 211 c 2,46,-1
 115 618 l 2,47,48
 115 640 115 640 96 647 c 128,-1,49
 77 654 77 654 49 654 c 2,50,-1
 39 654 l 1,51,-1
 39 710 l 1,52,-1
 280 710 l 1,53,-1
 280 654 l 1,54,-1
 273 654 l 2,55,56
 262 654 262 654 250 653.5 c 128,-1,57
 238 653 238 653 228 651.5 c 128,-1,58
 218 650 218 650 211.5 648.5 c 128,-1,59
 205 647 205 647 205 644 c 2,60,-1
 205 212 l 2,10,11
291 859 m 0,61,62
 291 825 291 825 273.5 811 c 128,-1,63
 256 797 256 797 229 797 c 0,64,65
 201 797 201 797 184 811 c 128,-1,66
 167 825 167 825 167 859 c 0,67,68
 167 891 167 891 184 905.5 c 128,-1,69
 201 920 201 920 229 920 c 0,70,71
 256 920 256 920 273.5 905.5 c 128,-1,72
 291 891 291 891 291 859 c 0,61,62
509 859 m 0,73,74
 509 825 509 825 491.5 811 c 128,-1,75
 474 797 474 797 447 797 c 0,76,77
 419 797 419 797 402 811 c 128,-1,78
 385 825 385 825 385 859 c 0,79,80
 385 891 385 891 402 905.5 c 128,-1,81
 419 920 419 920 447 920 c 0,82,83
 474 920 474 920 491.5 905.5 c 128,-1,84
 509 891 509 891 509 859 c 0,73,74
EndSplineSet
EndChar

StartChar: Udblgrave
Encoding: 532 532 188
Width: 677
GlyphClass: 1
Flags: W
LayerCount: 2
Fore
SplineSet
416 918 m 2,0,-1
 455 816 l 1,1,-1
 455 793 l 1,2,-1
 422 793 l 1,3,-1
 357 862 l 2,4,5
 339 882 339 882 327 898 c 128,-1,6
 315 914 315 914 315 934 c 0,7,8
 315 951 315 951 327 963 c 128,-1,9
 339 975 339 975 361 975 c 0,10,11
 375 975 375 975 385 967.5 c 128,-1,12
 395 960 395 960 402.5 947.5 c 128,-1,13
 410 935 410 935 416 918 c 2,0,-1
248 918 m 2,14,-1
 284 816 l 1,15,-1
 284 793 l 1,16,-1
 252 793 l 1,17,-1
 187 862 l 2,18,19
 169 882 169 882 156.5 898 c 128,-1,20
 144 914 144 914 144 934 c 0,21,22
 144 951 144 951 156.5 963 c 128,-1,23
 169 975 169 975 190 975 c 0,24,25
 204 975 204 975 215 968 c 128,-1,26
 226 961 226 961 234 948 c 128,-1,27
 242 935 242 935 248 918 c 2,14,-1
205 212 m 2,28,29
 205 164 205 164 216 130.5 c 128,-1,30
 227 97 227 97 247 77 c 128,-1,31
 267 57 267 57 294.5 48 c 128,-1,32
 322 39 322 39 355 39 c 0,33,34
 386 39 386 39 412.5 48 c 128,-1,35
 439 57 439 57 458.5 77 c 128,-1,36
 478 97 478 97 489 130.5 c 128,-1,37
 500 164 500 164 500 212 c 2,38,-1
 500 635 l 2,39,40
 500 640 500 640 494 643.5 c 128,-1,41
 488 647 488 647 478 649 c 128,-1,42
 468 651 468 651 456 652.5 c 128,-1,43
 444 654 444 654 433 654 c 2,44,-1
 426 654 l 1,45,-1
 426 710 l 1,46,-1
 636 710 l 1,47,-1
 636 654 l 1,48,-1
 628 654 l 2,49,50
 609 654 609 654 594.5 650 c 128,-1,51
 580 646 580 646 572 636 c 128,-1,52
 564 626 564 626 564 609 c 2,53,-1
 564 211 l 2,54,55
 564 148 564 148 547 103.5 c 128,-1,56
 530 59 530 59 499.5 31 c 128,-1,57
 469 3 469 3 428.5 -10 c 128,-1,58
 388 -23 388 -23 342 -23 c 0,59,60
 293 -23 293 -23 251.5 -10 c 128,-1,61
 210 3 210 3 179.5 31 c 128,-1,62
 149 59 149 59 132 103.5 c 128,-1,63
 115 148 115 148 115 211 c 2,64,-1
 115 618 l 2,65,66
 115 640 115 640 96 647 c 128,-1,67
 77 654 77 654 49 654 c 2,68,-1
 39 654 l 1,69,-1
 39 710 l 1,70,-1
 280 710 l 1,71,-1
 280 654 l 1,72,-1
 273 654 l 2,73,74
 262 654 262 654 250 653.5 c 128,-1,75
 238 653 238 653 228 651.5 c 128,-1,76
 218 650 218 650 211.5 648.5 c 128,-1,77
 205 647 205 647 205 644 c 2,78,-1
 205 212 l 2,28,29
EndSplineSet
EndChar

StartChar: Uinvertedbreve
Encoding: 534 534 189
Width: 677
GlyphClass: 1
Flags: W
LayerCount: 2
Fore
SplineSet
338 929 m 0,0,1
 291 929 291 929 258.5 913.5 c 128,-1,2
 226 898 226 898 209 862.5 c 128,-1,3
 192 827 192 827 191 767 c 1,4,-1
 248 767 l 1,5,6
 250 803 250 803 258 823 c 128,-1,7
 266 843 266 843 285 851.5 c 128,-1,8
 304 860 304 860 338 860 c 0,9,10
 370 860 370 860 388.5 852 c 128,-1,11
 407 844 407 844 415.5 823.5 c 128,-1,12
 424 803 424 803 425 767 c 1,13,-1
 486 767 l 1,14,15
 485 827 485 827 468 862.5 c 128,-1,16
 451 898 451 898 418.5 913.5 c 128,-1,17
 386 929 386 929 338 929 c 0,0,1
205 212 m 2,18,19
 205 164 205 164 216 130.5 c 128,-1,20
 227 97 227 97 247 77 c 128,-1,21
 267 57 267 57 294.5 48 c 128,-1,22
 322 39 322 39 355 39 c 0,23,24
 386 39 386 39 412.5 48 c 128,-1,25
 439 57 439 57 458.5 77 c 128,-1,26
 478 97 478 97 489 130.5 c 128,-1,27
 500 164 500 164 500 212 c 2,28,-1
 500 635 l 2,29,30
 500 640 500 640 494 643.5 c 128,-1,31
 488 647 488 647 478 649 c 128,-1,32
 468 651 468 651 456 652.5 c 128,-1,33
 444 654 444 654 433 654 c 2,34,-1
 426 654 l 1,35,-1
 426 710 l 1,36,-1
 636 710 l 1,37,-1
 636 654 l 1,38,-1
 628 654 l 2,39,40
 609 654 609 654 594.5 650 c 128,-1,41
 580 646 580 646 572 636 c 128,-1,42
 564 626 564 626 564 609 c 2,43,-1
 564 211 l 2,44,45
 564 148 564 148 547 103.5 c 128,-1,46
 530 59 530 59 499.5 31 c 128,-1,47
 469 3 469 3 428.5 -10 c 128,-1,48
 388 -23 388 -23 342 -23 c 0,49,50
 293 -23 293 -23 251.5 -10 c 128,-1,51
 210 3 210 3 179.5 31 c 128,-1,52
 149 59 149 59 132 103.5 c 128,-1,53
 115 148 115 148 115 211 c 2,54,-1
 115 618 l 2,55,56
 115 640 115 640 96 647 c 128,-1,57
 77 654 77 654 49 654 c 2,58,-1
 39 654 l 1,59,-1
 39 710 l 1,60,-1
 280 710 l 1,61,-1
 280 654 l 1,62,-1
 273 654 l 2,63,64
 262 654 262 654 250 653.5 c 128,-1,65
 238 653 238 653 228 651.5 c 128,-1,66
 218 650 218 650 211.5 648.5 c 128,-1,67
 205 647 205 647 205 644 c 2,68,-1
 205 212 l 2,18,19
EndSplineSet
EndChar

StartChar: V
Encoding: 86 86 199
Width: 624
GlyphClass: 2
Flags: W
AnchorPoint: "Anchor-0" 360 741 basechar 0
LayerCount: 2
Fore
SplineSet
336 16 m 1,0,-1
 316 26 l 1,1,-1
 476 631 l 2,2,3
 476 638 476 638 468 643 c 128,-1,4
 460 648 460 648 444.5 651 c 128,-1,5
 429 654 429 654 407 654 c 2,6,-1
 399 654 l 1,7,-1
 399 710 l 1,8,-1
 606 710 l 1,9,-1
 606 654 l 1,10,-1
 601 654 l 2,11,12
 577 654 577 654 560.5 642 c 128,-1,13
 544 630 544 630 533 590 c 2,14,-1
 366 -12 l 1,15,-1
 259 -12 l 1,16,-1
 91 590 l 2,17,18
 80 630 80 630 63.5 642 c 128,-1,19
 47 654 47 654 22 654 c 2,20,-1
 18 654 l 1,21,-1
 18 710 l 1,22,-1
 249 710 l 1,23,-1
 249 654 l 1,24,-1
 239 654 l 2,25,26
 216 654 216 654 200 652.5 c 128,-1,27
 184 651 184 651 176 649 c 128,-1,28
 168 647 168 647 168 643 c 2,29,-1
 336 16 l 1,0,-1
EndSplineSet
EndChar

StartChar: W
Encoding: 87 87 200
Width: 868
GlyphClass: 2
Flags: W
AnchorPoint: "Anchor-0" 446 741 basechar 0
LayerCount: 2
Fore
SplineSet
19 710 m 1,0,-1
 238 710 l 1,1,-1
 238 654 l 1,2,-1
 225 654 l 2,3,4
 211 654 211 654 196 652.5 c 128,-1,5
 181 651 181 651 171 649 c 128,-1,6
 161 647 161 647 161 643 c 2,7,-1
 284 28 l 1,8,-1
 260 25 l 1,9,-1
 405 710 l 1,10,-1
 501 710 l 1,11,-1
 640 30 l 1,12,-1
 619 29 l 1,13,-1
 741 631 l 2,14,15
 741 638 741 638 731.5 643 c 128,-1,16
 722 648 722 648 708.5 651 c 128,-1,17
 695 654 695 654 682 654 c 2,18,-1
 671 654 l 1,19,-1
 671 710 l 1,20,-1
 852 710 l 1,21,-1
 852 654 l 1,22,-1
 846 654 l 2,23,24
 825 654 825 654 812 643 c 128,-1,25
 799 632 799 632 793 601 c 2,26,-1
 669 -6 l 1,27,-1
 569 -6 l 1,28,-1
 430 656 l 1,29,-1
 454 662 l 1,30,-1
 312 -6 l 1,31,-1
 210 -6 l 1,32,-1
 79 607 l 2,33,34
 74 639 74 639 61 646.5 c 128,-1,35
 48 654 48 654 25 654 c 2,36,-1
 19 654 l 1,37,-1
 19 710 l 1,0,-1
EndSplineSet
EndChar

StartChar: X
Encoding: 88 88 205
Width: 630
GlyphClass: 2
Flags: W
AnchorPoint: "Anchor-1" 355 0 basechar 0
AnchorPoint: "Anchor-0" 378 741 basechar 0
LayerCount: 2
Fore
SplineSet
33 654 m 1,0,-1
 33 710 l 1,1,-1
 273 710 l 1,2,-1
 273 654 l 1,3,-1
 259 654 l 2,4,5
 244 654 244 654 228 653 c 128,-1,6
 212 652 212 652 201 650 c 128,-1,7
 190 648 190 648 190 645 c 2,8,-1
 344 391 l 1,9,-1
 352 386 l 1,10,-1
 529 90 l 2,11,12
 543 68 543 68 556.5 62 c 128,-1,13
 570 56 570 56 592 56 c 2,14,-1
 608 56 l 1,15,-1
 608 0 l 1,16,-1
 364 0 l 1,17,-1
 364 56 l 1,18,-1
 378 56 l 2,19,20
 393 56 393 56 408.5 57 c 128,-1,21
 424 58 424 58 435 60.5 c 128,-1,22
 446 63 446 63 446 66 c 2,23,-1
 282 342 l 1,24,-1
 274 347 l 1,25,-1
 108 620 l 2,26,27
 94 643 94 643 80 648.5 c 128,-1,28
 66 654 66 654 44 654 c 2,29,-1
 33 654 l 1,0,-1
23 0 m 1,30,-1
 23 56 l 1,31,-1
 40 56 l 2,32,33
 58 56 58 56 71.5 65.5 c 128,-1,34
 85 75 85 75 101 102 c 2,35,-1
 263 380 l 1,36,-1
 308 341 l 1,37,-1
 152 73 l 2,38,39
 152 69 152 69 162.5 65 c 128,-1,40
 173 61 173 61 188 58.5 c 128,-1,41
 203 56 203 56 218 56 c 2,42,-1
 233 56 l 1,43,-1
 233 0 l 1,44,-1
 23 0 l 1,30,-1
365 355 m 1,45,-1
 320 391 l 1,46,-1
 468 637 l 2,47,48
 468 642 468 642 457 646 c 128,-1,49
 446 650 446 650 430.5 652 c 128,-1,50
 415 654 415 654 399 654 c 2,51,-1
 387 654 l 1,52,-1
 387 710 l 1,53,-1
 594 710 l 1,54,-1
 594 654 l 1,55,-1
 583 654 l 2,56,57
 564 654 564 654 549 645 c 128,-1,58
 534 636 534 636 518 609 c 2,59,-1
 365 355 l 1,45,-1
EndSplineSet
EndChar

StartChar: Y
Encoding: 89 89 206
Width: 592
GlyphClass: 2
Flags: W
AnchorPoint: "Anchor-1" 299 0 basechar 0
AnchorPoint: "Anchor-0" 299 741 basechar 0
LayerCount: 2
Fore
SplineSet
252 293 m 1,0,-1
 258 261 l 1,1,-1
 90 607 l 2,2,3
 81 625 81 625 73 635.5 c 128,-1,4
 65 646 65 646 55.5 650 c 128,-1,5
 46 654 46 654 31 654 c 2,6,-1
 21 654 l 1,7,-1
 21 710 l 1,8,-1
 238 710 l 1,9,-1
 238 654 l 1,10,-1
 226 654 l 2,11,12
 212 654 212 654 198 652.5 c 128,-1,13
 184 651 184 651 174.5 649 c 128,-1,14
 165 647 165 647 165 643 c 2,15,-1
 333 296 l 1,16,-1
 296 296 l 1,17,-1
 446 631 l 2,18,19
 446 638 446 638 437 643 c 128,-1,20
 428 648 428 648 415 651 c 128,-1,21
 402 654 402 654 389 654 c 2,22,-1
 379 654 l 1,23,-1
 379 710 l 1,24,-1
 566 710 l 1,25,-1
 566 654 l 1,26,-1
 556 654 l 2,27,28
 543 654 543 654 533 649 c 128,-1,29
 523 644 523 644 514 632 c 128,-1,30
 505 620 505 620 495 600 c 2,31,-1
 334 261 l 1,32,-1
 342 293 l 1,33,-1
 342 92 l 2,34,35
 342 70 342 70 361.5 63 c 128,-1,36
 381 56 381 56 410 56 c 2,37,-1
 427 56 l 1,38,-1
 427 0 l 1,39,-1
 166 0 l 1,40,-1
 166 56 l 1,41,-1
 183 56 l 2,42,43
 213 56 213 56 232.5 63 c 128,-1,44
 252 70 252 70 252 92 c 2,45,-1
 252 293 l 1,0,-1
EndSplineSet
EndChar

StartChar: Z
Encoding: 90 90 216
Width: 566
GlyphClass: 2
Flags: W
AnchorPoint: "Anchor-1" 299 0 basechar 0
AnchorPoint: "Anchor-0" 299 741 basechar 0
LayerCount: 2
Fore
SplineSet
234 656 m 2,0,1
 209 656 209 656 191 654 c 128,-1,2
 173 652 173 652 161 647 c 128,-1,3
 149 642 149 642 143 633.5 c 128,-1,4
 137 625 137 625 135 611 c 2,5,-1
 124 507 l 1,6,-1
 66 507 l 1,7,-1
 66 710 l 1,8,-1
 502 710 l 1,9,-1
 502 647 l 1,10,-1
 123 23 l 1,11,-1
 107 54 l 1,12,-1
 343 54 l 2,13,14
 378 54 378 54 399.5 57.5 c 128,-1,15
 421 61 421 61 432 71 c 128,-1,16
 443 81 443 81 444 99 c 2,17,-1
 456 228 l 1,18,-1
 516 228 l 1,19,-1
 516 0 l 1,20,-1
 53 0 l 1,21,-1
 53 66 l 1,22,-1
 424 676 l 1,23,-1
 441 656 l 1,24,-1
 234 656 l 2,0,1
EndSplineSet
EndChar

StartChar: Zcaron
Encoding: 381 381 219
Width: 566
GlyphClass: 1
Flags: W
LayerCount: 2
Fore
SplineSet
245 806 m 1,0,-1
 313 806 l 1,1,-1
 425 961 l 1,2,-1
 425 981 l 1,3,-1
 389 981 l 1,4,-1
 238 846 l 1,5,-1
 325 848 l 1,6,-1
 176 981 l 1,7,-1
 132 981 l 1,8,-1
 132 961 l 1,9,-1
 245 806 l 1,0,-1
234 656 m 2,10,11
 209 656 209 656 191 654 c 128,-1,12
 173 652 173 652 161 647 c 128,-1,13
 149 642 149 642 143 633.5 c 128,-1,14
 137 625 137 625 135 611 c 2,15,-1
 124 507 l 1,16,-1
 66 507 l 1,17,-1
 66 710 l 1,18,-1
 502 710 l 1,19,-1
 502 647 l 1,20,-1
 123 23 l 1,21,-1
 107 54 l 1,22,-1
 343 54 l 2,23,24
 378 54 378 54 399.5 57.5 c 128,-1,25
 421 61 421 61 432 71 c 128,-1,26
 443 81 443 81 444 99 c 2,27,-1
 456 228 l 1,28,-1
 516 228 l 1,29,-1
 516 0 l 1,30,-1
 53 0 l 1,31,-1
 53 66 l 1,32,-1
 424 676 l 1,33,-1
 441 656 l 1,34,-1
 234 656 l 2,10,11
EndSplineSet
EndChar

StartChar: AE
Encoding: 198 198 221
Width: 908
GlyphClass: 2
Flags: W
AnchorPoint: "Anchor-0" 560 741 basechar 0
LayerCount: 2
Fore
SplineSet
198 294 m 1,0,-1
 469 294 l 1,1,-1
 484 238 l 1,2,-1
 183 238 l 1,3,-1
 198 294 l 1,0,-1
519 389 m 1,4,5
 559 392 559 392 598.5 394 c 128,-1,6
 638 396 638 396 677.5 398.5 c 128,-1,7
 717 401 717 401 756 403 c 1,8,-1
 756 328 l 1,9,10
 717 330 717 330 677.5 332 c 128,-1,11
 638 334 638 334 598.5 336.5 c 128,-1,12
 559 339 559 339 519 341 c 1,13,-1
 519 389 l 1,4,5
368 0 m 1,14,-1
 368 56 l 1,15,-1
 377 56 l 2,16,17
 396 56 396 56 411 59 c 128,-1,18
 426 62 426 62 434.5 70 c 128,-1,19
 443 78 443 78 443 92 c 2,20,-1
 443 661 l 1,21,-1
 421 661 l 1,22,-1
 140 79 l 2,23,24
 140 73 140 73 148 67.5 c 128,-1,25
 156 62 156 62 172 59 c 128,-1,26
 188 56 188 56 210 56 c 2,27,-1
 218 56 l 1,28,-1
 218 0 l 1,29,-1
 5 0 l 1,30,-1
 5 56 l 1,31,-1
 10 56 l 2,32,33
 26 56 26 56 39.5 62 c 128,-1,34
 53 68 53 68 65 82.5 c 128,-1,35
 77 97 77 97 89 120 c 2,36,-1
 332 618 l 1,37,38
 332 633 332 633 323 640.5 c 128,-1,39
 314 648 314 648 299 651 c 128,-1,40
 284 654 284 654 265 654 c 2,41,-1
 256 654 l 1,42,-1
 256 710 l 1,43,-1
 834 710 l 1,44,-1
 834 512 l 1,45,-1
 776 512 l 1,46,-1
 765 611 l 2,47,48
 763 629 763 629 752.5 638.5 c 128,-1,49
 742 648 742 648 721 652 c 128,-1,50
 700 656 700 656 666 656 c 2,51,-1
 533 656 l 1,52,-1
 533 54 l 1,53,-1
 680 54 l 2,54,55
 706 54 706 54 724.5 56 c 128,-1,56
 743 58 743 58 755 63 c 128,-1,57
 767 68 767 68 773.5 77 c 128,-1,58
 780 86 780 86 781 99 c 2,59,-1
 793 223 l 1,60,-1
 853 223 l 1,61,-1
 853 0 l 1,62,-1
 368 0 l 1,14,-1
EndSplineSet
EndChar

StartChar: Eth
Encoding: 208 208 223
Width: 659
GlyphClass: 1
Flags: W
LayerCount: 2
Fore
SplineSet
42 387 m 1,0,-1
 373 387 l 1,1,-1
 373 334 l 1,2,-1
 42 334 l 1,3,-1
 42 387 l 1,0,-1
50 654 m 1,4,-1
 50 710 l 1,5,-1
 297 710 l 2,6,7
 370 710 370 710 428 689 c 128,-1,8
 486 668 486 668 526.5 625 c 128,-1,9
 567 582 567 582 588 515.5 c 128,-1,10
 609 449 609 449 609 360 c 0,11,12
 609 269 609 269 588 201.5 c 128,-1,13
 567 134 567 134 526.5 89.5 c 128,-1,14
 486 45 486 45 428 22.5 c 128,-1,15
 370 0 370 0 297 0 c 2,16,-1
 50 0 l 1,17,-1
 50 56 l 1,18,-1
 59 56 l 2,19,20
 88 56 88 56 106.5 63 c 128,-1,21
 125 70 125 70 125 92 c 2,22,-1
 125 618 l 2,23,24
 125 640 125 640 106.5 647 c 128,-1,25
 88 654 88 654 59 654 c 2,26,-1
 50 654 l 1,4,-1
293 656 m 2,27,-1
 215 656 l 1,28,-1
 215 54 l 1,29,-1
 293 54 l 2,30,31
 349 54 349 54 390.5 72 c 128,-1,32
 432 90 432 90 459 127 c 128,-1,33
 486 164 486 164 499.5 222 c 128,-1,34
 513 280 513 280 513 359 c 0,35,36
 513 439 513 439 499.5 495 c 128,-1,37
 486 551 486 551 459 587 c 128,-1,38
 432 623 432 623 390.5 639.5 c 128,-1,39
 349 656 349 656 293 656 c 2,27,-1
EndSplineSet
EndChar

StartChar: Oslash
Encoding: 216 216 224
Width: 665
GlyphClass: 2
Flags: W
AnchorPoint: "Anchor-0" 332 731 basechar 0
LayerCount: 2
Fore
SplineSet
333 677 m 0,0,1
 288 677 288 677 253 658 c 128,-1,2
 218 639 218 639 194.5 599.5 c 128,-1,3
 171 560 171 560 159 499.5 c 128,-1,4
 147 439 147 439 147 355 c 0,5,6
 147 267 147 267 158 205 c 128,-1,7
 169 143 169 143 192 105.5 c 128,-1,8
 215 68 215 68 250 50.5 c 128,-1,9
 285 33 285 33 333 33 c 0,10,11
 378 33 378 33 412.5 52 c 128,-1,12
 447 71 447 71 470.5 110.5 c 128,-1,13
 494 150 494 150 506 210.5 c 128,-1,14
 518 271 518 271 518 355 c 0,15,16
 518 444 518 444 507 505.5 c 128,-1,17
 496 567 496 567 473 604.5 c 128,-1,18
 450 642 450 642 415 659.5 c 128,-1,19
 380 677 380 677 333 677 c 0,0,1
333 -23 m 0,20,21
 269 -23 269 -23 217 1.5 c 128,-1,22
 165 26 165 26 127.5 74 c 128,-1,23
 90 122 90 122 70 192.5 c 128,-1,24
 50 263 50 263 50 355 c 0,25,26
 50 449 50 449 70.5 519.5 c 128,-1,27
 91 590 91 590 128.5 637.5 c 128,-1,28
 166 685 166 685 218 709 c 128,-1,29
 270 733 270 733 333 733 c 256,30,31
 396 733 396 733 447.5 709 c 128,-1,32
 499 685 499 685 536.5 637.5 c 128,-1,33
 574 590 574 590 594.5 519.5 c 128,-1,34
 615 449 615 449 615 355 c 0,35,36
 615 262 615 262 595 191 c 128,-1,37
 575 120 575 120 537.5 72.5 c 128,-1,38
 500 25 500 25 448 1 c 128,-1,39
 396 -23 396 -23 333 -23 c 0,20,21
-1 -20 m 1,40,-1
 592 730 l 1,41,-1
 666 730 l 1,42,-1
 73 -20 l 1,43,-1
 -1 -20 l 1,40,-1
EndSplineSet
EndChar

StartChar: Thorn
Encoding: 222 222 226
Width: 607
GlyphClass: 1
Flags: W
LayerCount: 2
Fore
SplineSet
306 710 m 1,0,-1
 50 710 l 1,1,-1
 50 654 l 1,2,-1
 59 654 l 2,3,4
 88 654 88 654 106.5 647 c 128,-1,5
 125 640 125 640 125 617 c 2,6,-1
 125 92 l 2,7,8
 125 70 125 70 106.5 63 c 128,-1,9
 88 56 88 56 59 56 c 2,10,-1
 50 56 l 1,11,-1
 50 0 l 1,12,-1
 306 0 l 1,13,-1
 306 56 l 1,14,-1
 289 56 l 2,15,16
 275 56 275 56 261.5 56.5 c 128,-1,17
 248 57 248 57 237.5 58.5 c 128,-1,18
 227 60 227 60 221 61.5 c 128,-1,19
 215 63 215 63 215 66 c 2,20,-1
 215 644 l 2,21,22
 215 647 215 647 221 648.5 c 128,-1,23
 227 650 227 650 237.5 651.5 c 128,-1,24
 248 653 248 653 261.5 653.5 c 128,-1,25
 275 654 275 654 289 654 c 2,26,-1
 306 654 l 1,27,-1
 306 710 l 1,0,-1
557 367 m 0,28,29
 557 429 557 429 529 471 c 128,-1,30
 501 513 501 513 452 535 c 128,-1,31
 403 557 403 557 338 557 c 2,32,-1
 185 557 l 1,33,-1
 185 503 l 1,34,-1
 333 503 l 2,35,36
 374 503 374 503 403 487.5 c 128,-1,37
 432 472 432 472 447.5 442 c 128,-1,38
 463 412 463 412 463 366 c 0,39,40
 463 323 463 323 447.5 291 c 128,-1,41
 432 259 432 259 402.5 242.5 c 128,-1,42
 373 226 373 226 332 226 c 2,43,-1
 189 226 l 1,44,-1
 189 172 l 1,45,-1
 337 172 l 2,46,47
 400 172 400 172 450 195.5 c 128,-1,48
 500 219 500 219 528.5 262.5 c 128,-1,49
 557 306 557 306 557 367 c 0,28,29
EndSplineSet
EndChar

StartChar: Hbar
Encoding: 294 294 228
Width: 714
GlyphClass: 1
Flags: W
LayerCount: 2
Fore
SplineSet
185 365 m 1,0,-1
 525 365 l 1,1,-1
 525 317 l 1,2,-1
 185 317 l 1,3,-1
 185 365 l 1,0,-1
47 0 m 1,4,-1
 47 56 l 1,5,-1
 56 56 l 2,6,7
 85 56 85 56 103.5 63 c 128,-1,8
 122 70 122 70 122 93 c 2,9,-1
 122 618 l 2,10,11
 122 640 122 640 103.5 647 c 128,-1,12
 85 654 85 654 56 654 c 2,13,-1
 47 654 l 1,14,-1
 47 710 l 1,15,-1
 287 710 l 1,16,-1
 287 654 l 1,17,-1
 280 654 l 2,18,19
 268 654 268 654 256 653.5 c 128,-1,20
 244 653 244 653 234 651.5 c 128,-1,21
 224 650 224 650 218 648.5 c 128,-1,22
 212 647 212 647 212 644 c 2,23,-1
 212 66 l 2,24,25
 212 63 212 63 218 61.5 c 128,-1,26
 224 60 224 60 234.5 58.5 c 128,-1,27
 245 57 245 57 257 56.5 c 128,-1,28
 269 56 269 56 279 56 c 2,29,-1
 287 56 l 1,30,-1
 287 0 l 1,31,-1
 47 0 l 1,4,-1
428 0 m 1,32,-1
 428 56 l 1,33,-1
 435 56 l 2,34,35
 445 56 445 56 457 56.5 c 128,-1,36
 469 57 469 57 479 58.5 c 128,-1,37
 489 60 489 60 495.5 61.5 c 128,-1,38
 502 63 502 63 502 66 c 2,39,-1
 502 644 l 2,40,41
 502 647 502 647 495.5 648.5 c 128,-1,42
 489 650 489 650 479 651.5 c 128,-1,43
 469 653 469 653 457.5 653.5 c 128,-1,44
 446 654 446 654 435 654 c 2,45,-1
 428 654 l 1,46,-1
 428 710 l 1,47,-1
 667 710 l 1,48,-1
 667 654 l 1,49,-1
 658 654 l 2,50,51
 630 654 630 654 611 647 c 128,-1,52
 592 640 592 640 592 617 c 2,53,-1
 592 92 l 2,54,55
 592 70 592 70 611 63 c 128,-1,56
 630 56 630 56 658 56 c 2,57,-1
 667 56 l 1,58,-1
 667 0 l 1,59,-1
 428 0 l 1,32,-1
39 485 m 1,60,-1
 39 532 l 1,61,-1
 675 532 l 1,62,-1
 675 485 l 1,63,-1
 39 485 l 1,60,-1
EndSplineSet
EndChar

StartChar: Ldot
Encoding: 319 319 230
Width: 555
GlyphClass: 1
Flags: W
LayerCount: 2
Fore
SplineSet
300 710 m 1,0,-1
 50 710 l 1,1,-1
 50 654 l 1,2,-1
 59 654 l 2,3,4
 88 654 88 654 106.5 647 c 128,-1,5
 125 640 125 640 125 617 c 2,6,-1
 125 92 l 2,7,8
 125 70 125 70 106.5 63 c 128,-1,9
 88 56 88 56 59 56 c 2,10,-1
 50 56 l 1,11,-1
 50 0 l 1,12,-1
 510 0 l 1,13,-1
 510 221 l 1,14,-1
 450 221 l 1,15,-1
 438 99 l 2,16,17
 436 81 436 81 425.5 71 c 128,-1,18
 415 61 415 61 393.5 57.5 c 128,-1,19
 372 54 372 54 337 54 c 2,20,-1
 215 54 l 1,21,-1
 215 617 l 2,22,23
 215 640 215 640 235.5 647 c 128,-1,24
 256 654 256 654 287 654 c 2,25,-1
 300 654 l 1,26,-1
 300 710 l 1,0,-1
449 356 m 256,27,28
 416 356 416 356 394.5 377 c 128,-1,29
 373 398 373 398 373 432 c 0,30,31
 373 468 373 468 394.5 488 c 128,-1,32
 416 508 416 508 449 508 c 256,33,34
 482 508 482 508 503.5 488 c 128,-1,35
 525 468 525 468 525 432 c 0,36,37
 525 398 525 398 503.5 377 c 128,-1,38
 482 356 482 356 449 356 c 256,27,28
EndSplineSet
Ligature2: "Ligature Substitution lookup 5 subtable" L periodcentered
EndChar

StartChar: Lslash
Encoding: 321 321 231
Width: 555
GlyphClass: 1
Flags: W
LayerCount: 2
Fore
SplineSet
26 189 m 1,0,-1
 431 480 l 1,1,-1
 431 546 l 1,2,-1
 26 255 l 1,3,-1
 26 189 l 1,0,-1
300 710 m 1,4,-1
 50 710 l 1,5,-1
 50 654 l 1,6,-1
 59 654 l 2,7,8
 88 654 88 654 106.5 647 c 128,-1,9
 125 640 125 640 125 617 c 2,10,-1
 125 92 l 2,11,12
 125 70 125 70 106.5 63 c 128,-1,13
 88 56 88 56 59 56 c 2,14,-1
 50 56 l 1,15,-1
 50 0 l 1,16,-1
 510 0 l 1,17,-1
 510 233 l 1,18,-1
 450 233 l 1,19,-1
 438 99 l 2,20,21
 437 81 437 81 426 71 c 128,-1,22
 415 61 415 61 393.5 57.5 c 128,-1,23
 372 54 372 54 337 54 c 2,24,-1
 215 54 l 1,25,-1
 215 617 l 2,26,27
 215 640 215 640 235.5 647 c 128,-1,28
 256 654 256 654 287 654 c 2,29,-1
 300 654 l 1,30,-1
 300 710 l 1,4,-1
EndSplineSet
EndChar

StartChar: Eng
Encoding: 330 330 232
Width: 693
GlyphClass: 1
Flags: W
LayerCount: 2
Fore
SplineSet
578 -29 m 2,0,1
 578 -89 578 -89 563.5 -131.5 c 128,-1,2
 549 -174 549 -174 523 -200 c 128,-1,3
 497 -226 497 -226 461.5 -238 c 128,-1,4
 426 -250 426 -250 384 -250 c 0,5,6
 351 -250 351 -250 326.5 -244.5 c 128,-1,7
 302 -239 302 -239 288 -232 c 1,8,-1
 288 -169 l 1,9,10
 299 -174 299 -174 313 -179 c 128,-1,11
 327 -184 327 -184 344.5 -187 c 128,-1,12
 362 -190 362 -190 381 -190 c 0,13,14
 424 -190 424 -190 453 -175 c 128,-1,15
 482 -160 482 -160 497.5 -122.5 c 128,-1,16
 513 -85 513 -85 513 -20 c 2,17,-1
 513 52 l 1,18,-1
 541 -43 l 1,19,-1
 170 675 l 1,20,-1
 189 675 l 1,21,-1
 189 66 l 2,22,23
 189 63 189 63 199.5 60.5 c 128,-1,24
 210 58 210 58 225 57 c 128,-1,25
 240 56 240 56 253 56 c 2,26,-1
 264 56 l 1,27,-1
 264 0 l 1,28,-1
 49 0 l 1,29,-1
 49 56 l 1,30,-1
 58 56 l 2,31,32
 77 56 77 56 92 59 c 128,-1,33
 107 62 107 62 116 70 c 128,-1,34
 125 78 125 78 125 93 c 2,35,-1
 125 618 l 2,36,37
 125 633 125 633 116 640.5 c 128,-1,38
 107 648 107 648 92 651 c 128,-1,39
 77 654 77 654 58 654 c 2,40,-1
 49 654 l 1,41,-1
 49 710 l 1,42,-1
 247 710 l 1,43,-1
 569 76 l 1,44,-1
 514 72 l 1,45,-1
 514 643 l 2,46,47
 514 648 514 648 503 650 c 128,-1,48
 492 652 492 652 477.5 653 c 128,-1,49
 463 654 463 654 450 654 c 2,50,-1
 439 654 l 1,51,-1
 439 710 l 1,52,-1
 654 710 l 1,53,-1
 654 654 l 1,54,-1
 645 654 l 2,55,56
 626 654 626 654 611 651 c 128,-1,57
 596 648 596 648 587 640.5 c 128,-1,58
 578 633 578 633 578 618 c 2,59,-1
 578 -29 l 2,0,1
EndSplineSet
Substitution2: "'ss07' Style Set 7 lookup 67 subtable" Eng.afr
EndChar

StartChar: OE
Encoding: 338 338 233
Width: 895
GlyphClass: 1
Flags: W
LayerCount: 2
Fore
SplineSet
507 389 m 1,0,1
 546 392 546 392 585.5 394 c 128,-1,2
 625 396 625 396 664.5 398.5 c 128,-1,3
 704 401 704 401 743 403 c 1,4,-1
 743 328 l 1,5,6
 704 330 704 330 664.5 332 c 128,-1,7
 625 334 625 334 585.5 336.5 c 128,-1,8
 546 339 546 339 507 341 c 1,9,-1
 507 389 l 1,0,1
351 54 m 2,10,-1
 430 54 l 1,11,-1
 430 656 l 1,12,-1
 351 656 l 2,13,14
 299 656 299 656 261 638 c 128,-1,15
 223 620 223 620 197.5 583 c 128,-1,16
 172 546 172 546 159.5 488.5 c 128,-1,17
 147 431 147 431 147 351 c 0,18,19
 147 272 147 272 159.5 215.5 c 128,-1,20
 172 159 172 159 197.5 123 c 128,-1,21
 223 87 223 87 261 70.5 c 128,-1,22
 299 54 299 54 351 54 c 2,10,-1
347 0 m 2,23,24
 277 0 277 0 222 21 c 128,-1,25
 167 42 167 42 128.5 85 c 128,-1,26
 90 128 90 128 70 194.5 c 128,-1,27
 50 261 50 261 50 351 c 256,28,29
 50 441 50 441 70 508.5 c 128,-1,30
 90 576 90 576 128.5 620.5 c 128,-1,31
 167 665 167 665 222 687.5 c 128,-1,32
 277 710 277 710 347 710 c 2,33,-1
 821 710 l 1,34,-1
 821 512 l 1,35,-1
 763 512 l 1,36,-1
 752 611 l 2,37,38
 750 629 750 629 739.5 638.5 c 128,-1,39
 729 648 729 648 708 652 c 128,-1,40
 687 656 687 656 653 656 c 2,41,-1
 520 656 l 1,42,-1
 520 54 l 1,43,-1
 667 54 l 2,44,45
 693 54 693 54 711.5 56 c 128,-1,46
 730 58 730 58 742 63 c 128,-1,47
 754 68 754 68 760.5 77 c 128,-1,48
 767 86 767 86 768 99 c 2,49,-1
 780 223 l 1,50,-1
 840 223 l 1,51,-1
 840 0 l 1,52,-1
 347 0 l 2,23,24
EndSplineSet
EndChar

StartChar: Tbar
Encoding: 358 358 234
Width: 611
GlyphClass: 1
Flags: W
LayerCount: 2
Fore
SplineSet
111 334 m 1,0,-1
 498 334 l 1,1,-1
 498 280 l 1,2,-1
 111 280 l 1,3,-1
 111 334 l 1,0,-1
260 93 m 2,4,-1
 260 656 l 1,5,-1
 218 656 l 2,6,7
 180 656 180 656 157 650.5 c 128,-1,8
 134 645 134 645 123.5 633 c 128,-1,9
 113 621 113 621 111 600 c 2,10,-1
 100 477 l 1,11,-1
 43 477 l 1,12,-1
 43 710 l 1,13,-1
 568 710 l 1,14,-1
 568 477 l 1,15,-1
 511 477 l 1,16,-1
 500 600 l 2,17,18
 499 621 499 621 488 633 c 128,-1,19
 477 645 477 645 454 650.5 c 128,-1,20
 431 656 431 656 392 656 c 2,21,-1
 350 656 l 1,22,-1
 350 93 l 2,23,24
 350 70 350 70 371.5 63 c 128,-1,25
 393 56 393 56 421 56 c 2,26,-1
 437 56 l 1,27,-1
 437 0 l 1,28,-1
 174 0 l 1,29,-1
 174 56 l 1,30,-1
 190 56 l 2,31,32
 219 56 219 56 239.5 63 c 128,-1,33
 260 70 260 70 260 93 c 2,4,-1
EndSplineSet
EndChar

StartChar: Bhook
Encoding: 385 385 235
Width: 686
GlyphClass: 2
Flags: W
AnchorPoint: "Anchor-1" 370 0 basechar 0
AnchorPoint: "Anchor-0" 343 741 basechar 0
LayerCount: 2
Fore
SplineSet
265 397 m 1,0,-1
 396 397 l 2,1,2
 439 397 439 397 465.5 411.5 c 128,-1,3
 492 426 492 426 504.5 456.5 c 128,-1,4
 517 487 517 487 517 533 c 0,5,6
 517 574 517 574 505 601 c 128,-1,7
 493 628 493 628 466.5 642 c 128,-1,8
 440 656 440 656 397 656 c 2,9,-1
 301 656 l 1,10,-1
 301 54 l 1,11,-1
 404 54 l 2,12,13
 452 54 452 54 482 70 c 128,-1,14
 512 86 512 86 526.5 118 c 128,-1,15
 541 150 541 150 541 197 c 0,16,17
 541 247 541 247 525.5 280 c 128,-1,18
 510 313 510 313 477.5 330 c 128,-1,19
 445 347 445 347 395 347 c 2,20,-1
 265 347 l 1,21,-1
 265 397 l 1,0,-1
187 710 m 2,22,-1
 404 710 l 2,23,24
 454 710 454 710 492.5 699.5 c 128,-1,25
 531 689 531 689 557 667 c 128,-1,26
 583 645 583 645 596.5 612 c 128,-1,27
 610 579 610 579 610 534 c 0,28,29
 610 490 610 490 592 454 c 128,-1,30
 574 418 574 418 539 397 c 128,-1,31
 504 376 504 376 451 374 c 1,32,-1
 458 388 l 1,33,-1
 458 355 l 1,34,-1
 451 372 l 1,35,36
 511 369 511 369 552 346.5 c 128,-1,37
 593 324 593 324 614 286 c 128,-1,38
 635 248 635 248 635 196 c 0,39,40
 635 146 635 146 620.5 109 c 128,-1,41
 606 72 606 72 577.5 48 c 128,-1,42
 549 24 549 24 507.5 12 c 128,-1,43
 466 0 466 0 412 0 c 2,44,-1
 136 0 l 1,45,-1
 136 56 l 1,46,-1
 145 56 l 2,47,48
 174 56 174 56 192.5 63 c 128,-1,49
 211 70 211 70 211 92 c 2,50,-1
 211 656 l 1,51,-1
 190 656 l 2,52,53
 156 656 156 656 134 647.5 c 128,-1,54
 112 639 112 639 101 615.5 c 128,-1,55
 90 592 90 592 90 547 c 0,56,57
 90 522 90 522 92.5 502 c 128,-1,58
 95 482 95 482 99 468 c 1,59,-1
 11 468 l 1,60,61
 9 478 9 478 7.5 496.5 c 128,-1,62
 6 515 6 515 6 533 c 0,63,64
 6 597 6 597 26.5 635.5 c 128,-1,65
 47 674 47 674 87.5 692 c 128,-1,66
 128 710 128 710 187 710 c 2,22,-1
EndSplineSet
EndChar

StartChar: Dhook
Encoding: 394 394 236
Width: 745
GlyphClass: 2
Flags: W
AnchorPoint: "Anchor-1" 373 0 basechar 0
AnchorPoint: "Anchor-0" 350 741 basechar 0
LayerCount: 2
Fore
SplineSet
187 710 m 2,0,-1
 383 710 l 2,1,2
 456 710 456 710 514 689 c 128,-1,3
 572 668 572 668 612.5 625 c 128,-1,4
 653 582 653 582 674 515.5 c 128,-1,5
 695 449 695 449 695 359 c 256,6,7
 695 269 695 269 674 201.5 c 128,-1,8
 653 134 653 134 612.5 89.5 c 128,-1,9
 572 45 572 45 514 22.5 c 128,-1,10
 456 0 456 0 383 0 c 2,11,-1
 136 0 l 1,12,-1
 136 56 l 1,13,-1
 145 56 l 2,14,15
 174 56 174 56 192.5 63 c 128,-1,16
 211 70 211 70 211 92 c 2,17,-1
 211 656 l 1,18,-1
 190 656 l 2,19,20
 156 656 156 656 134 647.5 c 128,-1,21
 112 639 112 639 101 615.5 c 128,-1,22
 90 592 90 592 90 547 c 0,23,24
 90 522 90 522 92.5 502 c 128,-1,25
 95 482 95 482 99 468 c 1,26,-1
 11 468 l 1,27,28
 9 478 9 478 7.5 496.5 c 128,-1,29
 6 515 6 515 6 533 c 0,30,31
 6 597 6 597 26.5 635.5 c 128,-1,32
 47 674 47 674 87.5 692 c 128,-1,33
 128 710 128 710 187 710 c 2,0,-1
379 656 m 2,34,-1
 301 656 l 1,35,-1
 301 54 l 1,36,-1
 379 54 l 2,37,38
 435 54 435 54 476.5 72 c 128,-1,39
 518 90 518 90 545 127 c 128,-1,40
 572 164 572 164 585.5 222 c 128,-1,41
 599 280 599 280 599 359 c 0,42,43
 599 439 599 439 585.5 495 c 128,-1,44
 572 551 572 551 545 587 c 128,-1,45
 518 623 518 623 476.5 639.5 c 128,-1,46
 435 656 435 656 379 656 c 2,34,-1
EndSplineSet
EndChar

StartChar: Schwa
Encoding: 399 399 237
Width: 617
GlyphClass: 1
Flags: W
LayerCount: 2
Fore
SplineSet
296 748 m 0,0,1
 379 748 379 748 440 706 c 128,-1,2
 501 664 501 664 534 580 c 128,-1,3
 567 496 567 496 567 371 c 0,4,5
 567 278 567 278 548.5 204.5 c 128,-1,6
 530 131 530 131 495.5 80.5 c 128,-1,7
 461 30 461 30 412.5 3.5 c 128,-1,8
 364 -23 364 -23 304 -23 c 0,9,10
 214 -23 214 -23 159 24 c 128,-1,11
 104 71 104 71 78.5 162.5 c 128,-1,12
 53 254 53 254 51 389 c 1,13,-1
 507 389 l 1,14,-1
 507 331 l 1,15,-1
 134 331 l 1,16,-1
 146 344 l 1,17,18
 149 262 149 262 158.5 203 c 128,-1,19
 168 144 168 144 186 106.5 c 128,-1,20
 204 69 204 69 233 51 c 128,-1,21
 262 33 262 33 305 33 c 0,22,23
 344 33 344 33 374.5 52.5 c 128,-1,24
 405 72 405 72 426.5 112.5 c 128,-1,25
 448 153 448 153 459 217 c 128,-1,26
 470 281 470 281 470 370 c 0,27,28
 470 461 470 461 457.5 523 c 128,-1,29
 445 585 445 585 422 622 c 128,-1,30
 399 659 399 659 366.5 675.5 c 128,-1,31
 334 692 334 692 294 692 c 0,32,33
 246 692 246 692 211 675.5 c 128,-1,34
 176 659 176 659 150 628 c 128,-1,35
 124 597 124 597 101 555 c 1,36,-1
 50 589 l 1,37,38
 76 638 76 638 111 673.5 c 128,-1,39
 146 709 146 709 192 728.5 c 128,-1,40
 238 748 238 748 296 748 c 0,0,1
EndSplineSet
EndChar

StartChar: Khook
Encoding: 408 408 238
Width: 662
GlyphClass: 2
Flags: W
AnchorPoint: "Anchor-1" 338 0 basechar 0
AnchorPoint: "Anchor-0" 377 741 basechar 0
LayerCount: 2
Fore
SplineSet
50 0 m 1,0,-1
 50 56 l 1,1,-1
 59 56 l 2,2,3
 88 56 88 56 106.5 63 c 128,-1,4
 125 70 125 70 125 93 c 2,5,-1
 125 618 l 2,6,7
 125 640 125 640 106.5 647 c 128,-1,8
 88 654 88 654 59 654 c 2,9,-1
 50 654 l 1,10,-1
 50 710 l 1,11,-1
 287 710 l 1,12,-1
 287 654 l 1,13,-1
 279 654 l 2,14,15
 270 654 270 654 258 653.5 c 128,-1,16
 246 653 246 653 236.5 651.5 c 128,-1,17
 227 650 227 650 221 648.5 c 128,-1,18
 215 647 215 647 215 644 c 2,19,-1
 215 66 l 2,20,21
 215 63 215 63 221 61.5 c 128,-1,22
 227 60 227 60 236.5 58.5 c 128,-1,23
 246 57 246 57 257.5 56.5 c 128,-1,24
 269 56 269 56 278 56 c 2,25,-1
 285 56 l 1,26,-1
 285 0 l 1,27,-1
 50 0 l 1,0,-1
586 719 m 0,28,29
 617 719 617 719 635.5 704 c 128,-1,30
 654 689 654 689 662 661.5 c 128,-1,31
 670 634 670 634 670 596 c 256,32,33
 670 558 670 558 664.5 522 c 128,-1,34
 659 486 659 486 651 468 c 1,35,-1
 565 468 l 1,36,37
 571 481 571 481 576 502.5 c 128,-1,38
 581 524 581 524 584 551 c 128,-1,39
 587 578 587 578 587 606 c 0,40,41
 587 628 587 628 581.5 638.5 c 128,-1,42
 576 649 576 649 563 649 c 0,43,44
 555 649 555 649 544.5 640 c 128,-1,45
 534 631 534 631 515 608 c 128,-1,46
 496 585 496 585 461 542 c 2,47,-1
 309 353 l 1,48,-1
 325 396 l 1,49,-1
 553 79 l 2,50,51
 561 69 561 69 570 64 c 128,-1,52
 579 59 579 59 591 57.5 c 128,-1,53
 603 56 603 56 616 56 c 2,54,-1
 638 56 l 1,55,-1
 638 0 l 1,56,-1
 384 0 l 1,57,-1
 384 56 l 1,58,-1
 391 56 l 2,59,60
 407 56 407 56 422 57 c 128,-1,61
 437 58 437 58 447 60.5 c 128,-1,62
 457 63 457 63 457 66 c 2,63,-1
 254 349 l 1,64,-1
 254 370 l 1,65,-1
 414 571 l 2,66,67
 450 616 450 616 474 645 c 128,-1,68
 498 674 498 674 515.5 690 c 128,-1,69
 533 706 533 706 550 712.5 c 128,-1,70
 567 719 567 719 586 719 c 0,28,29
EndSplineSet
EndChar

StartChar: Yhook
Encoding: 435 435 239
Width: 629
GlyphClass: 2
Flags: W
AnchorPoint: "Anchor-1" 296 0 basechar 0
AnchorPoint: "Anchor-0" 321 741 basechar 0
LayerCount: 2
Fore
SplineSet
419 571 m 2,0,1
 446 632 446 632 466.5 663.5 c 128,-1,2
 487 695 487 695 507.5 707 c 128,-1,3
 528 719 528 719 555 719 c 0,4,5
 587 719 587 719 607.5 704 c 128,-1,6
 628 689 628 689 637.5 661.5 c 128,-1,7
 647 634 647 634 647 596 c 256,8,9
 647 558 647 558 641.5 522 c 128,-1,10
 636 486 636 486 628 468 c 1,11,-1
 542 468 l 1,12,13
 548 481 548 481 553 502.5 c 128,-1,14
 558 524 558 524 561 551 c 128,-1,15
 564 578 564 578 564 606 c 0,16,17
 564 629 564 629 558 639 c 128,-1,18
 552 649 552 649 540 649 c 0,19,20
 530 649 530 649 522 641.5 c 128,-1,21
 514 634 514 634 502 611 c 128,-1,22
 490 588 490 588 468 542 c 2,23,-1
 334 261 l 1,24,-1
 342 293 l 1,25,-1
 342 92 l 2,26,27
 342 70 342 70 361.5 63 c 128,-1,28
 381 56 381 56 410 56 c 2,29,-1
 427 56 l 1,30,-1
 427 0 l 1,31,-1
 166 0 l 1,32,-1
 166 56 l 1,33,-1
 183 56 l 2,34,35
 213 56 213 56 232.5 63 c 128,-1,36
 252 70 252 70 252 92 c 2,37,-1
 252 293 l 1,38,-1
 258 261 l 1,39,-1
 90 607 l 2,40,41
 81 626 81 626 73 636 c 128,-1,42
 65 646 65 646 55.5 650 c 128,-1,43
 46 654 46 654 31 654 c 2,44,-1
 21 654 l 1,45,-1
 21 710 l 1,46,-1
 238 710 l 1,47,-1
 238 654 l 1,48,-1
 226 654 l 2,49,50
 212 654 212 654 198 652.5 c 128,-1,51
 184 651 184 651 174.5 649 c 128,-1,52
 165 647 165 647 165 643 c 2,53,-1
 333 296 l 1,54,-1
 296 296 l 1,55,-1
 419 571 l 2,0,1
EndSplineSet
EndChar

StartChar: Germandbls
Encoding: 7838 7838 240
Width: 731
GlyphClass: 1
Flags: W
LayerCount: 2
Fore
SplineSet
503 44 m 0,0,1
 538 44 538 44 557 58 c 128,-1,2
 576 72 576 72 584 103 c 128,-1,3
 592 134 592 134 592 184 c 0,4,5
 592 233 592 233 581.5 262.5 c 128,-1,6
 571 292 571 292 549 310.5 c 128,-1,7
 527 329 527 329 492 343.5 c 128,-1,8
 457 358 457 358 408 376 c 1,9,-1
 408 431 l 1,10,-1
 538 674 l 1,11,-1
 558 651 l 1,12,-1
 336 651 l 2,13,14
 293 651 293 651 267.5 638.5 c 128,-1,15
 242 626 242 626 228.5 602 c 128,-1,16
 215 578 215 578 210.5 545 c 128,-1,17
 206 512 206 512 206 472 c 2,18,-1
 206 0 l 1,19,-1
 40 0 l 1,20,-1
 40 56 l 1,21,-1
 49 56 l 2,22,23
 78 56 78 56 97 63 c 128,-1,24
 116 70 116 70 116 92 c 2,25,-1
 116 465 l 2,26,27
 116 525 116 525 126.5 570.5 c 128,-1,28
 137 616 137 616 161.5 647 c 128,-1,29
 186 678 186 678 226 694 c 128,-1,30
 266 710 266 710 325 710 c 2,31,-1
 610 710 l 1,32,-1
 610 644 l 1,33,-1
 477 397 l 1,34,-1
 448 419 l 1,35,36
 499 402 499 402 542 385 c 128,-1,37
 585 368 585 368 616 344 c 128,-1,38
 647 320 647 320 664.5 282.5 c 128,-1,39
 682 245 682 245 682 187 c 0,40,41
 682 125 682 125 664.5 80 c 128,-1,42
 647 35 647 35 610 10.5 c 128,-1,43
 573 -14 573 -14 516 -14 c 0,44,45
 462 -14 462 -14 428 8 c 128,-1,46
 394 30 394 30 376.5 75 c 128,-1,47
 359 120 359 120 355 190 c 1,48,-1
 369 158 l 1,49,-1
 361 0 l 1,50,-1
 302 0 l 1,51,-1
 302 227 l 1,52,-1
 366 227 l 1,53,54
 375 185 375 185 385 151 c 128,-1,55
 395 117 395 117 409.5 93 c 128,-1,56
 424 69 424 69 446.5 56.5 c 128,-1,57
 469 44 469 44 503 44 c 0,0,1
EndSplineSet
EndChar

StartChar: Delta
Encoding: 916 916 241
Width: 634
GlyphClass: 1
Flags: W
LayerCount: 2
Fore
SplineSet
44 0 m 1,0,-1
 44 84 l 1,1,-1
 267 710 l 1,2,-1
 368 710 l 1,3,-1
 590 84 l 1,4,-1
 590 0 l 1,5,-1
 44 0 l 1,0,-1
512 55 m 1,6,-1
 287 700 l 1,7,-1
 321 694 l 1,8,-1
 94 49 l 1,9,-1
 70 79 l 1,10,-1
 540 79 l 1,11,-1
 512 55 l 1,6,-1
EndSplineSet
EndChar

StartChar: Omega
Encoding: 937 937 242
Width: 729
GlyphClass: 1
Flags: W
LayerCount: 2
Fore
SplineSet
364 735 m 0,0,1
 301 735 301 735 250 718.5 c 128,-1,2
 199 702 199 702 163 669 c 128,-1,3
 127 636 127 636 108 586 c 128,-1,4
 89 536 89 536 89 469 c 0,5,6
 89 431 89 431 95.5 394.5 c 128,-1,7
 102 358 102 358 116 320.5 c 128,-1,8
 130 283 130 283 153.5 241.5 c 128,-1,9
 177 200 177 200 211.5 153 c 128,-1,10
 246 106 246 106 293 51 c 1,11,-1
 300 70 l 1,12,-1
 207 70 l 2,13,14
 174 70 174 70 153.5 74 c 128,-1,15
 133 78 133 78 123 88 c 128,-1,16
 113 98 113 98 111 115 c 2,17,-1
 100 214 l 1,18,-1
 42 214 l 1,19,-1
 42 0 l 1,20,-1
 319 0 l 1,21,-1
 319 100 l 1,22,23
 285 147 285 147 259.5 188.5 c 128,-1,24
 234 230 234 230 217.5 271 c 128,-1,25
 201 312 201 312 193 358 c 128,-1,26
 185 404 185 404 185 460 c 0,27,28
 185 541 185 541 206 588 c 128,-1,29
 227 635 227 635 267 655 c 128,-1,30
 307 675 307 675 364 675 c 0,31,32
 422 675 422 675 461.5 655 c 128,-1,33
 501 635 501 635 522 588 c 128,-1,34
 543 541 543 541 543 460 c 0,35,36
 543 404 543 404 535 358 c 128,-1,37
 527 312 527 312 511 271 c 128,-1,38
 495 230 495 230 470 188.5 c 128,-1,39
 445 147 445 147 410 100 c 1,40,-1
 410 0 l 1,41,-1
 687 0 l 1,42,-1
 687 214 l 1,43,-1
 629 214 l 1,44,-1
 618 115 l 2,45,46
 616 97 616 97 605.5 87 c 128,-1,47
 595 77 595 77 573.5 73.5 c 128,-1,48
 552 70 552 70 518 70 c 2,49,-1
 428 70 l 1,50,-1
 436 51 l 1,51,52
 483 107 483 107 517.5 153.5 c 128,-1,53
 552 200 552 200 575.5 241.5 c 128,-1,54
 599 283 599 283 613 320.5 c 128,-1,55
 627 358 627 358 633 394.5 c 128,-1,56
 639 431 639 431 639 469 c 0,57,58
 639 536 639 536 620 586 c 128,-1,59
 601 636 601 636 565 669 c 128,-1,60
 529 702 529 702 478.5 718.5 c 128,-1,61
 428 735 428 735 364 735 c 0,0,1
EndSplineSet
EndChar

StartChar: Djecyr
Encoding: 1026 1026 244
Width: 756
GlyphClass: 2
Flags: W
AnchorPoint: "Anchor-0" 295 741 basechar 0
LayerCount: 2
Fore
SplineSet
710 195 m 0,0,1
 710 142 710 142 696 101.5 c 128,-1,2
 682 61 682 61 655.5 33 c 128,-1,3
 629 5 629 5 591.5 -9 c 128,-1,4
 554 -23 554 -23 506 -23 c 1,5,-1
 506 33 l 1,6,7
 541 33 541 33 565.5 49.5 c 128,-1,8
 590 66 590 66 603 102 c 128,-1,9
 616 138 616 138 616 195 c 0,10,11
 616 275 616 275 579 315 c 128,-1,12
 542 355 542 355 475 355 c 0,13,14
 434 355 434 355 394 346 c 128,-1,15
 354 337 354 337 320 318 c 1,16,-1
 320 376 l 1,17,18
 357 393 357 393 395.5 402 c 128,-1,19
 434 411 434 411 480 411 c 0,20,21
 559 411 559 411 609.5 384.5 c 128,-1,22
 660 358 660 358 685 309.5 c 128,-1,23
 710 261 710 261 710 195 c 0,0,1
164 0 m 1,24,-1
 164 56 l 1,25,-1
 180 56 l 2,26,27
 209 56 209 56 229.5 63 c 128,-1,28
 250 70 250 70 250 92 c 2,29,-1
 250 656 l 1,30,-1
 218 656 l 2,31,32
 180 656 180 656 157 650.5 c 128,-1,33
 134 645 134 645 123.5 633 c 128,-1,34
 113 621 113 621 111 600 c 2,35,-1
 100 477 l 1,36,-1
 43 477 l 1,37,-1
 43 710 l 1,38,-1
 573 710 l 1,39,-1
 573 492 l 1,40,-1
 516 492 l 1,41,-1
 505 600 l 2,42,43
 503 621 503 621 492.5 633 c 128,-1,44
 482 645 482 645 459 650.5 c 128,-1,45
 436 656 436 656 397 656 c 2,46,-1
 340 656 l 1,47,-1
 340 66 l 2,48,49
 340 63 340 63 351.5 60.5 c 128,-1,50
 363 58 363 58 380 57 c 128,-1,51
 397 56 397 56 411 56 c 2,52,-1
 427 56 l 1,53,-1
 427 0 l 1,54,-1
 164 0 l 1,24,-1
EndSplineSet
EndChar

StartChar: Eukrcyr
Encoding: 1028 1028 245
Width: 632
GlyphClass: 2
Flags: W
AnchorPoint: "Anchor-1" 329 0 basechar 0
AnchorPoint: "Anchor-0" 329 741 basechar 0
LayerCount: 2
Fore
SplineSet
132 389 m 1,0,1
 156 390 156 390 179.5 391 c 128,-1,2
 203 392 203 392 226.5 393.5 c 128,-1,3
 250 395 250 395 273.5 396 c 128,-1,4
 297 397 297 397 320.5 398.5 c 128,-1,5
 344 400 344 400 367.5 401 c 128,-1,6
 391 402 391 402 415 403 c 1,7,-1
 415 328 l 1,8,9
 392 329 392 329 369 329.5 c 128,-1,10
 346 330 346 330 322 331 c 128,-1,11
 298 332 298 332 274.5 333.5 c 128,-1,12
 251 335 251 335 227 336 c 128,-1,13
 203 337 203 337 179.5 338.5 c 128,-1,14
 156 340 156 340 132 341 c 1,15,-1
 132 389 l 1,0,1
326 677 m 0,16,17
 282 677 282 677 248.5 658.5 c 128,-1,18
 215 640 215 640 192.5 601 c 128,-1,19
 170 562 170 562 158.5 501.5 c 128,-1,20
 147 441 147 441 147 357 c 0,21,22
 147 274 147 274 158.5 213 c 128,-1,23
 170 152 170 152 193 112 c 128,-1,24
 216 72 216 72 251 52.5 c 128,-1,25
 286 33 286 33 333 33 c 0,26,27
 388 33 388 33 425 59.5 c 128,-1,28
 462 86 462 86 485.5 128 c 128,-1,29
 509 170 509 170 525 218 c 1,30,-1
 579 195 l 1,31,32
 560 130 560 130 526.5 81 c 128,-1,33
 493 32 493 32 443.5 4.5 c 128,-1,34
 394 -23 394 -23 327 -23 c 0,35,36
 264 -23 264 -23 213 1 c 128,-1,37
 162 25 162 25 125.5 73 c 128,-1,38
 89 121 89 121 69.5 192 c 128,-1,39
 50 263 50 263 50 357 c 0,40,41
 50 450 50 450 70 520.5 c 128,-1,42
 90 591 90 591 126.5 638.5 c 128,-1,43
 163 686 163 686 213 709.5 c 128,-1,44
 263 733 263 733 322 733 c 0,45,46
 378 733 378 733 419.5 707.5 c 128,-1,47
 461 682 461 682 486.5 631.5 c 128,-1,48
 512 581 512 581 520 505 c 1,49,-1
 496 534 l 1,50,-1
 508 720 l 1,51,-1
 571 720 l 1,52,-1
 571 473 l 1,53,-1
 504 473 l 1,54,55
 486 542 486 542 460.5 587 c 128,-1,56
 435 632 435 632 401.5 654.5 c 128,-1,57
 368 677 368 677 326 677 c 0,16,17
EndSplineSet
Substitution2: "'ss01' Style Set 1 lookup 61 subtable" Ieukran.alt1
EndChar

StartChar: Yukrcyr
Encoding: 1031 1031 248
Width: 349
GlyphClass: 2
Flags: W
AnchorPoint: "Anchor-1" 175 0 basechar 0
AnchorPoint: "Anchor-0" 175 910 basechar 0
LayerCount: 2
Fore
SplineSet
149 859 m 0,0,1
 149 825 149 825 131.5 811 c 128,-1,2
 114 797 114 797 87 797 c 0,3,4
 59 797 59 797 42 811 c 128,-1,5
 25 825 25 825 25 859 c 0,6,7
 25 891 25 891 42 905.5 c 128,-1,8
 59 920 59 920 87 920 c 0,9,10
 114 920 114 920 131.5 905.5 c 128,-1,11
 149 891 149 891 149 859 c 0,0,1
324 859 m 0,12,13
 324 825 324 825 306.5 811 c 128,-1,14
 289 797 289 797 262 797 c 0,15,16
 234 797 234 797 217 811 c 128,-1,17
 200 825 200 825 200 859 c 0,18,19
 200 891 200 891 217 905.5 c 128,-1,20
 234 920 234 920 262 920 c 0,21,22
 289 920 289 920 306.5 905.5 c 128,-1,23
 324 891 324 891 324 859 c 0,12,13
130 93 m 2,24,-1
 130 618 l 2,25,26
 130 640 130 640 111 647 c 128,-1,27
 92 654 92 654 63 654 c 2,28,-1
 47 654 l 1,29,-1
 47 710 l 1,30,-1
 302 710 l 1,31,-1
 302 654 l 1,32,-1
 286 654 l 2,33,34
 258 654 258 654 239 647 c 128,-1,35
 220 640 220 640 220 617 c 2,36,-1
 220 92 l 2,37,38
 220 70 220 70 239 63 c 128,-1,39
 258 56 258 56 286 56 c 2,40,-1
 302 56 l 1,41,-1
 302 0 l 1,42,-1
 47 0 l 1,43,-1
 47 56 l 1,44,-1
 63 56 l 2,45,46
 92 56 92 56 111 63 c 128,-1,47
 130 70 130 70 130 93 c 2,24,-1
EndSplineSet
EndChar

StartChar: Ljecyr
Encoding: 1033 1033 250
Width: 906
GlyphClass: 2
Flags: W
AnchorPoint: "Anchor-0" 362 741 basechar 0
LayerCount: 2
Fore
SplineSet
204 710 m 1,0,-1
 480 710 l 1,1,-1
 480 652 l 1,2,-1
 204 652 l 1,3,-1
 204 710 l 1,0,-1
162 275 m 2,4,-1
 183 618 l 2,5,6
 185 640 185 640 166 647 c 128,-1,7
 147 654 147 654 117 654 c 2,8,-1
 108 654 l 1,9,-1
 108 710 l 1,10,-1
 257 710 l 1,11,-1
 230 270 l 2,12,13
 224 167 224 167 203 104.5 c 128,-1,14
 182 42 182 42 147.5 13.5 c 128,-1,15
 113 -15 113 -15 65 -15 c 0,16,17
 51 -15 51 -15 36.5 -11.5 c 128,-1,18
 22 -8 22 -8 10 0 c 1,19,-1
 10 82 l 1,20,21
 22 75 22 75 35 71 c 128,-1,22
 48 67 48 67 60 67 c 0,23,24
 90 67 90 67 111 88 c 128,-1,25
 132 109 132 109 144.5 154.5 c 128,-1,26
 157 200 157 200 162 275 c 2,4,-1
646 0 m 2,27,-1
 376 0 l 1,28,-1
 376 56 l 1,29,-1
 383 56 l 2,30,31
 398 56 398 56 413.5 57 c 128,-1,32
 429 58 429 58 439.5 60.5 c 128,-1,33
 450 63 450 63 450 66 c 2,34,-1
 450 710 l 1,35,-1
 615 710 l 1,36,-1
 615 654 l 1,37,-1
 606 654 l 2,38,39
 578 654 578 654 559 647 c 128,-1,40
 540 640 540 640 540 618 c 2,41,-1
 540 54 l 1,42,-1
 641 54 l 2,43,44
 681 54 681 54 710 73 c 128,-1,45
 739 92 739 92 755 128 c 128,-1,46
 771 164 771 164 771 215 c 0,47,48
 771 267 771 267 755 301.5 c 128,-1,49
 739 336 739 336 710 353.5 c 128,-1,50
 681 371 681 371 641 371 c 2,51,-1
 495 371 l 1,52,-1
 495 425 l 1,53,-1
 646 425 l 2,54,55
 711 425 711 425 760 401 c 128,-1,56
 809 377 809 377 837 330.5 c 128,-1,57
 865 284 865 284 865 215 c 0,58,59
 865 148 865 148 836 99.5 c 128,-1,60
 807 51 807 51 757.5 25.5 c 128,-1,61
 708 0 708 0 646 0 c 2,27,-1
EndSplineSet
EndChar

StartChar: Njecyr
Encoding: 1034 1034 251
Width: 936
GlyphClass: 2
Flags: W
AnchorPoint: "Anchor-0" 346 741 basechar 0
LayerCount: 2
Fore
SplineSet
188 417 m 1,0,-1
 503 417 l 1,1,-1
 503 363 l 1,2,-1
 188 363 l 1,3,-1
 188 417 l 1,0,-1
50 0 m 1,4,-1
 50 56 l 1,5,-1
 59 56 l 2,6,7
 88 56 88 56 106.5 63 c 128,-1,8
 125 70 125 70 125 93 c 2,9,-1
 125 618 l 2,10,11
 125 640 125 640 106.5 647 c 128,-1,12
 88 654 88 654 59 654 c 2,13,-1
 50 654 l 1,14,-1
 50 710 l 1,15,-1
 290 710 l 1,16,-1
 290 654 l 1,17,-1
 282 654 l 2,18,19
 268 654 268 654 252 653 c 128,-1,20
 236 652 236 652 225.5 650 c 128,-1,21
 215 648 215 648 215 644 c 2,22,-1
 215 66 l 2,23,24
 215 63 215 63 225.5 60.5 c 128,-1,25
 236 58 236 58 252 57 c 128,-1,26
 268 56 268 56 282 56 c 2,27,-1
 290 56 l 1,28,-1
 290 0 l 1,29,-1
 50 0 l 1,4,-1
406 0 m 1,30,-1
 406 56 l 1,31,-1
 413 56 l 2,32,33
 428 56 428 56 443.5 57 c 128,-1,34
 459 58 459 58 469.5 60.5 c 128,-1,35
 480 63 480 63 480 66 c 2,36,-1
 480 644 l 2,37,38
 480 648 480 648 469.5 650 c 128,-1,39
 459 652 459 652 443.5 653 c 128,-1,40
 428 654 428 654 413 654 c 2,41,-1
 406 654 l 1,42,-1
 406 710 l 1,43,-1
 645 710 l 1,44,-1
 645 654 l 1,45,-1
 636 654 l 2,46,47
 617 654 617 654 602 651 c 128,-1,48
 587 648 587 648 578.5 640.5 c 128,-1,49
 570 633 570 633 570 617 c 2,50,-1
 570 54 l 1,51,-1
 671 54 l 2,52,53
 710 54 710 54 739.5 72 c 128,-1,54
 769 90 769 90 785 125 c 128,-1,55
 801 160 801 160 801 210 c 256,56,57
 801 260 801 260 785 294 c 128,-1,58
 769 328 769 328 740 345.5 c 128,-1,59
 711 363 711 363 671 363 c 2,60,-1
 525 363 l 1,61,-1
 525 417 l 1,62,-1
 676 417 l 2,63,64
 741 417 741 417 790 393 c 128,-1,65
 839 369 839 369 867 323 c 128,-1,66
 895 277 895 277 895 210 c 0,67,68
 895 144 895 144 866 97 c 128,-1,69
 837 50 837 50 787.5 25 c 128,-1,70
 738 0 738 0 676 0 c 2,71,-1
 406 0 l 1,30,-1
EndSplineSet
EndChar

StartChar: Tshecyr
Encoding: 1035 1035 252
Width: 795
GlyphClass: 2
Flags: W
AnchorPoint: "Anchor-0" 286 741 basechar 0
LayerCount: 2
Fore
SplineSet
481 411 m 0,0,1
 555 411 555 411 601 393 c 128,-1,2
 647 375 647 375 668.5 335.5 c 128,-1,3
 690 296 690 296 690 231 c 2,4,-1
 690 92 l 2,5,6
 690 70 690 70 709 63 c 128,-1,7
 728 56 728 56 756 56 c 2,8,-1
 765 56 l 1,9,-1
 765 0 l 1,10,-1
 600 0 l 1,11,-1
 600 226 l 2,12,13
 600 270 600 270 588 298 c 128,-1,14
 576 326 576 326 548.5 339.5 c 128,-1,15
 521 353 521 353 476 353 c 0,16,17
 438 353 438 353 396 345 c 128,-1,18
 354 337 354 337 320 318 c 1,19,-1
 320 376 l 1,20,21
 357 393 357 393 398 402 c 128,-1,22
 439 411 439 411 481 411 c 0,0,1
164 0 m 1,23,-1
 164 56 l 1,24,-1
 180 56 l 2,25,26
 209 56 209 56 229.5 63 c 128,-1,27
 250 70 250 70 250 92 c 2,28,-1
 250 656 l 1,29,-1
 218 656 l 2,30,31
 180 656 180 656 157 650.5 c 128,-1,32
 134 645 134 645 123.5 633 c 128,-1,33
 113 621 113 621 111 600 c 2,34,-1
 100 477 l 1,35,-1
 43 477 l 1,36,-1
 43 710 l 1,37,-1
 573 710 l 1,38,-1
 573 492 l 1,39,-1
 516 492 l 1,40,-1
 505 600 l 2,41,42
 503 621 503 621 492.5 633 c 128,-1,43
 482 645 482 645 459 650.5 c 128,-1,44
 436 656 436 656 397 656 c 2,45,-1
 340 656 l 1,46,-1
 340 66 l 2,47,48
 340 63 340 63 351.5 60.5 c 128,-1,49
 363 58 363 58 380 57 c 128,-1,50
 397 56 397 56 411 56 c 2,51,-1
 427 56 l 1,52,-1
 427 0 l 1,53,-1
 164 0 l 1,23,-1
EndSplineSet
EndChar

StartChar: Dzhecyr
Encoding: 1039 1039 253
Width: 712
GlyphClass: 2
Flags: W
AnchorPoint: "Anchor-0" 356 741 basechar 0
LayerCount: 2
Fore
SplineSet
50 710 m 1,0,-1
 289 710 l 1,1,-1
 289 654 l 1,2,-1
 282 654 l 2,3,4
 268 654 268 654 252.5 653 c 128,-1,5
 237 652 237 652 226 650 c 128,-1,6
 215 648 215 648 215 644 c 2,7,-1
 215 0 l 1,8,-1
 50 0 l 1,9,-1
 50 56 l 1,10,-1
 59 56 l 2,11,12
 88 56 88 56 106.5 63 c 128,-1,13
 125 70 125 70 125 93 c 2,14,-1
 125 618 l 2,15,16
 125 640 125 640 106.5 647 c 128,-1,17
 88 654 88 654 59 654 c 2,18,-1
 50 654 l 1,19,-1
 50 710 l 1,0,-1
422 710 m 1,20,-1
 662 710 l 1,21,-1
 662 654 l 1,22,-1
 653 654 l 2,23,24
 625 654 625 654 606 647 c 128,-1,25
 587 640 587 640 587 617 c 2,26,-1
 587 92 l 2,27,28
 587 70 587 70 606 63 c 128,-1,29
 625 56 625 56 653 56 c 2,30,-1
 662 56 l 1,31,-1
 662 0 l 1,32,-1
 497 0 l 1,33,-1
 497 644 l 2,34,35
 497 648 497 648 486.5 650 c 128,-1,36
 476 652 476 652 460.5 653 c 128,-1,37
 445 654 445 654 430 654 c 2,38,-1
 422 654 l 1,39,-1
 422 710 l 1,20,-1
164 0 m 1,40,-1
 164 58 l 1,41,-1
 548 58 l 1,42,-1
 548 0 l 1,43,-1
 503 0 l 2,44,45
 464 0 464 0 441 -5.5 c 128,-1,46
 418 -11 418 -11 407.5 -23 c 128,-1,47
 397 -35 397 -35 395 -56 c 2,48,-1
 384 -179 l 1,49,-1
 328 -179 l 1,50,-1
 317 -56 l 2,51,52
 315 -35 315 -35 304.5 -23 c 128,-1,53
 294 -11 294 -11 271 -5.5 c 128,-1,54
 248 0 248 0 209 0 c 2,55,-1
 164 0 l 1,40,-1
EndSplineSet
EndChar

StartChar: Becyr
Encoding: 1041 1041 257
Width: 586
GlyphClass: 2
Flags: W
AnchorPoint: "Anchor-0" 299 741 basechar 0
LayerCount: 2
Fore
SplineSet
50 710 m 1,0,-1
 498 710 l 1,1,-1
 498 512 l 1,2,-1
 440 512 l 1,3,-1
 429 611 l 2,4,5
 427 629 427 629 416.5 638.5 c 128,-1,6
 406 648 406 648 384.5 652 c 128,-1,7
 363 656 363 656 330 656 c 2,8,-1
 215 656 l 1,9,-1
 215 54 l 1,10,-1
 316 54 l 2,11,12
 355 54 355 54 384.5 72 c 128,-1,13
 414 90 414 90 430 125 c 128,-1,14
 446 160 446 160 446 211 c 0,15,16
 446 260 446 260 430 293.5 c 128,-1,17
 414 327 414 327 385 344 c 128,-1,18
 356 361 356 361 316 361 c 2,19,-1
 170 361 l 1,20,-1
 170 415 l 1,21,-1
 321 415 l 2,22,23
 386 415 386 415 435 391.5 c 128,-1,24
 484 368 484 368 512 322.5 c 128,-1,25
 540 277 540 277 540 210 c 0,26,27
 540 144 540 144 511 97 c 128,-1,28
 482 50 482 50 432.5 25 c 128,-1,29
 383 0 383 0 321 0 c 2,30,-1
 50 0 l 1,31,-1
 50 56 l 1,32,-1
 59 56 l 2,33,34
 89 56 89 56 107 63 c 128,-1,35
 125 70 125 70 125 92 c 2,36,-1
 125 618 l 2,37,38
 125 640 125 640 106.5 647 c 128,-1,39
 88 654 88 654 59 654 c 2,40,-1
 50 654 l 1,41,-1
 50 710 l 1,0,-1
EndSplineSet
EndChar

StartChar: Gecyr
Encoding: 1043 1043 259
Width: 553
GlyphClass: 2
Flags: W
AnchorPoint: "Anchor-0" 282 741 basechar 0
LayerCount: 2
Fore
SplineSet
215 656 m 1,0,-1
 215 92 l 2,1,2
 215 78 215 78 225.5 70 c 128,-1,3
 236 62 236 62 253.5 59 c 128,-1,4
 271 56 271 56 293 56 c 2,5,-1
 306 56 l 1,6,-1
 306 0 l 1,7,-1
 50 0 l 1,8,-1
 50 56 l 1,9,-1
 59 56 l 2,10,11
 88 56 88 56 106.5 63 c 128,-1,12
 125 70 125 70 125 93 c 2,13,-1
 125 618 l 2,14,15
 125 640 125 640 106.5 647 c 128,-1,16
 88 654 88 654 59 654 c 2,17,-1
 50 654 l 1,18,-1
 50 710 l 1,19,-1
 510 710 l 1,20,-1
 510 477 l 1,21,-1
 453 477 l 1,22,-1
 442 600 l 2,23,24
 441 618 441 618 430 630.5 c 128,-1,25
 419 643 419 643 397.5 649.5 c 128,-1,26
 376 656 376 656 342 656 c 2,27,-1
 215 656 l 1,0,-1
EndSplineSet
EndChar

StartChar: Decyr
Encoding: 1044 1044 261
Width: 700
GlyphClass: 2
Flags: W
AnchorPoint: "Anchor-0" 378 741 basechar 0
LayerCount: 2
Fore
SplineSet
216 710 m 1,0,-1
 515 710 l 1,1,-1
 515 652 l 1,2,-1
 216 652 l 1,3,-1
 216 710 l 1,0,-1
575 0 m 1,4,-1
 485 0 l 1,5,-1
 485 710 l 1,6,-1
 650 710 l 1,7,-1
 650 654 l 1,8,-1
 641 654 l 2,9,10
 613 654 613 654 594 647 c 128,-1,11
 575 640 575 640 575 618 c 2,12,-1
 575 0 l 1,4,-1
592 -56 m 2,13,14
 590 -35 590 -35 579.5 -23 c 128,-1,15
 569 -11 569 -11 546 -5.5 c 128,-1,16
 523 0 523 0 484 0 c 2,17,-1
 196 0 l 2,18,19
 157 0 157 0 134 -5.5 c 128,-1,20
 111 -11 111 -11 100.5 -23 c 128,-1,21
 90 -35 90 -35 88 -56 c 2,22,-1
 77 -179 l 1,23,-1
 20 -179 l 1,24,-1
 20 58 l 1,25,-1
 660 58 l 1,26,-1
 660 -179 l 1,27,-1
 603 -179 l 1,28,-1
 592 -56 l 2,13,14
151 30 m 1,29,-1
 68 30 l 1,30,31
 88 57 88 57 104 86 c 128,-1,32
 120 115 120 115 131.5 153 c 128,-1,33
 143 191 143 191 151.5 242.5 c 128,-1,34
 160 294 160 294 166 365 c 2,35,-1
 187 618 l 2,36,37
 189 640 189 640 170 647 c 128,-1,38
 151 654 151 654 121 654 c 2,39,-1
 112 654 l 1,40,-1
 112 710 l 1,41,-1
 263 710 l 1,42,-1
 234 360 l 2,43,44
 227 268 227 268 216 207 c 128,-1,45
 205 146 205 146 189 104.5 c 128,-1,46
 173 63 173 63 151 30 c 1,29,-1
EndSplineSet
Substitution2: "'locl' Localized Forms in Cyrillic lookup 12 subtable" De.bgr
EndChar

StartChar: Zhecyr
Encoding: 1046 1046 266
Width: 947
GlyphClass: 2
Flags: W
AnchorPoint: "Anchor-1" 464 0 basechar 0
AnchorPoint: "Anchor-0" 464 741 basechar 0
LayerCount: 2
Fore
SplineSet
677 0 m 1,0,-1
 677 56 l 1,1,-1
 684 56 l 2,2,3
 700 56 700 56 715 57 c 128,-1,4
 730 58 730 58 740 60.5 c 128,-1,5
 750 63 750 63 750 66 c 2,6,-1
 556 349 l 1,7,-1
 556 370 l 1,8,-1
 765 643 l 2,9,10
 765 647 765 647 755 649 c 128,-1,11
 745 651 745 651 729.5 652.5 c 128,-1,12
 714 654 714 654 697 654 c 2,13,-1
 689 654 l 1,14,-1
 689 710 l 1,15,-1
 906 710 l 1,16,-1
 906 654 l 1,17,-1
 882 654 l 2,18,19
 869 654 869 654 858 651.5 c 128,-1,20
 847 649 847 649 837.5 643 c 128,-1,21
 828 637 828 637 820 626 c 2,22,-1
 611 353 l 1,23,-1
 628 394 l 1,24,-1
 844 79 l 2,25,26
 852 69 852 69 861 64 c 128,-1,27
 870 59 870 59 881.5 57.5 c 128,-1,28
 893 56 893 56 907 56 c 2,29,-1
 929 56 l 1,30,-1
 929 0 l 1,31,-1
 677 0 l 1,0,-1
267 0 m 1,32,-1
 18 0 l 1,33,-1
 18 56 l 1,34,-1
 40 56 l 2,35,36
 55 56 55 56 66 57.5 c 128,-1,37
 77 59 77 59 86.5 64 c 128,-1,38
 96 69 96 69 103 79 c 2,39,-1
 319 394 l 1,40,-1
 331 353 l 1,41,-1
 122 626 l 2,42,43
 114 637 114 637 104.5 643 c 128,-1,44
 95 649 95 649 84.5 651.5 c 128,-1,45
 74 654 74 654 60 654 c 2,46,-1
 36 654 l 1,47,-1
 36 710 l 1,48,-1
 255 710 l 1,49,-1
 255 654 l 1,50,-1
 247 654 l 2,51,52
 230 654 230 654 214.5 652.5 c 128,-1,53
 199 651 199 651 189 649 c 128,-1,54
 179 647 179 647 179 643 c 2,55,-1
 388 370 l 1,56,-1
 388 349 l 1,57,-1
 194 66 l 2,58,59
 194 63 194 63 204 60.5 c 128,-1,60
 214 58 214 58 229 57 c 128,-1,61
 244 56 244 56 260 56 c 2,62,-1
 267 56 l 1,63,-1
 267 0 l 1,32,-1
357 0 m 1,64,-1
 357 56 l 1,65,-1
 364 56 l 2,66,67
 373 56 373 56 384 56.5 c 128,-1,68
 395 57 395 57 405 58.5 c 128,-1,69
 415 60 415 60 421 61.5 c 128,-1,70
 427 63 427 63 427 66 c 2,71,-1
 427 644 l 2,72,73
 427 647 427 647 421 648.5 c 128,-1,74
 415 650 415 650 405 651.5 c 128,-1,75
 395 653 395 653 383.5 653.5 c 128,-1,76
 372 654 372 654 362 654 c 2,77,-1
 355 654 l 1,78,-1
 355 710 l 1,79,-1
 589 710 l 1,80,-1
 589 654 l 1,81,-1
 582 654 l 2,82,83
 572 654 572 654 560.5 653.5 c 128,-1,84
 549 653 549 653 539 651.5 c 128,-1,85
 529 650 529 650 523 648.5 c 128,-1,86
 517 647 517 647 517 644 c 2,87,-1
 517 66 l 2,88,89
 517 63 517 63 523 61.5 c 128,-1,90
 529 60 529 60 539 58.5 c 128,-1,91
 549 57 549 57 560 56.5 c 128,-1,92
 571 56 571 56 580 56 c 2,93,-1
 587 56 l 1,94,-1
 587 0 l 1,95,-1
 357 0 l 1,64,-1
EndSplineSet
EndChar

StartChar: Zecyr
Encoding: 1047 1047 269
Width: 607
GlyphClass: 2
Flags: W
AnchorPoint: "Anchor-1" 328 0 basechar 0
AnchorPoint: "Anchor-0" 328 741 basechar 0
LayerCount: 2
Fore
SplineSet
345 -23 m 0,0,1
 281 -23 281 -23 233.5 2 c 128,-1,2
 186 27 186 27 157.5 76.5 c 128,-1,3
 129 126 129 126 121 200 c 1,4,-1
 145 171 l 1,5,-1
 133 -10 l 1,6,-1
 70 -10 l 1,7,-1
 70 232 l 1,8,-1
 137 232 l 1,9,10
 155 165 155 165 183 120.5 c 128,-1,11
 211 76 211 76 249.5 54.5 c 128,-1,12
 288 33 288 33 335 33 c 0,13,14
 380 33 380 33 408 51 c 128,-1,15
 436 69 436 69 449 104 c 128,-1,16
 462 139 462 139 462 190 c 0,17,18
 462 235 462 235 449 268 c 128,-1,19
 436 301 436 301 404.5 318 c 128,-1,20
 373 335 373 335 317 332 c 0,21,22
 304 331 304 331 290 330.5 c 128,-1,23
 276 330 276 330 262.5 329.5 c 128,-1,24
 249 329 249 329 236 328 c 1,25,-1
 236 403 l 1,26,27
 250 403 250 403 263.5 402.5 c 128,-1,28
 277 402 277 402 290.5 401 c 128,-1,29
 304 400 304 400 318 400 c 0,30,31
 362 398 362 398 389 416 c 128,-1,32
 416 434 416 434 427.5 466 c 128,-1,33
 439 498 439 498 439 540 c 0,34,35
 439 581 439 581 428.5 612 c 128,-1,36
 418 643 418 643 394 660 c 128,-1,37
 370 677 370 677 330 677 c 0,38,39
 286 677 286 677 251.5 655.5 c 128,-1,40
 217 634 217 634 191 589.5 c 128,-1,41
 165 545 165 545 147 478 c 1,42,-1
 80 478 l 1,43,-1
 80 720 l 1,44,-1
 143 720 l 1,45,-1
 155 539 l 1,46,-1
 131 510 l 1,47,48
 137 564 137 564 153.5 605.5 c 128,-1,49
 170 647 170 647 196 675.5 c 128,-1,50
 222 704 222 704 258.5 718.5 c 128,-1,51
 295 733 295 733 340 733 c 0,52,53
 403 733 403 733 445.5 710 c 128,-1,54
 488 687 488 687 510 646 c 128,-1,55
 532 605 532 605 532 550 c 0,56,57
 532 496 532 496 509.5 458 c 128,-1,58
 487 420 487 420 450 398.5 c 128,-1,59
 413 377 413 377 368 371 c 1,60,-1
 374 392 l 1,61,-1
 374 344 l 1,62,-1
 368 369 l 1,63,64
 427 365 427 365 469 343 c 128,-1,65
 511 321 511 321 533.5 283 c 128,-1,66
 556 245 556 245 556 190 c 0,67,68
 556 141 556 141 542 102 c 128,-1,69
 528 63 528 63 501 35 c 128,-1,70
 474 7 474 7 434.5 -8 c 128,-1,71
 395 -23 395 -23 345 -23 c 0,0,1
EndSplineSet
EndChar

StartChar: Icyr
Encoding: 1048 1048 270
Width: 728
GlyphClass: 2
Flags: W
AnchorPoint: "Anchor-0" 364 741 basechar 0
LayerCount: 2
Fore
SplineSet
173 162 m 1,0,-1
 513 592 l 1,1,-1
 555 557 l 1,2,-1
 215 127 l 1,3,-1
 173 162 l 1,0,-1
50 0 m 1,4,-1
 50 56 l 1,5,-1
 59 56 l 2,6,7
 88 56 88 56 106.5 63 c 128,-1,8
 125 70 125 70 125 93 c 2,9,-1
 125 618 l 2,10,11
 125 640 125 640 106.5 647 c 128,-1,12
 88 654 88 654 59 654 c 2,13,-1
 50 654 l 1,14,-1
 50 710 l 1,15,-1
 290 710 l 1,16,-1
 290 654 l 1,17,-1
 282 654 l 2,18,19
 268 654 268 654 252 653 c 128,-1,20
 236 652 236 652 225.5 650 c 128,-1,21
 215 648 215 648 215 644 c 2,22,-1
 215 66 l 2,23,24
 215 63 215 63 225.5 60.5 c 128,-1,25
 236 58 236 58 252 57 c 128,-1,26
 268 56 268 56 282 56 c 2,27,-1
 290 56 l 1,28,-1
 290 0 l 1,29,-1
 50 0 l 1,4,-1
438 0 m 1,30,-1
 438 56 l 1,31,-1
 445 56 l 2,32,33
 460 56 460 56 475.5 57 c 128,-1,34
 491 58 491 58 502 60.5 c 128,-1,35
 513 63 513 63 513 66 c 2,36,-1
 513 644 l 2,37,38
 513 648 513 648 502 650 c 128,-1,39
 491 652 491 652 475.5 653 c 128,-1,40
 460 654 460 654 445 654 c 2,41,-1
 438 654 l 1,42,-1
 438 710 l 1,43,-1
 678 710 l 1,44,-1
 678 654 l 1,45,-1
 669 654 l 2,46,47
 641 654 641 654 622 647 c 128,-1,48
 603 640 603 640 603 617 c 2,49,-1
 603 92 l 2,50,51
 603 70 603 70 622 63 c 128,-1,52
 641 56 641 56 669 56 c 2,53,-1
 678 56 l 1,54,-1
 678 0 l 1,55,-1
 438 0 l 1,30,-1
EndSplineSet
EndChar

StartChar: Elcyr
Encoding: 1051 1051 276
Width: 690
GlyphClass: 2
Flags: W
AnchorPoint: "Anchor-0" 380 741 basechar 0
LayerCount: 2
Fore
SplineSet
204 710 m 1,0,-1
 505 710 l 1,1,-1
 505 652 l 1,2,-1
 204 652 l 1,3,-1
 204 710 l 1,0,-1
401 0 m 1,4,-1
 401 56 l 1,5,-1
 408 56 l 2,6,7
 423 56 423 56 438.5 57 c 128,-1,8
 454 58 454 58 464.5 60.5 c 128,-1,9
 475 63 475 63 475 66 c 2,10,-1
 475 710 l 1,11,-1
 640 710 l 1,12,-1
 640 654 l 1,13,-1
 631 654 l 2,14,15
 603 654 603 654 584 647 c 128,-1,16
 565 640 565 640 565 617 c 2,17,-1
 565 92 l 2,18,19
 565 70 565 70 584 63 c 128,-1,20
 603 56 603 56 631 56 c 2,21,-1
 640 56 l 1,22,-1
 640 0 l 1,23,-1
 401 0 l 1,4,-1
162 275 m 2,24,-1
 183 618 l 2,25,26
 185 640 185 640 166 647 c 128,-1,27
 147 654 147 654 117 654 c 2,28,-1
 108 654 l 1,29,-1
 108 710 l 1,30,-1
 257 710 l 1,31,-1
 230 270 l 2,32,33
 224 167 224 167 203 104.5 c 128,-1,34
 182 42 182 42 147.5 13.5 c 128,-1,35
 113 -15 113 -15 65 -15 c 0,36,37
 51 -15 51 -15 36.5 -11.5 c 128,-1,38
 22 -8 22 -8 10 0 c 1,39,-1
 10 82 l 1,40,41
 22 75 22 75 35 71 c 128,-1,42
 48 67 48 67 60 67 c 0,43,44
 90 67 90 67 111 88 c 128,-1,45
 132 109 132 109 144.5 154.5 c 128,-1,46
 157 200 157 200 162 275 c 2,24,-1
EndSplineSet
Substitution2: "'locl' Localized Forms in Cyrillic lookup 12 subtable" El.bgr
EndChar

StartChar: Pecyr
Encoding: 1055 1055 281
Width: 712
GlyphClass: 2
Flags: W
AnchorPoint: "Anchor-0" 356 741 basechar 0
LayerCount: 2
Fore
SplineSet
186 710 m 1,0,-1
 526 710 l 1,1,-1
 526 652 l 1,2,-1
 186 652 l 1,3,-1
 186 710 l 1,0,-1
50 0 m 1,4,-1
 50 56 l 1,5,-1
 59 56 l 2,6,7
 88 56 88 56 106.5 63 c 128,-1,8
 125 70 125 70 125 93 c 2,9,-1
 125 618 l 2,10,11
 125 640 125 640 106.5 647 c 128,-1,12
 88 654 88 654 59 654 c 2,13,-1
 50 654 l 1,14,-1
 50 710 l 1,15,-1
 215 710 l 1,16,-1
 215 66 l 2,17,18
 215 63 215 63 225.5 60.5 c 128,-1,19
 236 58 236 58 252 57 c 128,-1,20
 268 56 268 56 282 56 c 2,21,-1
 290 56 l 1,22,-1
 290 0 l 1,23,-1
 50 0 l 1,4,-1
422 0 m 1,24,-1
 422 56 l 1,25,-1
 429 56 l 2,26,27
 444 56 444 56 459.5 57 c 128,-1,28
 475 58 475 58 486 60.5 c 128,-1,29
 497 63 497 63 497 66 c 2,30,-1
 497 710 l 1,31,-1
 662 710 l 1,32,-1
 662 654 l 1,33,-1
 653 654 l 2,34,35
 625 654 625 654 606 647 c 128,-1,36
 587 640 587 640 587 617 c 2,37,-1
 587 92 l 2,38,39
 587 70 587 70 606 63 c 128,-1,40
 625 56 625 56 653 56 c 2,41,-1
 662 56 l 1,42,-1
 662 0 l 1,43,-1
 422 0 l 1,24,-1
EndSplineSet
EndChar

StartChar: Ucyr
Encoding: 1059 1059 285
Width: 587
GlyphClass: 2
Flags: W
AnchorPoint: "Anchor-1" 194 0 basechar 0
AnchorPoint: "Anchor-0" 299 741 basechar 0
LayerCount: 2
Fore
SplineSet
341 200 m 2,0,1
 321 148 321 148 302 106.5 c 128,-1,2
 283 65 283 65 263.5 36 c 128,-1,3
 244 7 244 7 221 -8 c 128,-1,4
 198 -23 198 -23 169 -23 c 0,5,6
 150 -23 150 -23 135 -18.5 c 128,-1,7
 120 -14 120 -14 109 -5 c 1,8,-1
 109 77 l 1,9,10
 120 70 120 70 136 64.5 c 128,-1,11
 152 59 152 59 165 59 c 0,12,13
 196 59 196 59 217.5 75.5 c 128,-1,14
 239 92 239 92 257.5 127 c 128,-1,15
 276 162 276 162 296 218 c 2,16,-1
 446 631 l 2,17,18
 446 638 446 638 437 643 c 128,-1,19
 428 648 428 648 415 651 c 128,-1,20
 402 654 402 654 388 654 c 2,21,-1
 379 654 l 1,22,-1
 379 710 l 1,23,-1
 566 710 l 1,24,-1
 566 654 l 1,25,-1
 556 654 l 2,26,27
 543 654 543 654 532 649 c 128,-1,28
 521 644 521 644 512 632.5 c 128,-1,29
 503 621 503 621 495 600 c 2,30,-1
 341 200 l 2,0,1
329 217 m 1,31,-1
 275 130 l 1,32,-1
 90 607 l 2,33,34
 83 626 83 626 74.5 636 c 128,-1,35
 66 646 66 646 56 650 c 128,-1,36
 46 654 46 654 31 654 c 2,37,-1
 21 654 l 1,38,-1
 21 710 l 1,39,-1
 238 710 l 1,40,-1
 238 654 l 1,41,-1
 226 654 l 2,42,43
 212 654 212 654 198 652.5 c 128,-1,44
 184 651 184 651 174.5 649 c 128,-1,45
 165 647 165 647 165 643 c 2,46,-1
 329 217 l 1,31,-1
EndSplineSet
EndChar

StartChar: Efcyr
Encoding: 1060 1060 290
Width: 790
GlyphClass: 2
Flags: W
AnchorPoint: "Anchor-1" 395 0 basechar 0
AnchorPoint: "Anchor-0" 395 741 basechar 0
LayerCount: 2
Fore
SplineSet
350 68 m 2,0,-1
 350 643 l 2,1,2
 350 665 350 665 331 672 c 128,-1,3
 312 679 312 679 283 679 c 2,4,-1
 267 679 l 1,5,-1
 267 735 l 1,6,-1
 522 735 l 1,7,-1
 522 679 l 1,8,-1
 506 679 l 2,9,10
 478 679 478 679 459 672 c 128,-1,11
 440 665 440 665 440 642 c 2,12,-1
 440 67 l 2,13,14
 440 45 440 45 459 38 c 128,-1,15
 478 31 478 31 506 31 c 2,16,-1
 522 31 l 1,17,-1
 522 -25 l 1,18,-1
 267 -25 l 1,19,-1
 267 31 l 1,20,-1
 283 31 l 2,21,22
 312 31 312 31 331 38 c 128,-1,23
 350 45 350 45 350 68 c 2,0,-1
350 620 m 1,24,-1
 350 564 l 1,25,26
 276 564 276 564 230 539.5 c 128,-1,27
 184 515 184 515 163 469.5 c 128,-1,28
 142 424 142 424 142 361 c 0,29,30
 142 297 142 297 163 251 c 128,-1,31
 184 205 184 205 230 180.5 c 128,-1,32
 276 156 276 156 350 156 c 1,33,-1
 350 100 l 1,34,35
 249 100 249 100 181 132.5 c 128,-1,36
 113 165 113 165 79 223.5 c 128,-1,37
 45 282 45 282 45 360 c 256,38,39
 45 438 45 438 80 496.5 c 128,-1,40
 115 555 115 555 183 587.5 c 128,-1,41
 251 620 251 620 350 620 c 1,24,-1
440 100 m 1,42,-1
 440 156 l 1,43,44
 514 156 514 156 560 180.5 c 128,-1,45
 606 205 606 205 627 251 c 128,-1,46
 648 297 648 297 648 360 c 0,47,48
 648 424 648 424 627 469.5 c 128,-1,49
 606 515 606 515 560 539.5 c 128,-1,50
 514 564 514 564 440 564 c 1,51,-1
 440 620 l 1,52,53
 541 620 541 620 609 587.5 c 128,-1,54
 677 555 677 555 711 496.5 c 128,-1,55
 745 438 745 438 745 360 c 256,56,57
 745 282 745 282 710 223.5 c 128,-1,58
 675 165 675 165 607 132.5 c 128,-1,59
 539 100 539 100 440 100 c 1,42,-1
EndSplineSet
EndChar

StartChar: Tsecyr
Encoding: 1062 1062 292
Width: 712
GlyphClass: 2
Flags: W
AnchorPoint: "Anchor-0" 356 741 basechar 0
LayerCount: 2
Fore
SplineSet
185 0 m 1,0,-1
 185 58 l 1,1,-1
 525 58 l 1,2,-1
 525 0 l 1,3,-1
 185 0 l 1,0,-1
50 710 m 1,4,-1
 289 710 l 1,5,-1
 289 654 l 1,6,-1
 282 654 l 2,7,8
 268 654 268 654 252.5 653 c 128,-1,9
 237 652 237 652 226 650 c 128,-1,10
 215 648 215 648 215 644 c 2,11,-1
 215 0 l 1,12,-1
 50 0 l 1,13,-1
 50 56 l 1,14,-1
 59 56 l 2,15,16
 88 56 88 56 106.5 63 c 128,-1,17
 125 70 125 70 125 93 c 2,18,-1
 125 618 l 2,19,20
 125 640 125 640 106.5 647 c 128,-1,21
 88 654 88 654 59 654 c 2,22,-1
 50 654 l 1,23,-1
 50 710 l 1,4,-1
422 710 m 1,24,-1
 662 710 l 1,25,-1
 662 654 l 1,26,-1
 653 654 l 2,27,28
 625 654 625 654 606 647 c 128,-1,29
 587 640 587 640 587 618 c 2,30,-1
 587 0 l 1,31,-1
 497 0 l 1,32,-1
 497 644 l 2,33,34
 497 648 497 648 486.5 650 c 128,-1,35
 476 652 476 652 460.5 653 c 128,-1,36
 445 654 445 654 430 654 c 2,37,-1
 422 654 l 1,38,-1
 422 710 l 1,24,-1
468 0 m 1,39,-1
 468 58 l 1,40,-1
 672 58 l 1,41,-1
 672 -179 l 1,42,-1
 615 -179 l 1,43,-1
 604 -56 l 2,44,45
 602 -35 602 -35 591 -23 c 128,-1,46
 580 -11 580 -11 557.5 -5.5 c 128,-1,47
 535 0 535 0 496 0 c 2,48,-1
 468 0 l 1,39,-1
EndSplineSet
EndChar

StartChar: Checyr
Encoding: 1063 1063 293
Width: 690
GlyphClass: 2
Flags: W
AnchorPoint: "Anchor-0" 338 741 basechar 0
LayerCount: 2
Fore
SplineSet
401 0 m 1,0,-1
 401 56 l 1,1,-1
 408 56 l 2,2,3
 423 56 423 56 438.5 57 c 128,-1,4
 454 58 454 58 464.5 60.5 c 128,-1,5
 475 63 475 63 475 66 c 2,6,-1
 475 644 l 2,7,8
 475 648 475 648 464.5 650 c 128,-1,9
 454 652 454 652 438.5 653 c 128,-1,10
 423 654 423 654 408 654 c 2,11,-1
 401 654 l 1,12,-1
 401 710 l 1,13,-1
 640 710 l 1,14,-1
 640 654 l 1,15,-1
 631 654 l 2,16,17
 603 654 603 654 584 647 c 128,-1,18
 565 640 565 640 565 617 c 2,19,-1
 565 92 l 2,20,21
 565 70 565 70 584 63 c 128,-1,22
 603 56 603 56 631 56 c 2,23,-1
 640 56 l 1,24,-1
 640 0 l 1,25,-1
 401 0 l 1,0,-1
324 280 m 0,26,27
 248 280 248 280 199.5 298 c 128,-1,28
 151 316 151 316 128 355.5 c 128,-1,29
 105 395 105 395 105 460 c 2,30,-1
 105 618 l 2,31,32
 105 640 105 640 86.5 647 c 128,-1,33
 68 654 68 654 39 654 c 2,34,-1
 30 654 l 1,35,-1
 30 710 l 1,36,-1
 270 710 l 1,37,-1
 270 654 l 1,38,-1
 262 654 l 2,39,40
 248 654 248 654 232 653 c 128,-1,41
 216 652 216 652 205.5 650 c 128,-1,42
 195 648 195 648 195 644 c 2,43,-1
 195 465 l 2,44,45
 195 422 195 422 208.5 393.5 c 128,-1,46
 222 365 222 365 251.5 351.5 c 128,-1,47
 281 338 281 338 329 338 c 0,48,49
 370 338 370 338 415 346 c 128,-1,50
 460 354 460 354 495 373 c 1,51,-1
 495 315 l 1,52,53
 457 298 457 298 412.5 289 c 128,-1,54
 368 280 368 280 324 280 c 0,26,27
EndSplineSet
EndChar

StartChar: Shacyr
Encoding: 1064 1064 294
Width: 984
GlyphClass: 2
Flags: W
AnchorPoint: "Anchor-0" 482 741 basechar 0
LayerCount: 2
Fore
SplineSet
797 0 m 1,0,-1
 185 0 l 1,1,-1
 185 58 l 1,2,-1
 797 58 l 1,3,-1
 797 0 l 1,0,-1
934 710 m 1,4,-1
 934 654 l 1,5,-1
 925 654 l 2,6,7
 897 654 897 654 878 647 c 128,-1,8
 859 640 859 640 859 617 c 2,9,-1
 859 92 l 2,10,11
 859 70 859 70 878 63 c 128,-1,12
 897 56 897 56 925 56 c 2,13,-1
 934 56 l 1,14,-1
 934 0 l 1,15,-1
 769 0 l 1,16,-1
 769 644 l 2,17,18
 769 648 769 648 758.5 650 c 128,-1,19
 748 652 748 652 732.5 653 c 128,-1,20
 717 654 717 654 702 654 c 2,21,-1
 694 654 l 1,22,-1
 694 710 l 1,23,-1
 934 710 l 1,4,-1
290 710 m 1,24,-1
 290 654 l 1,25,-1
 283 654 l 2,26,27
 269 654 269 654 253 653 c 128,-1,28
 237 652 237 652 226 650 c 128,-1,29
 215 648 215 648 215 644 c 2,30,-1
 215 0 l 1,31,-1
 50 0 l 1,32,-1
 50 56 l 1,33,-1
 59 56 l 2,34,35
 88 56 88 56 106.5 63 c 128,-1,36
 125 70 125 70 125 93 c 2,37,-1
 125 618 l 2,38,39
 125 640 125 640 106.5 647 c 128,-1,40
 88 654 88 654 59 654 c 2,41,-1
 50 654 l 1,42,-1
 50 710 l 1,43,-1
 290 710 l 1,24,-1
373 710 m 1,44,-1
 611 710 l 1,45,-1
 611 654 l 1,46,-1
 604 654 l 2,47,48
 590 654 590 654 574.5 653 c 128,-1,49
 559 652 559 652 548 650 c 128,-1,50
 537 648 537 648 537 644 c 2,51,-1
 537 0 l 1,52,-1
 447 0 l 1,53,-1
 447 644 l 2,54,55
 447 648 447 648 436.5 650 c 128,-1,56
 426 652 426 652 410.5 653 c 128,-1,57
 395 654 395 654 380 654 c 2,58,-1
 373 654 l 1,59,-1
 373 710 l 1,44,-1
EndSplineSet
EndChar

StartChar: Shchacyr
Encoding: 1065 1065 295
Width: 984
GlyphClass: 2
Flags: W
AnchorPoint: "Anchor-0" 482 741 basechar 0
LayerCount: 2
Fore
SplineSet
797 0 m 1,0,-1
 185 0 l 1,1,-1
 185 58 l 1,2,-1
 797 58 l 1,3,-1
 797 0 l 1,0,-1
289 710 m 1,4,-1
 289 654 l 1,5,-1
 282 654 l 2,6,7
 268 654 268 654 252.5 653 c 128,-1,8
 237 652 237 652 226 650 c 128,-1,9
 215 648 215 648 215 644 c 2,10,-1
 215 0 l 1,11,-1
 50 0 l 1,12,-1
 50 56 l 1,13,-1
 59 56 l 2,14,15
 88 56 88 56 106.5 63 c 128,-1,16
 125 70 125 70 125 93 c 2,17,-1
 125 618 l 2,18,19
 125 640 125 640 106.5 647 c 128,-1,20
 88 654 88 654 59 654 c 2,21,-1
 50 654 l 1,22,-1
 50 710 l 1,23,-1
 289 710 l 1,4,-1
694 710 m 1,24,-1
 934 710 l 1,25,-1
 934 654 l 1,26,-1
 925 654 l 2,27,28
 897 654 897 654 878 647 c 128,-1,29
 859 640 859 640 859 618 c 2,30,-1
 859 0 l 1,31,-1
 769 0 l 1,32,-1
 769 644 l 2,33,34
 769 648 769 648 758.5 650 c 128,-1,35
 748 652 748 652 732.5 653 c 128,-1,36
 717 654 717 654 702 654 c 2,37,-1
 694 654 l 1,38,-1
 694 710 l 1,24,-1
768 0 m 2,39,-1
 740 0 l 1,40,-1
 740 58 l 1,41,-1
 944 58 l 1,42,-1
 944 -179 l 1,43,-1
 887 -179 l 1,44,-1
 876 -56 l 2,45,46
 874 -35 874 -35 863.5 -23 c 128,-1,47
 853 -11 853 -11 830 -5.5 c 128,-1,48
 807 0 807 0 768 0 c 2,39,-1
373 710 m 1,49,-1
 611 710 l 1,50,-1
 611 654 l 1,51,-1
 604 654 l 2,52,53
 590 654 590 654 574.5 653 c 128,-1,54
 559 652 559 652 548 650 c 128,-1,55
 537 648 537 648 537 644 c 2,56,-1
 537 0 l 1,57,-1
 447 0 l 1,58,-1
 447 644 l 2,59,60
 447 648 447 648 436.5 650 c 128,-1,61
 426 652 426 652 410.5 653 c 128,-1,62
 395 654 395 654 380 654 c 2,63,-1
 373 654 l 1,64,-1
 373 710 l 1,49,-1
EndSplineSet
EndChar

StartChar: Hardcyr
Encoding: 1066 1066 296
Width: 696
GlyphClass: 2
Flags: W
AnchorPoint: "Anchor-0" 244 741 basechar 0
LayerCount: 2
Fore
SplineSet
436 0 m 2,0,-1
 165 0 l 1,1,-1
 165 56 l 1,2,-1
 174 56 l 2,3,4
 203 56 203 56 221.5 63 c 128,-1,5
 240 70 240 70 240 92 c 2,6,-1
 240 656 l 1,7,-1
 218 656 l 2,8,9
 180 656 180 656 157 650.5 c 128,-1,10
 134 645 134 645 123.5 633 c 128,-1,11
 113 621 113 621 111 600 c 2,12,-1
 100 477 l 1,13,-1
 43 477 l 1,14,-1
 43 710 l 1,15,-1
 421 710 l 1,16,-1
 421 654 l 1,17,-1
 404 654 l 2,18,19
 385 654 385 654 368 653 c 128,-1,20
 351 652 351 652 340.5 650 c 128,-1,21
 330 648 330 648 330 644 c 2,22,-1
 330 54 l 1,23,-1
 431 54 l 2,24,25
 471 54 471 54 500 73 c 128,-1,26
 529 92 529 92 545 128 c 128,-1,27
 561 164 561 164 561 216 c 0,28,29
 561 267 561 267 545 301.5 c 128,-1,30
 529 336 529 336 500 353.5 c 128,-1,31
 471 371 471 371 431 371 c 2,32,-1
 285 371 l 1,33,-1
 285 425 l 1,34,-1
 436 425 l 2,35,36
 501 425 501 425 550 401 c 128,-1,37
 599 377 599 377 627 330.5 c 128,-1,38
 655 284 655 284 655 215 c 0,39,40
 655 148 655 148 626 99.5 c 128,-1,41
 597 51 597 51 547.5 25.5 c 128,-1,42
 498 0 498 0 436 0 c 2,0,-1
EndSplineSet
EndChar

StartChar: Ylongcyr
Encoding: 1067 1067 297
Width: 857
GlyphClass: 2
Flags: W
AnchorPoint: "Anchor-1" 420 0 basechar 0
AnchorPoint: "Anchor-0" 420 741 basechar 0
LayerCount: 2
Fore
SplineSet
642 66 m 2,0,-1
 642 644 l 2,1,2
 642 648 642 648 631.5 650 c 128,-1,3
 621 652 621 652 605.5 653 c 128,-1,4
 590 654 590 654 575 654 c 2,5,-1
 568 654 l 1,6,-1
 568 710 l 1,7,-1
 807 710 l 1,8,-1
 807 654 l 1,9,-1
 798 654 l 2,10,11
 770 654 770 654 751 647 c 128,-1,12
 732 640 732 640 732 617 c 2,13,-1
 732 92 l 2,14,15
 732 70 732 70 751 63 c 128,-1,16
 770 56 770 56 798 56 c 2,17,-1
 807 56 l 1,18,-1
 807 0 l 1,19,-1
 568 0 l 1,20,-1
 568 56 l 1,21,-1
 575 56 l 2,22,23
 590 56 590 56 605.5 57 c 128,-1,24
 621 58 621 58 631.5 60.5 c 128,-1,25
 642 63 642 63 642 66 c 2,0,-1
321 0 m 2,26,-1
 50 0 l 1,27,-1
 50 56 l 1,28,-1
 59 56 l 2,29,30
 88 56 88 56 106.5 63 c 128,-1,31
 125 70 125 70 125 93 c 2,32,-1
 125 618 l 2,33,34
 125 640 125 640 106.5 647 c 128,-1,35
 88 654 88 654 59 654 c 2,36,-1
 50 654 l 1,37,-1
 50 710 l 1,38,-1
 306 710 l 1,39,-1
 306 654 l 1,40,-1
 289 654 l 2,41,42
 270 654 270 654 253.5 653 c 128,-1,43
 237 652 237 652 226 650 c 128,-1,44
 215 648 215 648 215 644 c 2,45,-1
 215 54 l 1,46,-1
 316 54 l 2,47,48
 356 54 356 54 385 73 c 128,-1,49
 414 92 414 92 430 128 c 128,-1,50
 446 164 446 164 446 216 c 0,51,52
 446 267 446 267 430 301.5 c 128,-1,53
 414 336 414 336 385 353.5 c 128,-1,54
 356 371 356 371 316 371 c 2,55,-1
 170 371 l 1,56,-1
 170 425 l 1,57,-1
 321 425 l 2,58,59
 386 425 386 425 435 401 c 128,-1,60
 484 377 484 377 512 330.5 c 128,-1,61
 540 284 540 284 540 215 c 0,62,63
 540 148 540 148 511 99.5 c 128,-1,64
 482 51 482 51 432.5 25.5 c 128,-1,65
 383 0 383 0 321 0 c 2,26,-1
EndSplineSet
EndChar

StartChar: Softcyr
Encoding: 1068 1068 298
Width: 581
GlyphClass: 2
Flags: W
AnchorPoint: "Anchor-0" 168 741 basechar 0
LayerCount: 2
Fore
SplineSet
321 0 m 2,0,-1
 50 0 l 1,1,-1
 50 56 l 1,2,-1
 59 56 l 2,3,4
 88 56 88 56 106.5 63 c 128,-1,5
 125 70 125 70 125 93 c 2,6,-1
 125 618 l 2,7,8
 125 640 125 640 106.5 647 c 128,-1,9
 88 654 88 654 59 654 c 2,10,-1
 50 654 l 1,11,-1
 50 710 l 1,12,-1
 306 710 l 1,13,-1
 306 654 l 1,14,-1
 289 654 l 2,15,16
 270 654 270 654 253.5 653 c 128,-1,17
 237 652 237 652 226 650 c 128,-1,18
 215 648 215 648 215 644 c 2,19,-1
 215 54 l 1,20,-1
 316 54 l 2,21,22
 356 54 356 54 385 73 c 128,-1,23
 414 92 414 92 430 128 c 128,-1,24
 446 164 446 164 446 216 c 0,25,26
 446 267 446 267 430 301.5 c 128,-1,27
 414 336 414 336 385 353.5 c 128,-1,28
 356 371 356 371 316 371 c 2,29,-1
 170 371 l 1,30,-1
 170 425 l 1,31,-1
 321 425 l 2,32,33
 386 425 386 425 435 401 c 128,-1,34
 484 377 484 377 512 330.5 c 128,-1,35
 540 284 540 284 540 215 c 0,36,37
 540 148 540 148 511 99.5 c 128,-1,38
 482 51 482 51 432.5 25.5 c 128,-1,39
 383 0 383 0 321 0 c 2,0,-1
EndSplineSet
EndChar

StartChar: Ereversedcyr
Encoding: 1069 1069 299
Width: 641
GlyphClass: 2
Flags: W
AnchorPoint: "Anchor-1" 308 0 basechar 0
AnchorPoint: "Anchor-0" 308 741 basechar 0
LayerCount: 2
Fore
SplineSet
509 387 m 1,0,-1
 509 339 l 1,1,2
 474 337 474 337 438.5 335.5 c 128,-1,3
 403 334 403 334 367.5 332.5 c 128,-1,4
 332 331 332 331 296.5 329.5 c 128,-1,5
 261 328 261 328 226 326 c 1,6,-1
 226 401 l 1,7,8
 261 399 261 399 296.5 397.5 c 128,-1,9
 332 396 332 396 367.5 394 c 128,-1,10
 403 392 403 392 438.5 390.5 c 128,-1,11
 474 389 474 389 509 387 c 1,0,-1
325 -23 m 0,12,13
 268 -23 268 -23 225 2.5 c 128,-1,14
 182 28 182 28 155.5 78.5 c 128,-1,15
 129 129 129 129 121 205 c 1,16,-1
 145 176 l 1,17,-1
 133 -10 l 1,18,-1
 70 -10 l 1,19,-1
 70 237 l 1,20,-1
 137 237 l 1,21,22
 155 169 155 169 180.5 123.5 c 128,-1,23
 206 78 206 78 240 55.5 c 128,-1,24
 274 33 274 33 315 33 c 0,25,26
 359 33 359 33 392.5 52 c 128,-1,27
 426 71 426 71 448.5 110 c 128,-1,28
 471 149 471 149 482.5 210 c 128,-1,29
 494 271 494 271 494 355 c 256,30,31
 494 439 494 439 482.5 500 c 128,-1,32
 471 561 471 561 448.5 600 c 128,-1,33
 426 639 426 639 392.5 658 c 128,-1,34
 359 677 359 677 315 677 c 0,35,36
 274 677 274 677 240 654.5 c 128,-1,37
 206 632 206 632 180.5 587 c 128,-1,38
 155 542 155 542 137 473 c 1,39,-1
 70 473 l 1,40,-1
 70 720 l 1,41,-1
 133 720 l 1,42,-1
 145 534 l 1,43,-1
 121 505 l 1,44,45
 127 576 127 576 153.5 627 c 128,-1,46
 180 678 180 678 224 705.5 c 128,-1,47
 268 733 268 733 325 733 c 0,48,49
 385 733 385 733 433.5 709.5 c 128,-1,50
 482 686 482 686 517.5 638.5 c 128,-1,51
 553 591 553 591 572 520.5 c 128,-1,52
 591 450 591 450 591 355 c 0,53,54
 591 262 591 262 571.5 191.5 c 128,-1,55
 552 121 552 121 516 73 c 128,-1,56
 480 25 480 25 431.5 1 c 128,-1,57
 383 -23 383 -23 325 -23 c 0,12,13
EndSplineSet
Substitution2: "'ss01' Style Set 1 lookup 61 subtable" Ecyr.alt1
EndChar

StartChar: Yucyr
Encoding: 1070 1070 300
Width: 922
GlyphClass: 2
Flags: W
AnchorPoint: "Anchor-1" 479 0 basechar 0
AnchorPoint: "Anchor-0" 479 741 basechar 0
LayerCount: 2
Fore
SplineSet
188 395 m 1,0,-1
 358 395 l 1,1,-1
 358 337 l 1,2,-1
 188 337 l 1,3,-1
 188 395 l 1,0,-1
50 0 m 1,4,-1
 50 56 l 1,5,-1
 59 56 l 2,6,7
 88 56 88 56 106.5 63 c 128,-1,8
 125 70 125 70 125 93 c 2,9,-1
 125 618 l 2,10,11
 125 640 125 640 106.5 647 c 128,-1,12
 88 654 88 654 59 654 c 2,13,-1
 50 654 l 1,14,-1
 50 710 l 1,15,-1
 290 710 l 1,16,-1
 290 654 l 1,17,-1
 283 654 l 2,18,19
 271 654 271 654 259.5 653.5 c 128,-1,20
 248 653 248 653 238 651.5 c 128,-1,21
 228 650 228 650 221.5 648.5 c 128,-1,22
 215 647 215 647 215 644 c 2,23,-1
 215 66 l 2,24,25
 215 63 215 63 221.5 61.5 c 128,-1,26
 228 60 228 60 238 58.5 c 128,-1,27
 248 57 248 57 260 56.5 c 128,-1,28
 272 56 272 56 282 56 c 2,29,-1
 290 56 l 1,30,-1
 290 0 l 1,31,-1
 50 0 l 1,4,-1
597 -23 m 256,32,33
 535 -23 535 -23 484.5 1.5 c 128,-1,34
 434 26 434 26 397.5 74 c 128,-1,35
 361 122 361 122 341 192.5 c 128,-1,36
 321 263 321 263 321 356 c 0,37,38
 321 448 321 448 341 518.5 c 128,-1,39
 361 589 361 589 397.5 636.5 c 128,-1,40
 434 684 434 684 484.5 708.5 c 128,-1,41
 535 733 535 733 597 733 c 256,42,43
 659 733 659 733 709.5 708.5 c 128,-1,44
 760 684 760 684 796.5 636.5 c 128,-1,45
 833 589 833 589 852.5 518.5 c 128,-1,46
 872 448 872 448 872 356 c 0,47,48
 872 263 872 263 852.5 192.5 c 128,-1,49
 833 122 833 122 796.5 74 c 128,-1,50
 760 26 760 26 709.5 1.5 c 128,-1,51
 659 -23 659 -23 597 -23 c 256,32,33
597 33 m 256,52,53
 641 33 641 33 674 52 c 128,-1,54
 707 71 707 71 729.5 110.5 c 128,-1,55
 752 150 752 150 763.5 210.5 c 128,-1,56
 775 271 775 271 775 355 c 256,57,58
 775 439 775 439 763.5 499.5 c 128,-1,59
 752 560 752 560 729.5 599.5 c 128,-1,60
 707 639 707 639 674 658 c 128,-1,61
 641 677 641 677 597 677 c 256,62,63
 553 677 553 677 519.5 658 c 128,-1,64
 486 639 486 639 463.5 599.5 c 128,-1,65
 441 560 441 560 429.5 499.5 c 128,-1,66
 418 439 418 439 418 355 c 256,67,68
 418 271 418 271 429.5 210.5 c 128,-1,69
 441 150 441 150 463.5 110.5 c 128,-1,70
 486 71 486 71 519.5 52 c 128,-1,71
 553 33 553 33 597 33 c 256,52,53
EndSplineSet
EndChar

StartChar: Yacyr
Encoding: 1071 1071 301
Width: 634
GlyphClass: 2
Flags: W
AnchorPoint: "Anchor-1" 317 0 basechar 0
AnchorPoint: "Anchor-0" 349 741 basechar 0
LayerCount: 2
Fore
SplineSet
312 323 m 1,0,-1
 162 0 l 1,1,-1
 25 0 l 1,2,-1
 25 56 l 1,3,-1
 33 56 l 2,4,5
 52 56 52 56 67 61 c 128,-1,6
 82 66 82 66 95.5 79.5 c 128,-1,7
 109 93 109 93 121 118 c 2,8,-1
 233 351 l 1,9,-1
 312 323 l 1,0,-1
419 66 m 2,10,-1
 419 656 l 1,11,-1
 312 656 l 2,12,13
 269 656 269 656 241 638.5 c 128,-1,14
 213 621 213 621 200 587.5 c 128,-1,15
 187 554 187 554 187 505 c 0,16,17
 187 457 187 457 199.5 423 c 128,-1,18
 212 389 212 389 240.5 371.5 c 128,-1,19
 269 354 269 354 317 354 c 2,20,-1
 430 354 l 1,21,-1
 430 300 l 1,22,-1
 282 300 l 1,23,-1
 259 311 l 1,24,25
 211 321 211 321 173.5 342.5 c 128,-1,26
 136 364 136 364 114.5 403.5 c 128,-1,27
 93 443 93 443 93 505 c 0,28,29
 93 570 93 570 118.5 616 c 128,-1,30
 144 662 144 662 192.5 686 c 128,-1,31
 241 710 241 710 308 710 c 2,32,-1
 584 710 l 1,33,-1
 584 654 l 1,34,-1
 575 654 l 2,35,36
 547 654 547 654 528 647 c 128,-1,37
 509 640 509 640 509 617 c 2,38,-1
 509 92 l 2,39,40
 509 70 509 70 528 63 c 128,-1,41
 547 56 547 56 575 56 c 2,42,-1
 584 56 l 1,43,-1
 584 0 l 1,44,-1
 329 0 l 1,45,-1
 329 56 l 1,46,-1
 345 56 l 2,47,48
 359 56 359 56 372.5 56.5 c 128,-1,49
 386 57 386 57 396 58.5 c 128,-1,50
 406 60 406 60 412.5 61.5 c 128,-1,51
 419 63 419 63 419 66 c 2,10,-1
EndSplineSet
EndChar

StartChar: Geupcyr
Encoding: 1168 1168 302
Width: 548
GlyphClass: 2
Flags: W
AnchorPoint: "Anchor-0" 258 741 basechar 0
LayerCount: 2
Fore
SplineSet
215 656 m 1,0,-1
 215 92 l 2,1,2
 215 78 215 78 225.5 70 c 128,-1,3
 236 62 236 62 253.5 59 c 128,-1,4
 271 56 271 56 293 56 c 2,5,-1
 306 56 l 1,6,-1
 306 0 l 1,7,-1
 50 0 l 1,8,-1
 50 56 l 1,9,-1
 59 56 l 2,10,11
 88 56 88 56 106.5 63 c 128,-1,12
 125 70 125 70 125 93 c 2,13,-1
 125 618 l 2,14,15
 125 640 125 640 106.5 647 c 128,-1,16
 88 654 88 654 59 654 c 2,17,-1
 50 654 l 1,18,-1
 50 710 l 1,19,-1
 334 710 l 2,20,21
 372 710 372 710 395.5 715.5 c 128,-1,22
 419 721 419 721 429.5 733.5 c 128,-1,23
 440 746 440 746 442 766 c 2,24,-1
 453 889 l 1,25,-1
 510 889 l 1,26,-1
 510 656 l 1,27,-1
 215 656 l 1,0,-1
EndSplineSet
EndChar

StartChar: Gestrokecyr
Encoding: 1170 1170 303
Width: 553
GlyphClass: 2
Flags: W
AnchorPoint: "Anchor-0" 282 741 basechar 0
LayerCount: 2
Fore
SplineSet
42 387 m 1,0,-1
 373 387 l 1,1,-1
 373 334 l 1,2,-1
 42 334 l 1,3,-1
 42 387 l 1,0,-1
215 656 m 1,4,-1
 215 92 l 2,5,6
 215 78 215 78 225.5 70 c 128,-1,7
 236 62 236 62 253.5 59 c 128,-1,8
 271 56 271 56 293 56 c 2,9,-1
 306 56 l 1,10,-1
 306 0 l 1,11,-1
 50 0 l 1,12,-1
 50 56 l 1,13,-1
 59 56 l 2,14,15
 88 56 88 56 106.5 63 c 128,-1,16
 125 70 125 70 125 93 c 2,17,-1
 125 618 l 2,18,19
 125 640 125 640 106.5 647 c 128,-1,20
 88 654 88 654 59 654 c 2,21,-1
 50 654 l 1,22,-1
 50 710 l 1,23,-1
 510 710 l 1,24,-1
 510 488 l 1,25,-1
 452 488 l 1,26,-1
 440 600 l 2,27,28
 438 618 438 618 427.5 630.5 c 128,-1,29
 417 643 417 643 396 649.5 c 128,-1,30
 375 656 375 656 342 656 c 2,31,-1
 215 656 l 1,4,-1
EndSplineSet
EndChar

StartChar: Zhetailcyr
Encoding: 1174 1174 304
Width: 947
GlyphClass: 2
Flags: W
AnchorPoint: "Anchor-0" 464 741 basechar 0
LayerCount: 2
Fore
SplineSet
677 0 m 1,0,-1
 677 56 l 1,1,-1
 684 56 l 2,2,3
 700 56 700 56 715 57 c 128,-1,4
 730 58 730 58 740 60.5 c 128,-1,5
 750 63 750 63 750 66 c 2,6,-1
 556 349 l 1,7,-1
 556 370 l 1,8,-1
 765 643 l 2,9,10
 765 647 765 647 755 649 c 128,-1,11
 745 651 745 651 729.5 652.5 c 128,-1,12
 714 654 714 654 697 654 c 2,13,-1
 689 654 l 1,14,-1
 689 710 l 1,15,-1
 906 710 l 1,16,-1
 906 654 l 1,17,-1
 882 654 l 2,18,19
 869 654 869 654 858 651.5 c 128,-1,20
 847 649 847 649 837.5 643 c 128,-1,21
 828 637 828 637 820 626 c 2,22,-1
 611 353 l 1,23,-1
 628 394 l 1,24,-1
 859 58 l 1,25,-1
 859 0 l 1,26,-1
 677 0 l 1,0,-1
267 0 m 1,27,-1
 18 0 l 1,28,-1
 18 56 l 1,29,-1
 40 56 l 2,30,31
 55 56 55 56 66 57.5 c 128,-1,32
 77 59 77 59 86.5 64 c 128,-1,33
 96 69 96 69 103 79 c 2,34,-1
 319 394 l 1,35,-1
 331 354 l 1,36,-1
 122 626 l 2,37,38
 114 637 114 637 104.5 643 c 128,-1,39
 95 649 95 649 84.5 651.5 c 128,-1,40
 74 654 74 654 60 654 c 2,41,-1
 36 654 l 1,42,-1
 36 710 l 1,43,-1
 255 710 l 1,44,-1
 255 654 l 1,45,-1
 247 654 l 2,46,47
 230 654 230 654 214.5 652.5 c 128,-1,48
 199 651 199 651 189 649 c 128,-1,49
 179 647 179 647 179 643 c 2,50,-1
 388 370 l 1,51,-1
 388 349 l 1,52,-1
 194 66 l 2,53,54
 194 63 194 63 204 60.5 c 128,-1,55
 214 58 214 58 229 57 c 128,-1,56
 244 56 244 56 260 56 c 2,57,-1
 267 56 l 1,58,-1
 267 0 l 1,27,-1
753 0 m 2,59,-1
 749 0 l 1,60,-1
 749 58 l 1,61,-1
 929 58 l 1,62,-1
 929 -179 l 1,63,-1
 872 -179 l 1,64,-1
 861 -56 l 2,65,66
 859 -35 859 -35 848.5 -23 c 128,-1,67
 838 -11 838 -11 815 -5.5 c 128,-1,68
 792 0 792 0 753 0 c 2,59,-1
357 0 m 1,69,-1
 357 56 l 1,70,-1
 364 56 l 2,71,72
 373 56 373 56 384 56.5 c 128,-1,73
 395 57 395 57 405 58.5 c 128,-1,74
 415 60 415 60 421 61.5 c 128,-1,75
 427 63 427 63 427 66 c 2,76,-1
 427 644 l 2,77,78
 427 647 427 647 421 648.5 c 128,-1,79
 415 650 415 650 405 651.5 c 128,-1,80
 395 653 395 653 383.5 653.5 c 128,-1,81
 372 654 372 654 362 654 c 2,82,-1
 355 654 l 1,83,-1
 355 710 l 1,84,-1
 589 710 l 1,85,-1
 589 654 l 1,86,-1
 582 654 l 2,87,88
 572 654 572 654 560.5 653.5 c 128,-1,89
 549 653 549 653 539 651.5 c 128,-1,90
 529 650 529 650 523 648.5 c 128,-1,91
 517 647 517 647 517 644 c 2,92,-1
 517 66 l 2,93,94
 517 63 517 63 523 61.5 c 128,-1,95
 529 60 529 60 539 58.5 c 128,-1,96
 549 57 549 57 560 56.5 c 128,-1,97
 571 56 571 56 580 56 c 2,98,-1
 587 56 l 1,99,-1
 587 0 l 1,100,-1
 357 0 l 1,69,-1
EndSplineSet
EndChar

StartChar: Katailcyr
Encoding: 1178 1178 306
Width: 656
GlyphClass: 2
Flags: W
AnchorPoint: "Anchor-0" 335 741 basechar 0
LayerCount: 2
Fore
SplineSet
50 0 m 1,0,-1
 50 56 l 1,1,-1
 59 56 l 2,2,3
 88 56 88 56 106.5 63 c 128,-1,4
 125 70 125 70 125 93 c 2,5,-1
 125 618 l 2,6,7
 125 640 125 640 106.5 647 c 128,-1,8
 88 654 88 654 59 654 c 2,9,-1
 50 654 l 1,10,-1
 50 710 l 1,11,-1
 287 710 l 1,12,-1
 287 654 l 1,13,-1
 279 654 l 2,14,15
 270 654 270 654 258 653.5 c 128,-1,16
 246 653 246 653 236.5 651.5 c 128,-1,17
 227 650 227 650 221 648.5 c 128,-1,18
 215 647 215 647 215 644 c 2,19,-1
 215 66 l 2,20,21
 215 63 215 63 221 61.5 c 128,-1,22
 227 60 227 60 236.5 58.5 c 128,-1,23
 246 57 246 57 257.5 56.5 c 128,-1,24
 269 56 269 56 278 56 c 2,25,-1
 285 56 l 1,26,-1
 285 0 l 1,27,-1
 50 0 l 1,0,-1
384 0 m 1,28,-1
 384 56 l 1,29,-1
 391 56 l 2,30,31
 407 56 407 56 422 57 c 128,-1,32
 437 58 437 58 447 60.5 c 128,-1,33
 457 63 457 63 457 66 c 2,34,-1
 254 349 l 1,35,-1
 254 370 l 1,36,-1
 473 643 l 2,37,38
 473 647 473 647 463 649 c 128,-1,39
 453 651 453 651 437.5 652.5 c 128,-1,40
 422 654 422 654 405 654 c 2,41,-1
 397 654 l 1,42,-1
 397 710 l 1,43,-1
 615 710 l 1,44,-1
 615 654 l 1,45,-1
 591 654 l 2,46,47
 578 654 578 654 567 651.5 c 128,-1,48
 556 649 556 649 547 643.5 c 128,-1,49
 538 638 538 638 529 626 c 2,50,-1
 309 353 l 1,51,-1
 325 396 l 1,52,-1
 568 58 l 1,53,-1
 568 0 l 1,54,-1
 384 0 l 1,28,-1
462 0 m 2,55,-1
 458 0 l 1,56,-1
 458 58 l 1,57,-1
 638 58 l 1,58,-1
 638 -179 l 1,59,-1
 581 -179 l 1,60,-1
 570 -56 l 2,61,62
 568 -35 568 -35 557.5 -23 c 128,-1,63
 547 -11 547 -11 524 -5.5 c 128,-1,64
 501 0 501 0 462 0 c 2,55,-1
EndSplineSet
EndChar

StartChar: Kaverticalstrokecyr
Encoding: 1180 1180 307
Width: 760
GlyphClass: 2
Flags: W
AnchorPoint: "Anchor-0" 395 741 basechar 0
LayerCount: 2
Fore
SplineSet
295 171 m 1,0,-1
 295 544 l 1,1,-1
 353 544 l 1,2,-1
 353 171 l 1,3,-1
 295 171 l 1,0,-1
50 0 m 1,4,-1
 50 56 l 1,5,-1
 59 56 l 2,6,7
 88 56 88 56 106.5 63 c 128,-1,8
 125 70 125 70 125 93 c 2,9,-1
 125 618 l 2,10,11
 125 640 125 640 106.5 647 c 128,-1,12
 88 654 88 654 59 654 c 2,13,-1
 50 654 l 1,14,-1
 50 710 l 1,15,-1
 287 710 l 1,16,-1
 287 654 l 1,17,-1
 279 654 l 2,18,19
 270 654 270 654 258 653.5 c 128,-1,20
 246 653 246 653 236.5 651.5 c 128,-1,21
 227 650 227 650 221 648.5 c 128,-1,22
 215 647 215 647 215 644 c 2,23,-1
 215 66 l 2,24,25
 215 63 215 63 221 61.5 c 128,-1,26
 227 60 227 60 236.5 58.5 c 128,-1,27
 246 57 246 57 257.5 56.5 c 128,-1,28
 269 56 269 56 278 56 c 2,29,-1
 285 56 l 1,30,-1
 285 0 l 1,31,-1
 50 0 l 1,4,-1
492 0 m 1,32,-1
 492 56 l 1,33,-1
 499 56 l 2,34,35
 515 56 515 56 530 57 c 128,-1,36
 545 58 545 58 555 60.5 c 128,-1,37
 565 63 565 63 565 66 c 2,38,-1
 392 349 l 1,39,-1
 392 370 l 1,40,-1
 581 643 l 2,41,42
 581 647 581 647 571 649 c 128,-1,43
 561 651 561 651 545.5 652.5 c 128,-1,44
 530 654 530 654 513 654 c 2,45,-1
 505 654 l 1,46,-1
 505 710 l 1,47,-1
 721 710 l 1,48,-1
 721 654 l 1,49,-1
 697 654 l 2,50,51
 677 654 677 654 661.5 648.5 c 128,-1,52
 646 643 646 643 635 626 c 2,53,-1
 445 353 l 1,54,-1
 464 396 l 1,55,-1
 658 79 l 2,56,57
 665 68 665 68 674 63 c 128,-1,58
 683 58 683 58 694.5 57 c 128,-1,59
 706 56 706 56 720 56 c 2,60,-1
 742 56 l 1,61,-1
 742 0 l 1,62,-1
 492 0 l 1,32,-1
EndSplineSet
EndChar

StartChar: Kabashkcyr
Encoding: 1184 1184 308
Width: 781
GlyphClass: 2
Flags: W
AnchorPoint: "Anchor-0" 461 741 basechar 0
LayerCount: 2
Fore
SplineSet
509 0 m 1,0,-1
 509 56 l 1,1,-1
 516 56 l 2,2,3
 532 56 532 56 547 57 c 128,-1,4
 562 58 562 58 572 60.5 c 128,-1,5
 582 63 582 63 582 66 c 2,6,-1
 379 349 l 1,7,-1
 379 370 l 1,8,-1
 598 643 l 2,9,10
 598 647 598 647 588 649 c 128,-1,11
 578 651 578 651 562.5 652.5 c 128,-1,12
 547 654 547 654 530 654 c 2,13,-1
 522 654 l 1,14,-1
 522 710 l 1,15,-1
 740 710 l 1,16,-1
 740 654 l 1,17,-1
 716 654 l 2,18,19
 702 654 702 654 691.5 651.5 c 128,-1,20
 681 649 681 649 672 643.5 c 128,-1,21
 663 638 663 638 654 626 c 2,22,-1
 434 353 l 1,23,-1
 451 396 l 1,24,-1
 678 79 l 2,25,26
 686 69 686 69 695 64 c 128,-1,27
 704 59 704 59 716 57.5 c 128,-1,28
 728 56 728 56 741 56 c 2,29,-1
 763 56 l 1,30,-1
 763 0 l 1,31,-1
 509 0 l 1,0,-1
175 0 m 1,32,-1
 175 56 l 1,33,-1
 184 56 l 2,34,35
 213 56 213 56 231.5 63 c 128,-1,36
 250 70 250 70 250 93 c 2,37,-1
 250 656 l 1,38,-1
 218 656 l 2,39,40
 180 656 180 656 157 650.5 c 128,-1,41
 134 645 134 645 123.5 633 c 128,-1,42
 113 621 113 621 111 600 c 2,43,-1
 100 477 l 1,44,-1
 43 477 l 1,45,-1
 43 710 l 1,46,-1
 412 710 l 1,47,-1
 412 654 l 1,48,-1
 405 654 l 2,49,50
 392 654 392 654 377 653 c 128,-1,51
 362 652 362 652 351 650 c 128,-1,52
 340 648 340 648 340 644 c 2,53,-1
 340 66 l 2,54,55
 340 63 340 63 350.5 60.5 c 128,-1,56
 361 58 361 58 376 57.5 c 128,-1,57
 391 57 391 57 403 57 c 2,58,-1
 410 57 l 1,59,-1
 410 0 l 1,60,-1
 175 0 l 1,32,-1
EndSplineSet
EndChar

StartChar: Entailcyr
Encoding: 1186 1186 309
Width: 720
GlyphClass: 2
Flags: W
AnchorPoint: "Anchor-0" 360 741 basechar 0
LayerCount: 2
Fore
SplineSet
188 395 m 1,0,-1
 528 395 l 1,1,-1
 528 337 l 1,2,-1
 188 337 l 1,3,-1
 188 395 l 1,0,-1
50 0 m 1,4,-1
 50 56 l 1,5,-1
 59 56 l 2,6,7
 88 56 88 56 106.5 63 c 128,-1,8
 125 70 125 70 125 93 c 2,9,-1
 125 618 l 2,10,11
 125 640 125 640 106.5 647 c 128,-1,12
 88 654 88 654 59 654 c 2,13,-1
 50 654 l 1,14,-1
 50 710 l 1,15,-1
 290 710 l 1,16,-1
 290 654 l 1,17,-1
 283 654 l 2,18,19
 271 654 271 654 259.5 653.5 c 128,-1,20
 248 653 248 653 238 651.5 c 128,-1,21
 228 650 228 650 221.5 648.5 c 128,-1,22
 215 647 215 647 215 644 c 2,23,-1
 215 66 l 2,24,25
 215 63 215 63 221.5 61.5 c 128,-1,26
 228 60 228 60 238 58.5 c 128,-1,27
 248 57 248 57 260 56.5 c 128,-1,28
 272 56 272 56 282 56 c 2,29,-1
 290 56 l 1,30,-1
 290 0 l 1,31,-1
 50 0 l 1,4,-1
431 0 m 1,32,-1
 431 56 l 1,33,-1
 438 56 l 2,34,35
 448 56 448 56 460 56.5 c 128,-1,36
 472 57 472 57 482.5 58.5 c 128,-1,37
 493 60 493 60 499 61.5 c 128,-1,38
 505 63 505 63 505 66 c 2,39,-1
 505 644 l 2,40,41
 505 647 505 647 498.5 648.5 c 128,-1,42
 492 650 492 650 482 651.5 c 128,-1,43
 472 653 472 653 460.5 653.5 c 128,-1,44
 449 654 449 654 438 654 c 2,45,-1
 431 654 l 1,46,-1
 431 710 l 1,47,-1
 670 710 l 1,48,-1
 670 654 l 1,49,-1
 661 654 l 2,50,51
 633 654 633 654 614 647 c 128,-1,52
 595 640 595 640 595 618 c 2,53,-1
 595 0 l 1,54,-1
 431 0 l 1,32,-1
504 0 m 2,55,-1
 500 0 l 1,56,-1
 500 58 l 1,57,-1
 680 58 l 1,58,-1
 680 -179 l 1,59,-1
 623 -179 l 1,60,-1
 612 -56 l 2,61,62
 610 -35 610 -35 599.5 -23 c 128,-1,63
 589 -11 589 -11 566 -5.5 c 128,-1,64
 543 0 543 0 504 0 c 2,55,-1
EndSplineSet
EndChar

StartChar: Tetailcyr
Encoding: 1196 1196 311
Width: 611
GlyphClass: 2
Flags: W
AnchorPoint: "Anchor-0" 299 741 basechar 0
LayerCount: 2
Fore
SplineSet
260 92 m 2,0,-1
 260 656 l 1,1,-1
 218 656 l 2,2,3
 180 656 180 656 157 650.5 c 128,-1,4
 134 645 134 645 123.5 633 c 128,-1,5
 113 621 113 621 111 600 c 2,6,-1
 100 477 l 1,7,-1
 43 477 l 1,8,-1
 43 710 l 1,9,-1
 568 710 l 1,10,-1
 568 477 l 1,11,-1
 511 477 l 1,12,-1
 500 600 l 2,13,14
 499 621 499 621 488 633 c 128,-1,15
 477 645 477 645 454 650.5 c 128,-1,16
 431 656 431 656 392 656 c 2,17,-1
 350 656 l 1,18,-1
 350 0 l 1,19,-1
 174 0 l 1,20,-1
 174 56 l 1,21,-1
 190 56 l 2,22,23
 219 56 219 56 239.5 63 c 128,-1,24
 260 70 260 70 260 92 c 2,0,-1
271 0 m 2,25,-1
 267 0 l 1,26,-1
 267 58 l 1,27,-1
 447 58 l 1,28,-1
 447 -179 l 1,29,-1
 390 -179 l 1,30,-1
 379 -56 l 2,31,32
 377 -35 377 -35 366.5 -23 c 128,-1,33
 356 -11 356 -11 333 -5.5 c 128,-1,34
 310 0 310 0 271 0 c 2,25,-1
EndSplineSet
EndChar

StartChar: Ustraightstrokecyr
Encoding: 1200 1200 313
Width: 592
GlyphClass: 2
Flags: W
AnchorPoint: "Anchor-1" 296 0 basechar 0
AnchorPoint: "Anchor-0" 296 741 basechar 0
LayerCount: 2
Fore
SplineSet
126 278 m 1,0,-1
 466 278 l 1,1,-1
 466 220 l 1,2,-1
 126 220 l 1,3,-1
 126 278 l 1,0,-1
251 293 m 1,4,-1
 258 263 l 1,5,-1
 90 607 l 2,6,7
 81 626 81 626 73 636 c 128,-1,8
 65 646 65 646 55.5 650 c 128,-1,9
 46 654 46 654 31 654 c 2,10,-1
 21 654 l 1,11,-1
 21 710 l 1,12,-1
 238 710 l 1,13,-1
 238 654 l 1,14,-1
 226 654 l 2,15,16
 212 654 212 654 198 652.5 c 128,-1,17
 184 651 184 651 174.5 649 c 128,-1,18
 165 647 165 647 165 643 c 2,19,-1
 334 299 l 1,20,-1
 295 296 l 1,21,-1
 446 631 l 2,22,23
 446 638 446 638 437 643 c 128,-1,24
 428 648 428 648 415 651 c 128,-1,25
 402 654 402 654 389 654 c 2,26,-1
 379 654 l 1,27,-1
 379 710 l 1,28,-1
 566 710 l 1,29,-1
 566 654 l 1,30,-1
 556 654 l 2,31,32
 543 654 543 654 533 649 c 128,-1,33
 523 644 523 644 514 632 c 128,-1,34
 505 620 505 620 495 600 c 2,35,-1
 333 261 l 1,36,-1
 341 293 l 1,37,-1
 341 92 l 2,38,39
 341 70 341 70 360.5 63 c 128,-1,40
 380 56 380 56 409 56 c 2,41,-1
 426 56 l 1,42,-1
 426 0 l 1,43,-1
 165 0 l 1,44,-1
 165 56 l 1,45,-1
 182 56 l 2,46,47
 212 56 212 56 231.5 63 c 128,-1,48
 251 70 251 70 251 92 c 2,49,-1
 251 293 l 1,4,-1
EndSplineSet
EndChar

StartChar: Xatailcyr
Encoding: 1202 1202 314
Width: 636
GlyphClass: 2
Flags: W
AnchorPoint: "Anchor-0" 324 741 basechar 0
LayerCount: 2
Fore
SplineSet
33 654 m 1,0,-1
 33 710 l 1,1,-1
 273 710 l 1,2,-1
 273 654 l 1,3,-1
 259 654 l 2,4,5
 244 654 244 654 228 653 c 128,-1,6
 212 652 212 652 201 650 c 128,-1,7
 190 648 190 648 190 645 c 2,8,-1
 344 391 l 1,9,-1
 352 386 l 1,10,-1
 548 58 l 1,11,-1
 548 0 l 1,12,-1
 364 0 l 1,13,-1
 364 56 l 1,14,-1
 378 56 l 2,15,16
 393 56 393 56 408.5 57 c 128,-1,17
 424 58 424 58 435 60.5 c 128,-1,18
 446 63 446 63 446 66 c 2,19,-1
 282 342 l 1,20,-1
 274 347 l 1,21,-1
 108 620 l 2,22,23
 94 643 94 643 80 648.5 c 128,-1,24
 66 654 66 654 44 654 c 2,25,-1
 33 654 l 1,0,-1
23 0 m 1,26,-1
 23 56 l 1,27,-1
 39 56 l 2,28,29
 59 56 59 56 72 65.5 c 128,-1,30
 85 75 85 75 101 102 c 2,31,-1
 263 380 l 1,32,-1
 308 341 l 1,33,-1
 152 73 l 2,34,35
 152 69 152 69 162.5 65 c 128,-1,36
 173 61 173 61 188 58.5 c 128,-1,37
 203 56 203 56 218 56 c 2,38,-1
 233 56 l 1,39,-1
 233 0 l 1,40,-1
 23 0 l 1,26,-1
365 355 m 1,41,-1
 320 391 l 1,42,-1
 468 637 l 2,43,44
 468 642 468 642 457 646 c 128,-1,45
 446 650 446 650 430.5 652 c 128,-1,46
 415 654 415 654 399 654 c 2,47,-1
 387 654 l 1,48,-1
 387 710 l 1,49,-1
 594 710 l 1,50,-1
 594 654 l 1,51,-1
 583 654 l 2,52,53
 564 654 564 654 549.5 645 c 128,-1,54
 535 636 535 636 518 609 c 2,55,-1
 365 355 l 1,41,-1
442 0 m 2,56,-1
 438 0 l 1,57,-1
 438 58 l 1,58,-1
 618 58 l 1,59,-1
 618 -179 l 1,60,-1
 561 -179 l 1,61,-1
 550 -56 l 2,62,63
 548 -35 548 -35 537.5 -23 c 128,-1,64
 527 -11 527 -11 504 -5.5 c 128,-1,65
 481 0 481 0 442 0 c 2,56,-1
EndSplineSet
EndChar

StartChar: Chetailcyr
Encoding: 1206 1206 315
Width: 690
GlyphClass: 2
Flags: W
AnchorPoint: "Anchor-0" 338 741 basechar 0
LayerCount: 2
Fore
SplineSet
324 280 m 0,0,1
 248 280 248 280 199.5 298 c 128,-1,2
 151 316 151 316 128 355.5 c 128,-1,3
 105 395 105 395 105 460 c 2,4,-1
 105 618 l 2,5,6
 105 640 105 640 86.5 647 c 128,-1,7
 68 654 68 654 39 654 c 2,8,-1
 30 654 l 1,9,-1
 30 710 l 1,10,-1
 270 710 l 1,11,-1
 270 654 l 1,12,-1
 262 654 l 2,13,14
 248 654 248 654 232 653 c 128,-1,15
 216 652 216 652 205.5 650 c 128,-1,16
 195 648 195 648 195 644 c 2,17,-1
 195 465 l 2,18,19
 195 422 195 422 208.5 393.5 c 128,-1,20
 222 365 222 365 251.5 351.5 c 128,-1,21
 281 338 281 338 329 338 c 0,22,23
 370 338 370 338 415 346 c 128,-1,24
 460 354 460 354 495 373 c 1,25,-1
 495 315 l 1,26,27
 457 298 457 298 412.5 289 c 128,-1,28
 368 280 368 280 324 280 c 0,0,1
401 0 m 1,29,-1
 401 56 l 1,30,-1
 408 56 l 2,31,32
 422 56 422 56 438 57 c 128,-1,33
 454 58 454 58 464.5 60.5 c 128,-1,34
 475 63 475 63 475 66 c 2,35,-1
 475 644 l 2,36,37
 475 648 475 648 464.5 650 c 128,-1,38
 454 652 454 652 438.5 653 c 128,-1,39
 423 654 423 654 408 654 c 2,40,-1
 401 654 l 1,41,-1
 401 710 l 1,42,-1
 640 710 l 1,43,-1
 640 654 l 1,44,-1
 631 654 l 2,45,46
 603 654 603 654 584 647 c 128,-1,47
 565 640 565 640 565 618 c 2,48,-1
 565 0 l 1,49,-1
 401 0 l 1,29,-1
474 0 m 2,50,-1
 470 0 l 1,51,-1
 470 58 l 1,52,-1
 650 58 l 1,53,-1
 650 -179 l 1,54,-1
 593 -179 l 1,55,-1
 582 -56 l 2,56,57
 580 -35 580 -35 569.5 -23 c 128,-1,58
 559 -11 559 -11 536 -5.5 c 128,-1,59
 513 0 513 0 474 0 c 2,50,-1
EndSplineSet
EndChar

StartChar: Chevertcyr
Encoding: 1208 1208 316
Width: 709
GlyphClass: 2
Flags: W
AnchorPoint: "Anchor-0" 347 741 basechar 0
LayerCount: 2
Fore
SplineSet
420 0 m 1,0,-1
 420 56 l 1,1,-1
 427 56 l 2,2,3
 442 56 442 56 457.5 57 c 128,-1,4
 473 58 473 58 483.5 60.5 c 128,-1,5
 494 63 494 63 494 66 c 2,6,-1
 494 644 l 2,7,8
 494 648 494 648 483.5 650 c 128,-1,9
 473 652 473 652 457.5 653 c 128,-1,10
 442 654 442 654 427 654 c 2,11,-1
 420 654 l 1,12,-1
 420 710 l 1,13,-1
 659 710 l 1,14,-1
 659 654 l 1,15,-1
 650 654 l 2,16,17
 622 654 622 654 603 647 c 128,-1,18
 584 640 584 640 584 617 c 2,19,-1
 584 92 l 2,20,21
 584 70 584 70 603 63 c 128,-1,22
 622 56 622 56 650 56 c 2,23,-1
 659 56 l 1,24,-1
 659 0 l 1,25,-1
 420 0 l 1,0,-1
333 280 m 0,26,27
 253 280 253 280 202.5 298 c 128,-1,28
 152 316 152 316 128.5 355.5 c 128,-1,29
 105 395 105 395 105 460 c 2,30,-1
 105 618 l 2,31,32
 105 640 105 640 86.5 647 c 128,-1,33
 68 654 68 654 39 654 c 2,34,-1
 30 654 l 1,35,-1
 30 710 l 1,36,-1
 270 710 l 1,37,-1
 270 654 l 1,38,-1
 262 654 l 2,39,40
 248 654 248 654 232 653 c 128,-1,41
 216 652 216 652 205.5 650 c 128,-1,42
 195 648 195 648 195 644 c 2,43,-1
 195 465 l 2,44,45
 195 422 195 422 209 393.5 c 128,-1,46
 223 365 223 365 254.5 351.5 c 128,-1,47
 286 338 286 338 338 338 c 0,48,49
 381 338 381 338 429 345.5 c 128,-1,50
 477 353 477 353 514 373 c 1,51,-1
 514 315 l 1,52,53
 474 297 474 297 427 288.5 c 128,-1,54
 380 280 380 280 333 280 c 0,26,27
320 158 m 1,55,-1
 320 531 l 1,56,-1
 378 531 l 1,57,-1
 378 158 l 1,58,-1
 320 158 l 1,55,-1
EndSplineSet
EndChar

StartChar: Shhacyr
Encoding: 1210 1210 317
Width: 690
GlyphClass: 1
Flags: W
LayerCount: 2
Fore
SplineSet
289 710 m 1,0,-1
 289 654 l 1,1,-1
 282 654 l 2,2,3
 268 654 268 654 252.5 653 c 128,-1,4
 237 652 237 652 226 650 c 128,-1,5
 215 648 215 648 215 644 c 2,6,-1
 215 66 l 2,7,8
 215 63 215 63 226 60.5 c 128,-1,9
 237 58 237 58 252.5 57 c 128,-1,10
 268 56 268 56 282 56 c 2,11,-1
 289 56 l 1,12,-1
 289 0 l 1,13,-1
 50 0 l 1,14,-1
 50 56 l 1,15,-1
 59 56 l 2,16,17
 88 56 88 56 106.5 63 c 128,-1,18
 125 70 125 70 125 93 c 2,19,-1
 125 618 l 2,20,21
 125 640 125 640 106.5 647 c 128,-1,22
 88 654 88 654 59 654 c 2,23,-1
 50 654 l 1,24,-1
 50 710 l 1,25,-1
 289 710 l 1,0,-1
366 430 m 0,26,27
 443 430 443 430 491 412 c 128,-1,28
 539 394 539 394 562 354.5 c 128,-1,29
 585 315 585 315 585 250 c 2,30,-1
 585 92 l 2,31,32
 585 70 585 70 604 63 c 128,-1,33
 623 56 623 56 651 56 c 2,34,-1
 660 56 l 1,35,-1
 660 0 l 1,36,-1
 420 0 l 1,37,-1
 420 56 l 1,38,-1
 427 56 l 2,39,40
 443 56 443 56 458.5 57 c 128,-1,41
 474 58 474 58 484.5 60.5 c 128,-1,42
 495 63 495 63 495 66 c 2,43,-1
 495 245 l 2,44,45
 495 289 495 289 481.5 317 c 128,-1,46
 468 345 468 345 439 358.5 c 128,-1,47
 410 372 410 372 361 372 c 0,48,49
 321 372 321 372 275.5 364.5 c 128,-1,50
 230 357 230 357 195 337 c 1,51,-1
 195 395 l 1,52,53
 233 412 233 412 277.5 421 c 128,-1,54
 322 430 322 430 366 430 c 0,26,27
EndSplineSet
EndChar

StartChar: Obarcyr
Encoding: 1256 1256 320
Width: 665
GlyphClass: 2
Flags: W
AnchorPoint: "Anchor-1" 326 0 basechar 0
AnchorPoint: "Anchor-0" 326 741 basechar 0
LayerCount: 2
Fore
SplineSet
99 395 m 1,0,-1
 566 395 l 1,1,-1
 566 337 l 1,2,-1
 99 337 l 1,3,-1
 99 395 l 1,0,-1
333 -23 m 256,4,5
 269 -23 269 -23 217 1.5 c 128,-1,6
 165 26 165 26 127.5 74 c 128,-1,7
 90 122 90 122 70 192.5 c 128,-1,8
 50 263 50 263 50 355 c 0,9,10
 50 448 50 448 70 518.5 c 128,-1,11
 90 589 90 589 127.5 636.5 c 128,-1,12
 165 684 165 684 217 708.5 c 128,-1,13
 269 733 269 733 333 733 c 256,14,15
 397 733 397 733 449 708.5 c 128,-1,16
 501 684 501 684 538 636.5 c 128,-1,17
 575 589 575 589 595 518.5 c 128,-1,18
 615 448 615 448 615 355 c 0,19,20
 615 263 615 263 595 192.5 c 128,-1,21
 575 122 575 122 538 74 c 128,-1,22
 501 26 501 26 449 1.5 c 128,-1,23
 397 -23 397 -23 333 -23 c 256,4,5
333 33 m 256,24,25
 379 33 379 33 413.5 52 c 128,-1,26
 448 71 448 71 471.5 110.5 c 128,-1,27
 495 150 495 150 506.5 210.5 c 128,-1,28
 518 271 518 271 518 355 c 256,29,30
 518 439 518 439 506.5 499.5 c 128,-1,31
 495 560 495 560 471.5 599.5 c 128,-1,32
 448 639 448 639 413.5 658 c 128,-1,33
 379 677 379 677 333 677 c 256,34,35
 287 677 287 677 252.5 658 c 128,-1,36
 218 639 218 639 194.5 599.5 c 128,-1,37
 171 560 171 560 159 499.5 c 128,-1,38
 147 439 147 439 147 355 c 256,39,40
 147 271 147 271 159 210.5 c 128,-1,41
 171 150 171 150 194.5 110.5 c 128,-1,42
 218 71 218 71 252.5 52 c 128,-1,43
 287 33 287 33 333 33 c 256,24,25
EndSplineSet
EndChar

StartChar: Hastrokecyr
Encoding: 1278 1278 321
Width: 630
GlyphClass: 2
Flags: W
AnchorPoint: "Anchor-1" 296 0 basechar 0
AnchorPoint: "Anchor-0" 321 741 basechar 0
LayerCount: 2
Fore
SplineSet
136 396 m 1,0,-1
 490 396 l 1,1,-1
 490 338 l 1,2,-1
 136 338 l 1,3,-1
 136 396 l 1,0,-1
33 654 m 1,4,-1
 33 710 l 1,5,-1
 273 710 l 1,6,-1
 273 654 l 1,7,-1
 259 654 l 2,8,9
 244 654 244 654 228 653 c 128,-1,10
 212 652 212 652 201 650 c 128,-1,11
 190 648 190 648 190 645 c 2,12,-1
 344 391 l 1,13,-1
 351 386 l 1,14,-1
 529 90 l 2,15,16
 543 68 543 68 556.5 62 c 128,-1,17
 570 56 570 56 592 56 c 2,18,-1
 608 56 l 1,19,-1
 608 0 l 1,20,-1
 364 0 l 1,21,-1
 364 56 l 1,22,-1
 378 56 l 2,23,24
 393 56 393 56 408.5 57 c 128,-1,25
 424 58 424 58 435 60.5 c 128,-1,26
 446 63 446 63 446 66 c 2,27,-1
 282 342 l 1,28,-1
 275 347 l 1,29,-1
 108 620 l 2,30,31
 95 643 95 643 80.5 648.5 c 128,-1,32
 66 654 66 654 44 654 c 2,33,-1
 33 654 l 1,4,-1
23 0 m 1,34,-1
 23 56 l 1,35,-1
 39 56 l 2,36,37
 59 56 59 56 72 65.5 c 128,-1,38
 85 75 85 75 101 102 c 2,39,-1
 264 380 l 1,40,-1
 308 341 l 1,41,-1
 152 73 l 2,42,43
 152 69 152 69 162.5 65 c 128,-1,44
 173 61 173 61 188 58.5 c 128,-1,45
 203 56 203 56 218 56 c 2,46,-1
 233 56 l 1,47,-1
 233 0 l 1,48,-1
 23 0 l 1,34,-1
364 355 m 1,49,-1
 320 391 l 1,50,-1
 468 637 l 2,51,52
 468 642 468 642 457 646 c 128,-1,53
 446 650 446 650 430.5 652 c 128,-1,54
 415 654 415 654 399 654 c 2,55,-1
 387 654 l 1,56,-1
 387 710 l 1,57,-1
 594 710 l 1,58,-1
 594 654 l 1,59,-1
 583 654 l 2,60,61
 564 654 564 654 549.5 645 c 128,-1,62
 535 636 535 636 518 609 c 2,63,-1
 364 355 l 1,49,-1
EndSplineSet
EndChar

StartChar: a
Encoding: 97 97 322
Width: 515
GlyphClass: 2
Flags: W
AnchorPoint: "Anchor-2" 387 -10 basechar 0
AnchorPoint: "Anchor-1" 265 0 basechar 0
AnchorPoint: "Anchor-0" 238 565 basechar 0
LayerCount: 2
Fore
SplineSet
347 346 m 1,0,-1
 347 296 l 1,1,2
 290 285 290 285 252 273.5 c 128,-1,3
 214 262 214 262 191 248 c 128,-1,4
 168 234 168 234 156.5 217.5 c 128,-1,5
 145 201 145 201 141 181.5 c 128,-1,6
 137 162 137 162 137 138 c 0,7,8
 137 105 137 105 145.5 84.5 c 128,-1,9
 154 64 154 64 170 54.5 c 128,-1,10
 186 45 186 45 208 45 c 0,11,12
 231 45 231 45 254.5 54.5 c 128,-1,13
 278 64 278 64 301 87 c 128,-1,14
 324 110 324 110 346 148 c 1,15,-1
 349 104 l 1,16,17
 332 68 332 68 308.5 42 c 128,-1,18
 285 16 285 16 256 2 c 128,-1,19
 227 -12 227 -12 192 -12 c 0,20,21
 147 -12 147 -12 115.5 4.5 c 128,-1,22
 84 21 84 21 67.5 54 c 128,-1,23
 51 87 51 87 51 138 c 0,24,25
 51 180 51 180 65 212.5 c 128,-1,26
 79 245 79 245 112 269 c 128,-1,27
 145 293 145 293 202.5 312 c 128,-1,28
 260 331 260 331 347 346 c 1,0,-1
363 0 m 1,29,-1
 340 114 l 1,30,-1
 339 121 l 1,31,-1
 339 416 l 2,32,33
 339 452 339 452 332.5 474.5 c 128,-1,34
 326 497 326 497 306.5 507.5 c 128,-1,35
 287 518 287 518 248 518 c 0,36,37
 194 518 194 518 159.5 505.5 c 128,-1,38
 125 493 125 493 111 481 c 1,39,40
 111 486 111 486 114.5 493 c 128,-1,41
 118 500 118 500 124 507 c 128,-1,42
 130 514 130 514 139.5 518 c 128,-1,43
 149 522 149 522 161 521 c 1,44,-1
 161 396 l 1,45,-1
 79 396 l 1,46,-1
 79 529 l 1,47,48
 91 538 91 538 113.5 549 c 128,-1,49
 136 560 136 560 171 567.5 c 128,-1,50
 206 575 206 575 252 575 c 0,51,52
 292 575 292 575 324 567.5 c 128,-1,53
 356 560 356 560 378.5 543.5 c 128,-1,54
 401 527 401 527 413 500 c 128,-1,55
 425 473 425 473 425 435 c 2,56,-1
 425 92 l 2,57,58
 425 78 425 78 431.5 70 c 128,-1,59
 438 62 438 62 452 57.5 c 128,-1,60
 466 53 466 53 487 47 c 2,61,-1
 495 45 l 1,62,-1
 495 0 l 1,63,-1
 363 0 l 1,29,-1
EndSplineSet
Substitution2: "'ss06' Style Set 6 lookup 66 subtable" a.alt
EndChar

StartChar: aogonek
Encoding: 261 261 331
Width: 515
GlyphClass: 1
Flags: W
LayerCount: 2
Fore
SplineSet
214 -161 m 0,0,1
 214 -137 214 -137 221.5 -118.5 c 128,-1,2
 229 -100 229 -100 248 -80 c 128,-1,3
 267 -60 267 -60 300.5 -32.5 c 128,-1,4
 334 -5 334 -5 386 36 c 1,5,-1
 408 8 l 1,6,7
 375 -22 375 -22 355 -44.5 c 128,-1,8
 335 -67 335 -67 324.5 -84.5 c 128,-1,9
 314 -102 314 -102 310 -118.5 c 128,-1,10
 306 -135 306 -135 306 -153 c 0,11,12
 306 -177 306 -177 317 -190 c 128,-1,13
 328 -203 328 -203 348 -203 c 0,14,15
 373 -203 373 -203 391 -185.5 c 128,-1,16
 409 -168 409 -168 420 -152 c 1,17,-1
 452 -182 l 1,18,19
 430 -213 430 -213 400.5 -232.5 c 128,-1,20
 371 -252 371 -252 324 -252 c 256,21,22
 277 -252 277 -252 245.5 -229.5 c 128,-1,23
 214 -207 214 -207 214 -161 c 0,0,1
495 0 m 1,24,-1
 363 0 l 1,25,-1
 340 114 l 1,26,-1
 339 121 l 1,27,-1
 339 416 l 2,28,29
 339 452 339 452 332.5 474.5 c 128,-1,30
 326 497 326 497 306.5 507.5 c 128,-1,31
 287 518 287 518 248 518 c 0,32,33
 194 518 194 518 159.5 505.5 c 128,-1,34
 125 493 125 493 111 481 c 1,35,36
 111 486 111 486 114.5 493 c 128,-1,37
 118 500 118 500 124 507 c 128,-1,38
 130 514 130 514 139.5 518 c 128,-1,39
 149 522 149 522 161 521 c 1,40,-1
 161 396 l 1,41,-1
 79 396 l 1,42,-1
 79 529 l 1,43,44
 91 538 91 538 113.5 549 c 128,-1,45
 136 560 136 560 171 567.5 c 128,-1,46
 206 575 206 575 252 575 c 0,47,48
 292 575 292 575 324 567.5 c 128,-1,49
 356 560 356 560 378.5 543.5 c 128,-1,50
 401 527 401 527 413 500 c 128,-1,51
 425 473 425 473 425 435 c 2,52,-1
 425 92 l 2,53,54
 425 78 425 78 431.5 70 c 128,-1,55
 438 62 438 62 452 57.5 c 128,-1,56
 466 53 466 53 487 47 c 2,57,-1
 495 45 l 1,58,-1
 495 0 l 1,24,-1
51 138 m 0,59,60
 51 180 51 180 65 212.5 c 128,-1,61
 79 245 79 245 112 269 c 128,-1,62
 145 293 145 293 202.5 312 c 128,-1,63
 260 331 260 331 347 346 c 1,64,-1
 347 296 l 1,65,66
 290 285 290 285 252 273.5 c 128,-1,67
 214 262 214 262 191 248 c 128,-1,68
 168 234 168 234 156.5 217.5 c 128,-1,69
 145 201 145 201 141 181.5 c 128,-1,70
 137 162 137 162 137 138 c 0,71,72
 137 105 137 105 145.5 84.5 c 128,-1,73
 154 64 154 64 170 54.5 c 128,-1,74
 186 45 186 45 208 45 c 0,75,76
 231 45 231 45 254.5 54.5 c 128,-1,77
 278 64 278 64 301 87 c 128,-1,78
 324 110 324 110 346 148 c 1,79,-1
 349 104 l 1,80,81
 332 68 332 68 308.5 42 c 128,-1,82
 285 16 285 16 256 2 c 128,-1,83
 227 -12 227 -12 192 -12 c 0,84,85
 147 -12 147 -12 115.5 4.5 c 128,-1,86
 84 21 84 21 67.5 54 c 128,-1,87
 51 87 51 87 51 138 c 0,59,60
EndSplineSet
Substitution2: "'ss06' Style Set 6 lookup 66 subtable" aogonek.alt
EndChar

StartChar: acaron
Encoding: 462 462 332
Width: 515
GlyphClass: 1
Flags: W
LayerCount: 2
Fore
SplineSet
214 658 m 1,0,-1
 278 658 l 1,1,-1
 389 824 l 1,2,-1
 389 844 l 1,3,-1
 356 844 l 1,4,-1
 203 698 l 1,5,-1
 293 701 l 1,6,-1
 143 844 l 1,7,-1
 102 844 l 1,8,-1
 102 824 l 1,9,-1
 214 658 l 1,0,-1
347 346 m 1,10,-1
 347 296 l 1,11,12
 290 285 290 285 252 273.5 c 128,-1,13
 214 262 214 262 191 248 c 128,-1,14
 168 234 168 234 156.5 217.5 c 128,-1,15
 145 201 145 201 141 181.5 c 128,-1,16
 137 162 137 162 137 138 c 0,17,18
 137 105 137 105 145.5 84.5 c 128,-1,19
 154 64 154 64 170 54.5 c 128,-1,20
 186 45 186 45 208 45 c 0,21,22
 231 45 231 45 254.5 54.5 c 128,-1,23
 278 64 278 64 301 87 c 128,-1,24
 324 110 324 110 346 148 c 1,25,-1
 349 104 l 1,26,27
 332 68 332 68 308.5 42 c 128,-1,28
 285 16 285 16 256 2 c 128,-1,29
 227 -12 227 -12 192 -12 c 0,30,31
 147 -12 147 -12 115.5 4.5 c 128,-1,32
 84 21 84 21 67.5 54 c 128,-1,33
 51 87 51 87 51 138 c 0,34,35
 51 180 51 180 65 212.5 c 128,-1,36
 79 245 79 245 112 269 c 128,-1,37
 145 293 145 293 202.5 312 c 128,-1,38
 260 331 260 331 347 346 c 1,10,-1
363 0 m 1,39,-1
 340 114 l 1,40,-1
 339 121 l 1,41,-1
 339 416 l 2,42,43
 339 452 339 452 332.5 474.5 c 128,-1,44
 326 497 326 497 306.5 507.5 c 128,-1,45
 287 518 287 518 248 518 c 0,46,47
 194 518 194 518 159.5 505.5 c 128,-1,48
 125 493 125 493 111 481 c 1,49,50
 111 486 111 486 114.5 493 c 128,-1,51
 118 500 118 500 124 507 c 128,-1,52
 130 514 130 514 139.5 518 c 128,-1,53
 149 522 149 522 161 521 c 1,54,-1
 161 396 l 1,55,-1
 79 396 l 1,56,-1
 79 529 l 1,57,58
 91 538 91 538 113.5 549 c 128,-1,59
 136 560 136 560 171 567.5 c 128,-1,60
 206 575 206 575 252 575 c 0,61,62
 292 575 292 575 324 567.5 c 128,-1,63
 356 560 356 560 378.5 543.5 c 128,-1,64
 401 527 401 527 413 500 c 128,-1,65
 425 473 425 473 425 435 c 2,66,-1
 425 92 l 2,67,68
 425 78 425 78 431.5 70 c 128,-1,69
 438 62 438 62 452 57.5 c 128,-1,70
 466 53 466 53 487 47 c 2,71,-1
 495 45 l 1,72,-1
 495 0 l 1,73,-1
 363 0 l 1,39,-1
EndSplineSet
Substitution2: "'ss06' Style Set 6 lookup 66 subtable" acaron.alt
EndChar

StartChar: adblgrave
Encoding: 513 513 334
Width: 515
GlyphClass: 1
Flags: W
LayerCount: 2
Fore
SplineSet
337 805 m 2,0,-1
 363 684 l 1,1,-1
 363 661 l 1,2,-1
 336 661 l 1,3,-1
 265 753 l 2,4,5
 249 773 249 773 240 788.5 c 128,-1,6
 231 804 231 804 231 823 c 256,7,8
 231 842 231 842 244 855 c 128,-1,9
 257 868 257 868 279 868 c 0,10,11
 305 868 305 868 318.5 850.5 c 128,-1,12
 332 833 332 833 337 805 c 2,0,-1
169 805 m 2,13,-1
 195 684 l 1,14,-1
 195 661 l 1,15,-1
 167 661 l 1,16,-1
 97 753 l 2,17,18
 81 774 81 774 72 789 c 128,-1,19
 63 804 63 804 63 823 c 256,20,21
 63 842 63 842 76 855 c 128,-1,22
 89 868 89 868 111 868 c 0,23,24
 136 868 136 868 149 850.5 c 128,-1,25
 162 833 162 833 169 805 c 2,13,-1
347 346 m 1,26,-1
 347 296 l 1,27,28
 290 285 290 285 252 273.5 c 128,-1,29
 214 262 214 262 191 248 c 128,-1,30
 168 234 168 234 156.5 217.5 c 128,-1,31
 145 201 145 201 141 181.5 c 128,-1,32
 137 162 137 162 137 138 c 0,33,34
 137 105 137 105 145.5 84.5 c 128,-1,35
 154 64 154 64 170 54.5 c 128,-1,36
 186 45 186 45 208 45 c 0,37,38
 231 45 231 45 254.5 54.5 c 128,-1,39
 278 64 278 64 301 87 c 128,-1,40
 324 110 324 110 346 148 c 1,41,-1
 349 104 l 1,42,43
 332 68 332 68 308.5 42 c 128,-1,44
 285 16 285 16 256 2 c 128,-1,45
 227 -12 227 -12 192 -12 c 0,46,47
 147 -12 147 -12 115.5 4.5 c 128,-1,48
 84 21 84 21 67.5 54 c 128,-1,49
 51 87 51 87 51 138 c 0,50,51
 51 180 51 180 65 212.5 c 128,-1,52
 79 245 79 245 112 269 c 128,-1,53
 145 293 145 293 202.5 312 c 128,-1,54
 260 331 260 331 347 346 c 1,26,-1
363 0 m 1,55,-1
 340 114 l 1,56,-1
 339 121 l 1,57,-1
 339 416 l 2,58,59
 339 452 339 452 332.5 474.5 c 128,-1,60
 326 497 326 497 306.5 507.5 c 128,-1,61
 287 518 287 518 248 518 c 0,62,63
 194 518 194 518 159.5 505.5 c 128,-1,64
 125 493 125 493 111 481 c 1,65,66
 111 486 111 486 114.5 493 c 128,-1,67
 118 500 118 500 124 507 c 128,-1,68
 130 514 130 514 139.5 518 c 128,-1,69
 149 522 149 522 161 521 c 1,70,-1
 161 396 l 1,71,-1
 79 396 l 1,72,-1
 79 529 l 1,73,74
 91 538 91 538 113.5 549 c 128,-1,75
 136 560 136 560 171 567.5 c 128,-1,76
 206 575 206 575 252 575 c 0,77,78
 292 575 292 575 324 567.5 c 128,-1,79
 356 560 356 560 378.5 543.5 c 128,-1,80
 401 527 401 527 413 500 c 128,-1,81
 425 473 425 473 425 435 c 2,82,-1
 425 92 l 2,83,84
 425 78 425 78 431.5 70 c 128,-1,85
 438 62 438 62 452 57.5 c 128,-1,86
 466 53 466 53 487 47 c 2,87,-1
 495 45 l 1,88,-1
 495 0 l 1,89,-1
 363 0 l 1,55,-1
EndSplineSet
Substitution2: "'ss06' Style Set 6 lookup 66 subtable" adblgrave.alt
EndChar

StartChar: ainvertedbreve
Encoding: 515 515 335
Width: 515
GlyphClass: 1
Flags: W
LayerCount: 2
Fore
SplineSet
241 829 m 0,0,1
 195 829 195 829 165.5 814.5 c 128,-1,2
 136 800 136 800 122 765 c 128,-1,3
 108 730 108 730 108 668 c 1,4,-1
 165 668 l 1,5,6
 166 708 166 708 171.5 728.5 c 128,-1,7
 177 749 177 749 193 757 c 128,-1,8
 209 765 209 765 239 765 c 0,9,10
 270 765 270 765 286 757 c 128,-1,11
 302 749 302 749 308 728.5 c 128,-1,12
 314 708 314 708 314 668 c 1,13,-1
 375 668 l 1,14,15
 376 730 376 730 361.5 765 c 128,-1,16
 347 800 347 800 317.5 814.5 c 128,-1,17
 288 829 288 829 241 829 c 0,0,1
347 346 m 1,18,-1
 347 296 l 1,19,20
 290 285 290 285 252 273.5 c 128,-1,21
 214 262 214 262 191 248 c 128,-1,22
 168 234 168 234 156.5 217.5 c 128,-1,23
 145 201 145 201 141 181.5 c 128,-1,24
 137 162 137 162 137 138 c 0,25,26
 137 105 137 105 145.5 84.5 c 128,-1,27
 154 64 154 64 170 54.5 c 128,-1,28
 186 45 186 45 208 45 c 0,29,30
 231 45 231 45 254.5 54.5 c 128,-1,31
 278 64 278 64 301 87 c 128,-1,32
 324 110 324 110 346 148 c 1,33,-1
 349 104 l 1,34,35
 332 68 332 68 308.5 42 c 128,-1,36
 285 16 285 16 256 2 c 128,-1,37
 227 -12 227 -12 192 -12 c 0,38,39
 147 -12 147 -12 115.5 4.5 c 128,-1,40
 84 21 84 21 67.5 54 c 128,-1,41
 51 87 51 87 51 138 c 0,42,43
 51 180 51 180 65 212.5 c 128,-1,44
 79 245 79 245 112 269 c 128,-1,45
 145 293 145 293 202.5 312 c 128,-1,46
 260 331 260 331 347 346 c 1,18,-1
363 0 m 1,47,-1
 340 114 l 1,48,-1
 339 121 l 1,49,-1
 339 416 l 2,50,51
 339 452 339 452 332.5 474.5 c 128,-1,52
 326 497 326 497 306.5 507.5 c 128,-1,53
 287 518 287 518 248 518 c 0,54,55
 194 518 194 518 159.5 505.5 c 128,-1,56
 125 493 125 493 111 481 c 1,57,58
 111 486 111 486 114.5 493 c 128,-1,59
 118 500 118 500 124 507 c 128,-1,60
 130 514 130 514 139.5 518 c 128,-1,61
 149 522 149 522 161 521 c 1,62,-1
 161 396 l 1,63,-1
 79 396 l 1,64,-1
 79 529 l 1,65,66
 91 538 91 538 113.5 549 c 128,-1,67
 136 560 136 560 171 567.5 c 128,-1,68
 206 575 206 575 252 575 c 0,69,70
 292 575 292 575 324 567.5 c 128,-1,71
 356 560 356 560 378.5 543.5 c 128,-1,72
 401 527 401 527 413 500 c 128,-1,73
 425 473 425 473 425 435 c 2,74,-1
 425 92 l 2,75,76
 425 78 425 78 431.5 70 c 128,-1,77
 438 62 438 62 452 57.5 c 128,-1,78
 466 53 466 53 487 47 c 2,79,-1
 495 45 l 1,80,-1
 495 0 l 1,81,-1
 363 0 l 1,47,-1
EndSplineSet
Substitution2: "'ss06' Style Set 6 lookup 66 subtable" ainvertedbreve.alt
EndChar

StartChar: b
Encoding: 98 98 348
Width: 562
GlyphClass: 2
Flags: W
AnchorPoint: "Anchor-1" 349 0 basechar 0
AnchorPoint: "Anchor-0" 329 755 basechar 0
LayerCount: 2
Fore
SplineSet
321 -13 m 0,0,1
 287 -13 287 -13 256.5 -0.5 c 128,-1,2
 226 12 226 12 201.5 39 c 128,-1,3
 177 66 177 66 157 107 c 1,4,-1
 161 147 l 1,5,6
 183 111 183 111 207 89 c 128,-1,7
 231 67 231 67 257.5 57 c 128,-1,8
 284 47 284 47 312 47 c 0,9,10
 343 47 343 47 365.5 61 c 128,-1,11
 388 75 388 75 403 104 c 128,-1,12
 418 133 418 133 425 178 c 128,-1,13
 432 223 432 223 432 285 c 0,14,15
 432 350 432 350 424.5 394.5 c 128,-1,16
 417 439 417 439 402 465.5 c 128,-1,17
 387 492 387 492 365.5 503.5 c 128,-1,18
 344 515 344 515 316 515 c 0,19,20
 286 515 286 515 259.5 504 c 128,-1,21
 233 493 233 493 208.5 468.5 c 128,-1,22
 184 444 184 444 159 403 c 1,23,-1
 157 443 l 1,24,25
 176 486 176 486 202 515.5 c 128,-1,26
 228 545 228 545 260 560 c 128,-1,27
 292 575 292 575 329 575 c 0,28,29
 393 575 393 575 436 538.5 c 128,-1,30
 479 502 479 502 500.5 437 c 128,-1,31
 522 372 522 372 522 285 c 256,32,33
 522 198 522 198 498 130.5 c 128,-1,34
 474 63 474 63 429.5 25 c 128,-1,35
 385 -13 385 -13 321 -13 c 0,0,1
90 680 m 2,36,37
 90 695 90 695 83 702.5 c 128,-1,38
 76 710 76 710 62 715 c 128,-1,39
 48 720 48 720 27 725 c 2,40,-1
 19 727 l 1,41,-1
 19 780 l 1,42,-1
 176 780 l 1,43,-1
 176 122 l 1,44,-1
 176 120 l 1,45,-1
 146 -13 l 1,46,-1
 90 -13 l 1,47,-1
 90 680 l 2,36,37
EndSplineSet
EndChar

StartChar: c
Encoding: 99 99 349
Width: 487
GlyphClass: 2
Flags: W
AnchorPoint: "Anchor-1" 269 0 basechar 0
AnchorPoint: "Anchor-0" 260 565 basechar 0
LayerCount: 2
Fore
SplineSet
268 43 m 0,0,1
 299 43 299 43 323.5 54 c 128,-1,2
 348 65 348 65 366.5 86 c 128,-1,3
 385 107 385 107 398 135 c 1,4,-1
 443 110 l 1,5,6
 428 72 428 72 402 44.5 c 128,-1,7
 376 17 376 17 342 2 c 128,-1,8
 308 -13 308 -13 267 -13 c 0,9,10
 195 -13 195 -13 144.5 21 c 128,-1,11
 94 55 94 55 67 121 c 128,-1,12
 40 187 40 187 40 282 c 0,13,14
 40 374 40 374 66.5 439.5 c 128,-1,15
 93 505 93 505 144 540 c 128,-1,16
 195 575 195 575 268 575 c 0,17,18
 311 575 311 575 343 569 c 128,-1,19
 375 563 375 563 396 555.5 c 128,-1,20
 417 548 417 548 425 543 c 1,21,-1
 425 378 l 1,22,-1
 345 378 l 1,23,-1
 345 518 l 1,24,25
 353 518 353 518 360 516 c 128,-1,26
 367 514 367 514 372 510.5 c 128,-1,27
 377 507 377 507 379.5 503 c 128,-1,28
 382 499 382 499 383 494 c 1,29,30
 364 504 364 504 335.5 511.5 c 128,-1,31
 307 519 307 519 271 519 c 0,32,33
 218 519 218 519 187 493 c 128,-1,34
 156 467 156 467 143 414.5 c 128,-1,35
 130 362 130 362 130 282 c 0,36,37
 130 218 130 218 137 172.5 c 128,-1,38
 144 127 144 127 160 98.5 c 128,-1,39
 176 70 176 70 202.5 56.5 c 128,-1,40
 229 43 229 43 268 43 c 0,0,1
EndSplineSet
EndChar

StartChar: ccaron
Encoding: 269 269 354
Width: 487
GlyphClass: 1
Flags: W
LayerCount: 2
Fore
SplineSet
225 658 m 1,0,-1
 289 658 l 1,1,-1
 400 824 l 1,2,-1
 400 844 l 1,3,-1
 367 844 l 1,4,-1
 214 698 l 1,5,-1
 304 701 l 1,6,-1
 154 844 l 1,7,-1
 113 844 l 1,8,-1
 113 824 l 1,9,-1
 225 658 l 1,0,-1
268 43 m 0,10,11
 299 43 299 43 323.5 54 c 128,-1,12
 348 65 348 65 366.5 86 c 128,-1,13
 385 107 385 107 398 135 c 1,14,-1
 443 110 l 1,15,16
 428 72 428 72 402 44.5 c 128,-1,17
 376 17 376 17 342 2 c 128,-1,18
 308 -13 308 -13 267 -13 c 0,19,20
 195 -13 195 -13 144.5 21 c 128,-1,21
 94 55 94 55 67 121 c 128,-1,22
 40 187 40 187 40 282 c 0,23,24
 40 374 40 374 66.5 439.5 c 128,-1,25
 93 505 93 505 144 540 c 128,-1,26
 195 575 195 575 268 575 c 0,27,28
 311 575 311 575 343 569 c 128,-1,29
 375 563 375 563 396 555.5 c 128,-1,30
 417 548 417 548 425 543 c 1,31,-1
 425 378 l 1,32,-1
 345 378 l 1,33,-1
 345 518 l 1,34,35
 353 518 353 518 360 516 c 128,-1,36
 367 514 367 514 372 510.5 c 128,-1,37
 377 507 377 507 379.5 503 c 128,-1,38
 382 499 382 499 383 494 c 1,39,40
 364 504 364 504 335.5 511.5 c 128,-1,41
 307 519 307 519 271 519 c 0,42,43
 218 519 218 519 187 493 c 128,-1,44
 156 467 156 467 143 414.5 c 128,-1,45
 130 362 130 362 130 282 c 0,46,47
 130 218 130 218 137 172.5 c 128,-1,48
 144 127 144 127 160 98.5 c 128,-1,49
 176 70 176 70 202.5 56.5 c 128,-1,50
 229 43 229 43 268 43 c 0,10,11
EndSplineSet
EndChar

StartChar: d
Encoding: 100 100 356
Width: 567
GlyphClass: 2
Flags: W
AnchorPoint: "Anchor-2" 537 735 basechar 0
AnchorPoint: "Anchor-1" 264 0 basechar 0
LayerCount: 2
Fore
SplineSet
472 92 m 2,0,1
 472 70 472 70 487 62.5 c 128,-1,2
 502 55 502 55 534 47 c 2,3,-1
 542 45 l 1,4,-1
 542 0 l 1,5,-1
 410 0 l 1,6,-1
 388 111 l 1,7,-1
 386 121 l 1,8,-1
 386 680 l 2,9,10
 386 695 386 695 379 702.5 c 128,-1,11
 372 710 372 710 358 715 c 128,-1,12
 344 720 344 720 323 725 c 2,13,-1
 316 727 l 1,14,-1
 316 780 l 1,15,-1
 472 780 l 1,16,-1
 472 92 l 2,0,1
241 575 m 0,17,18
 276 575 276 575 306 562.5 c 128,-1,19
 336 550 336 550 361 523.5 c 128,-1,20
 386 497 386 497 405 455 c 1,21,-1
 401 415 l 1,22,23
 380 451 380 451 355.5 473 c 128,-1,24
 331 495 331 495 305 505 c 128,-1,25
 279 515 279 515 250 515 c 0,26,27
 219 515 219 515 196.5 501 c 128,-1,28
 174 487 174 487 159 458 c 128,-1,29
 144 429 144 429 137 384 c 128,-1,30
 130 339 130 339 130 277 c 0,31,32
 130 212 130 212 138 167.5 c 128,-1,33
 146 123 146 123 161.5 96.5 c 128,-1,34
 177 70 177 70 198 58.5 c 128,-1,35
 219 47 219 47 246 47 c 0,36,37
 276 47 276 47 302.5 58 c 128,-1,38
 329 69 329 69 354 94 c 128,-1,39
 379 119 379 119 403 159 c 1,40,-1
 405 119 l 1,41,42
 386 76 386 76 360 46.5 c 128,-1,43
 334 17 334 17 302 2 c 128,-1,44
 270 -13 270 -13 233 -13 c 0,45,46
 171 -13 171 -13 127.5 23.5 c 128,-1,47
 84 60 84 60 62 125.5 c 128,-1,48
 40 191 40 191 40 277 c 0,49,50
 40 364 40 364 64 431 c 128,-1,51
 88 498 88 498 133 536.5 c 128,-1,52
 178 575 178 575 241 575 c 0,17,18
EndSplineSet
EndChar

StartChar: e
Encoding: 101 101 360
Width: 490
GlyphClass: 2
Flags: W
AnchorPoint: "Anchor-2" 387 1 basechar 0
AnchorPoint: "Anchor-1" 269 0 basechar 0
AnchorPoint: "Anchor-0" 250 565 basechar 0
LayerCount: 2
Fore
SplineSet
127 276 m 0,0,1
 127 206 127 206 137.5 161 c 128,-1,2
 148 116 148 116 167 90 c 128,-1,3
 186 64 186 64 213.5 53.5 c 128,-1,4
 241 43 241 43 274 43 c 0,5,6
 306 43 306 43 330.5 55 c 128,-1,7
 355 67 355 67 373.5 87.5 c 128,-1,8
 392 108 392 108 405 135 c 1,9,-1
 450 110 l 1,10,11
 435 72 435 72 408.5 44.5 c 128,-1,12
 382 17 382 17 347 2 c 128,-1,13
 312 -13 312 -13 270 -13 c 0,14,15
 203 -13 203 -13 151 18 c 128,-1,16
 99 49 99 49 69.5 113.5 c 128,-1,17
 40 178 40 178 40 276 c 0,18,19
 40 371 40 371 66.5 438 c 128,-1,20
 93 505 93 505 141.5 540 c 128,-1,21
 190 575 190 575 256 575 c 0,22,23
 305 575 305 575 341.5 556 c 128,-1,24
 378 537 378 537 402 498.5 c 128,-1,25
 426 460 426 460 438 400 c 128,-1,26
 450 340 450 340 450 259 c 1,27,-1
 103 259 l 1,28,-1
 103 313 l 1,29,-1
 388 313 l 1,30,-1
 366 293 l 1,31,32
 366 358 366 358 359.5 401.5 c 128,-1,33
 353 445 353 445 339.5 471 c 128,-1,34
 326 497 326 497 305.5 508 c 128,-1,35
 285 519 285 519 257 519 c 0,36,37
 224 519 224 519 200 506.5 c 128,-1,38
 176 494 176 494 159.5 466 c 128,-1,39
 143 438 143 438 135 391 c 128,-1,40
 127 344 127 344 127 276 c 0,0,1
EndSplineSet
EndChar

StartChar: eogonek
Encoding: 281 281 368
Width: 490
GlyphClass: 1
Flags: W
LayerCount: 2
Fore
SplineSet
337 32 m 1,0,-1
 336 1 l 1,1,2
 320 -5 320 -5 304 -9 c 128,-1,3
 288 -13 288 -13 270 -13 c 0,4,5
 203 -13 203 -13 151 18 c 128,-1,6
 99 49 99 49 69.5 113.5 c 128,-1,7
 40 178 40 178 40 276 c 0,8,9
 40 371 40 371 66 438 c 128,-1,10
 92 505 92 505 141 540 c 128,-1,11
 190 575 190 575 257 575 c 0,12,13
 306 575 306 575 342 556 c 128,-1,14
 378 537 378 537 402 498.5 c 128,-1,15
 426 460 426 460 438 400 c 128,-1,16
 450 340 450 340 450 259 c 1,17,-1
 103 259 l 1,18,-1
 103 313 l 1,19,-1
 385 313 l 1,20,-1
 366 293 l 1,21,22
 366 358 366 358 359.5 401.5 c 128,-1,23
 353 445 353 445 339.5 471 c 128,-1,24
 326 497 326 497 306 508 c 128,-1,25
 286 519 286 519 258 519 c 0,26,27
 225 519 225 519 200.5 506.5 c 128,-1,28
 176 494 176 494 159.5 466 c 128,-1,29
 143 438 143 438 135 391 c 128,-1,30
 127 344 127 344 127 276 c 0,31,32
 127 206 127 206 137.5 161 c 128,-1,33
 148 116 148 116 167 90 c 128,-1,34
 186 64 186 64 213.5 53.5 c 128,-1,35
 241 43 241 43 274 43 c 0,36,37
 306 43 306 43 330.5 55 c 128,-1,38
 355 67 355 67 373.5 88 c 128,-1,39
 392 109 392 109 405 135 c 1,40,-1
 450 110 l 1,41,42
 440 86 440 86 424.5 64.5 c 128,-1,43
 409 43 409 43 374 14 c 0,44,45
 335 -19 335 -19 311.5 -42.5 c 128,-1,46
 288 -66 288 -66 276.5 -84.5 c 128,-1,47
 265 -103 265 -103 261 -119.5 c 128,-1,48
 257 -136 257 -136 257 -154 c 0,49,50
 257 -178 257 -178 267.5 -190.5 c 128,-1,51
 278 -203 278 -203 297 -203 c 0,52,53
 317 -203 317 -203 334.5 -185.5 c 128,-1,54
 352 -168 352 -168 363 -153 c 1,55,-1
 395 -183 l 1,56,57
 373 -213 373 -213 344.5 -232.5 c 128,-1,58
 316 -252 316 -252 273 -252 c 0,59,60
 243 -252 243 -252 218.5 -242 c 128,-1,61
 194 -232 194 -232 179.5 -211.5 c 128,-1,62
 165 -191 165 -191 165 -161 c 0,63,64
 165 -137 165 -137 172.5 -118.5 c 128,-1,65
 180 -100 180 -100 199 -80 c 128,-1,66
 218 -60 218 -60 251.5 -33.5 c 128,-1,67
 285 -7 285 -7 337 32 c 1,0,-1
EndSplineSet
EndChar

StartChar: ecaron
Encoding: 283 283 369
Width: 490
GlyphClass: 1
Flags: W
LayerCount: 2
Fore
SplineSet
211 658 m 1,0,-1
 275 658 l 1,1,-1
 386 824 l 1,2,-1
 386 844 l 1,3,-1
 353 844 l 1,4,-1
 200 698 l 1,5,-1
 290 701 l 1,6,-1
 140 844 l 1,7,-1
 99 844 l 1,8,-1
 99 824 l 1,9,-1
 211 658 l 1,0,-1
127 276 m 0,10,11
 127 206 127 206 137.5 161 c 128,-1,12
 148 116 148 116 167 90 c 128,-1,13
 186 64 186 64 213.5 53.5 c 128,-1,14
 241 43 241 43 274 43 c 0,15,16
 306 43 306 43 330.5 55 c 128,-1,17
 355 67 355 67 373.5 87.5 c 128,-1,18
 392 108 392 108 405 135 c 1,19,-1
 450 110 l 1,20,21
 435 72 435 72 408.5 44.5 c 128,-1,22
 382 17 382 17 347 2 c 128,-1,23
 312 -13 312 -13 270 -13 c 0,24,25
 203 -13 203 -13 151 18 c 128,-1,26
 99 49 99 49 69.5 113.5 c 128,-1,27
 40 178 40 178 40 276 c 0,28,29
 40 371 40 371 66.5 438 c 128,-1,30
 93 505 93 505 141.5 540 c 128,-1,31
 190 575 190 575 256 575 c 0,32,33
 305 575 305 575 341.5 556 c 128,-1,34
 378 537 378 537 402 498.5 c 128,-1,35
 426 460 426 460 438 400 c 128,-1,36
 450 340 450 340 450 259 c 1,37,-1
 103 259 l 1,38,-1
 103 313 l 1,39,-1
 388 313 l 1,40,-1
 366 293 l 1,41,42
 366 358 366 358 359.5 401.5 c 128,-1,43
 353 445 353 445 339.5 471 c 128,-1,44
 326 497 326 497 305.5 508 c 128,-1,45
 285 519 285 519 257 519 c 0,46,47
 224 519 224 519 200 506.5 c 128,-1,48
 176 494 176 494 159.5 466 c 128,-1,49
 143 438 143 438 135 391 c 128,-1,50
 127 344 127 344 127 276 c 0,10,11
EndSplineSet
EndChar

